SplineFontDB: 3.2
FontName: Garuda-Oblique
FullName: Garuda Oblique
FamilyName: Garuda
Weight: Regular
Copyright: Generated by NECTEC for Public Domain\n\nModified under GNU General Public License by TLWG
Version: 004.002
ItalicAngle: -12
UnderlinePosition: -27
UnderlineWidth: 10
Ascent: 840
Descent: 160
InvalidEm: 0
LayerCount: 3
Layer: 0 0 "Back" 1
Layer: 1 0 "Fore" 0
Layer: 2 1 "Quad" 0
FSType: 0
OS2Version: 4
OS2_WeightWidthSlopeOnly: 0
OS2_UseTypoMetrics: 1
CreationTime: 1153661469
ModificationTime: 1587792148
PfmFamily: 33
TTFWeight: 400
TTFWidth: 5
LineGap: 0
VLineGap: 0
Panose: 2 11 6 4 2 2 2 2 2 4
OS2TypoAscent: 1284
OS2TypoAOffset: 0
OS2TypoDescent: -591
OS2TypoDOffset: 0
OS2TypoLinegap: 0
OS2WinAscent: 1284
OS2WinAOffset: 0
OS2WinDescent: 591
OS2WinDOffset: 0
HheadAscent: 1284
HheadAOffset: 0
HheadDescent: -591
HheadDOffset: 0
OS2Vendor: 'PfEd'
Lookup: 6 0 0 "'ccmp' Thai Tone Tilde Reordering" { "'ccmp' Thai Tone Tilde Reordering"  } ['ccmp' ('DFLT' <'dflt' > 'latn' <'dflt' > 'thai' <'KUY ' 'MLY ' 'PAL ' 'SAN ' 'THA ' 'dflt' > ) ]
Lookup: 6 0 0 "'ccmp' Thai Tone Macron Reordering" { "'ccmp' Thai Tone Macron Reordering"  } ['ccmp' ('DFLT' <'dflt' > 'latn' <'dflt' > 'thai' <'KUY ' 'MLY ' 'PAL ' 'SAN ' 'THA ' 'dflt' > ) ]
Lookup: 6 0 0 "'ccmp' Thai Below Vowel Macron Reordering" { "'ccmp' Thai Below Vowel Macron Reordering"  } ['ccmp' ('DFLT' <'dflt' > 'latn' <'dflt' > 'thai' <'KUY ' 'MLY ' 'PAL ' 'SAN ' 'THA ' 'dflt' > ) ]
Lookup: 4 0 0 "'ccmp' Patani Malay Ligatures" { "'ccmp' Patani Malay Ligatures"  } ['ccmp' ('DFLT' <'dflt' > 'thai' <'KUY ' 'MLY ' 'PAL ' 'SAN ' 'THA ' 'dflt' > ) ]
Lookup: 6 0 0 "'ccmp' Thai Conditional Descender Removal" { "'ccmp' Thai Conditional Descender Removal"  } ['ccmp' ('DFLT' <'dflt' > 'thai' <'KUY ' 'MLY ' 'THA ' 'dflt' > ) ]
Lookup: 1 0 0 "'ccmp' Pali-Sanskrit Descender Removal" { "'ccmp' Pali-Sanskrit Descender Removal" ("descless") } ['ccmp' ('thai' <'PAL ' 'SAN ' > ) ]

StartChar: .notdef
Encoding: 65536 -1 0
Width: 766
VWidth: 2048
Flags: W
HStem: 0 95<212 595> 1193 95<445 828>
DStem2: 95 0 191.807 0 0.207912 0.978148<117.25 1239.7> 574.807 0 671 0 0.207912 0.978148<97.1224 1219.57>
LayerCount: 3
Fore
SplineSet
95 0 m 1
 369 1288 l 1
 946 1288 l 1
 671 0 l 1
 95 0 l 1
212 95 m 1
 595 95 l 1
 828 1193 l 1
 445 1193 l 1
 212 95 l 1
EndSplineSet
Validated: 1
Layer: 2
SplineSet
95 0 m 1,0,-1
 369 1288 l 1,1,-1
 946 1288 l 1,2,-1
 671 0 l 1,3,-1
 95 0 l 1,0,-1
212 95 m 1,4,-1
 595 95 l 1,5,-1
 828 1193 l 1,6,-1
 445 1193 l 1,7,-1
 212 95 l 1,4,-1
EndSplineSet
EndChar

StartChar: exclam
Encoding: 33 33 2
Width: 277
VWidth: 2048
Flags: W
HStem: 0 100<111 192> 696 20G<233.823 347>
VStem: 90 102<0 102> 111 102<-2 100> 151 57<178 203.094> 238 109<607 716>
DStem2: 90 0 192 0 0.207912 0.978148<21.207 102.181 569.716 731.125>
LayerCount: 3
Fore
SplineSet
151 178 m 1xcc
 205 558 l 1
 238 716 l 1
 347 716 l 1
 314 558 l 1
 208 178 l 1
 151 178 l 1xcc
90 0 m 1xe4
 111 100 l 1
 213 100 l 1xd4
 192 0 l 1
 90 0 l 1xe4
EndSplineSet
Validated: 1
Layer: 2
SplineSet
151 178 m 1,0,-1
 205 558 l 1,1,-1
 238 716 l 1,2,-1
 347 716 l 1,3,-1
 314 558 l 1,4,-1
 208 178 l 1,5,-1
 151 178 l 1,0,-1
90 0 m 1,6,-1
 111 100 l 1,7,-1
 213 100 l 1,8,-1
 192 0 l 1,9,-1
 90 0 l 1,6,-1
EndSplineSet
EndChar

StartChar: quotedbl
Encoding: 34 34 3
Width: 354
VWidth: 2048
Flags: W
HStem: 463 253<298 322 460 483>
VStem: 198 100<616 716> 360 100<616 716>
LayerCount: 3
Fore
SplineSet
169 463 m 1
 173 599 l 1
 198 716 l 1
 298 716 l 1
 273 599 l 1
 222 463 l 1
 169 463 l 1
329 463 m 1
 335 599 l 1
 360 716 l 1
 460 716 l 1
 435 599 l 1
 383 463 l 1
 329 463 l 1
EndSplineSet
Validated: 1
Layer: 2
SplineSet
169 463 m 1,0,-1
 173 599 l 1,1,-1
 198 716 l 1,2,-1
 298 716 l 1,3,-1
 273 599 l 1,4,-1
 222 463 l 1,5,-1
 169 463 l 1,0,-1
329 463 m 1,6,-1
 335 599 l 1,7,-1
 360 716 l 1,8,-1
 460 716 l 1,9,-1
 435 599 l 1,10,-1
 383 463 l 1,11,-1
 329 463 l 1,6,-1
EndSplineSet
EndChar

StartChar: numbersign
Encoding: 35 35 4
Width: 556
VWidth: 2048
Flags: W
HStem: -12 21G<48 129.365 274 356.462> 196 72<68 136 238 361 465 586> 446 72<121 239 341 466 570 639> 708 20G<347.714 429 574.619 656>
DStem2: 48 -12 121 -12 0.384261 0.923225<28.0511 225.846 331.512 496.231 601.897 801.539> 274 -12 348 -12 0.385324 0.922782<28.5139 225.462 331.976 496.616 603.13 801.923>
LayerCount: 3
Fore
SplineSet
48 -12 m 1
 136 196 l 1
 53 196 l 1
 68 268 l 1
 164 268 l 1
 239 446 l 1
 106 446 l 1
 121 518 l 1
 269 518 l 1
 356 728 l 1
 429 728 l 1
 341 518 l 1
 495 518 l 1
 583 728 l 1
 656 728 l 1
 570 518 l 1
 654 518 l 1
 639 446 l 1
 540 446 l 1
 465 268 l 1
 601 268 l 1
 586 196 l 1
 436 196 l 1
 348 -12 l 1
 274 -12 l 1
 361 196 l 1
 208 196 l 1
 121 -12 l 1
 48 -12 l 1
238 268 m 1
 391 268 l 1
 466 446 l 1
 313 446 l 1
 238 268 l 1
EndSplineSet
Validated: 1
Layer: 2
SplineSet
48 -12 m 1,0,-1
 136 196 l 1,1,-1
 53 196 l 1,2,-1
 68 268 l 1,3,-1
 164 268 l 1,4,-1
 239 446 l 1,5,-1
 106 446 l 1,6,-1
 121 518 l 1,7,-1
 269 518 l 1,8,-1
 356 728 l 1,9,-1
 429 728 l 1,10,-1
 341 518 l 1,11,-1
 495 518 l 1,12,-1
 583 728 l 1,13,-1
 656 728 l 1,14,-1
 570 518 l 1,15,-1
 654 518 l 1,16,-1
 639 446 l 1,17,-1
 540 446 l 1,18,-1
 465 268 l 1,19,-1
 601 268 l 1,20,-1
 586 196 l 1,21,-1
 436 196 l 1,22,-1
 348 -12 l 1,23,-1
 274 -12 l 1,24,-1
 361 196 l 1,25,-1
 208 196 l 1,26,-1
 121 -12 l 1,27,-1
 48 -12 l 1,0,-1
238 268 m 1,28,-1
 391 268 l 1,29,-1
 466 446 l 1,30,-1
 313 446 l 1,31,-1
 238 268 l 1,28,-1
EndSplineSet
EndChar

StartChar: dollar
Encoding: 36 36 5
Width: 556
VWidth: 2048
Flags: W
HStem: -15 75<211.052 247 313 380.268> 667 73<326.596 392 457 485.11>
VStem: 74 95<100.512 199> 161 90<462.929 590.837> 228 50<-103 -53> 463 96<148.704 283.664> 519 94<564.327 635.155>
DStem2: 228 -103 278 -103 0.207912 0.978148<10.3956 90.0273 177.111 448.941 537.792 787.271 872.19 904.748>
LayerCount: 3
Fore
SplineSet
486 72 m 0xc4
 435 17 374 -10 297 -14 c 1
 278 -103 l 1
 228 -103 l 1
 247 -15 l 1
 131 0 74 57 74 156 c 3
 74 169 75 184 77 199 c 1
 170 216 l 1
 169 206 169 197 169 188 c 3xec
 169 111 200 68 263 60 c 1
 322 339 l 1
 214 364 161 415 161 495 c 3
 161 568 192 621 227 659 c 0
 272 707 333 733 407 740 c 1
 416 782 l 1
 466 782 l 1
 457 740 l 1
 562 731 613 677 613 584 c 3
 613 577 613 571 612 564 c 1
 519 550 l 1
 519 560 l 2xd2
 519 620 494 656 442 667 c 1
 388 412 l 1
 502 387 559 333 559 250 c 3
 559 175 525 114 486 72 c 0xc4
392 667 m 1
 346 661 314 642 290 615 c 0
 265 587 251 553 251 520 c 3xd0
 251 474 281 442 340 423 c 1
 392 667 l 1
313 60 m 1
 358 65 396 84 423 118 c 0
 444 144 463 182 463 225 c 3xc4
 463 272 432 306 369 326 c 1
 313 60 l 1
EndSplineSet
Layer: 2
SplineSet
485.5 71.5 m 128,-1,1
 412 -8 412 -8 297 -14 c 1,2,-1
 278 -103 l 1,3,-1
 228 -103 l 1,4,-1
 247 -15 l 1,5,6
 74 7 74 7 74 156 c 3,7,8
 74 176 74 176 77 199 c 1,9,-1
 170 216 l 1,10,11
 169 206 169 206 169 188 c 3,12,13
 169 72 169 72 263 60 c 1,14,-1
 322 339 l 1,15,16
 161 376 161 376 161 495 c 3,17,18
 161 587 161 587 227 658 c 128,-1,19
 293 729 293 729 407 740 c 1,20,-1
 416 782 l 1,21,-1
 466 782 l 1,22,-1
 457 740 l 1,23,24
 613 727 613 727 613 584 c 3,25,26
 613 571 613 571 612 564 c 1,27,-1
 519 550 l 1,28,-1
 519 560 l 2,29,30
 519 651 519 651 442 667 c 1,31,-1
 388 412 l 1,32,33
 559 374 559 374 559 250 c 3,34,0
 559 151 559 151 485.5 71.5 c 128,-1,1
392 667 m 1,35,36
 329 659 329 659 290 615 c 128,-1,37
 251 571 251 571 251 520 c 3,38,39
 251 452 251 452 340 423 c 1,40,-1
 392 667 l 1,35,36
313 60 m 1,41,42
 383 68 383 68 423 118 c 128,-1,43
 463 168 463 168 463 225 c 3,44,45
 463 296 463 296 369 326 c 1,46,-1
 313 60 l 1,41,42
EndSplineSet
EndChar

StartChar: percent
Encoding: 37 37 6
Width: 889
VWidth: 2048
Flags: W
HStem: -26 62<635.659 735.263> 293 60<683.649 780.944> 349 62<252.659 352.263> 668 60<300.649 397.944>
VStem: 166 76<421.584 587.576> 206 73<-26 47> 410 77<492.262 656.922> 549 76<46.5842 212.576> 759 70<658 728> 793 77<117.262 281.922>
DStem2: 206 -26 279 -26 0.59141 0.806371<43.1729 935.053>
LayerCount: 3
Fore
SplineSet
811 49 m 0xd340
 774.89453125 3.6083984375 725 -26 667 -26 c 3
 587 -26 549 26 549 104 c 3
 549 175 571 234 604 278 c 0
 638 325 687 353 746 353 c 3
 825 353 870 306 870 224 c 3
 870 154 843.37109375 89.6953125 811 49 c 0xd340
737 293 m 3
 701 293 671 268 654 230 c 0
 636 191 625 147 625 103 c 3
 625 58 643 36 682 36 c 3
 717 36 744 57 764 99 c 0
 777 127 793 182 793 223 c 3
 793 269 774 293 737 293 c 3
428 424 m 0
 391.894151075 378.608726903 342 349 284 349 c 3
 204 349 166 401 166 479 c 3xbb
 166 550 188 609 221 653 c 0
 255 700 304 728 363 728 c 3
 442 728 487 681 487 599 c 3
 487 529 460.370761105 464.695624156 428 424 c 0
354 668 m 3
 318 668 288 643 271 605 c 0
 253 566 242 522 242 478 c 3
 242 433 260 411 299 411 c 3
 334 411 361 432 381 474 c 0
 394 502 410 557 410 598 c 3
 410 644 391 668 354 668 c 3
206 -26 m 1x9780
 759 728 l 1
 829 728 l 1
 279 -26 l 1
 206 -26 l 1x9780
EndSplineSet
Layer: 2
SplineSet
811 49 m 0,0,1
 751 -26 751 -26 667 -26 c 259,2,3
 609 -26 609 -26 579 9 c 128,-1,4
 549 44 549 44 549 104 c 259,5,6
 549 205 549 205 604 278 c 0,7,8
 658 353 658 353 746 353 c 259,9,10
 805 353 805 353 837.5 319.5 c 128,-1,11
 870 286 870 286 870 224 c 259,12,13
 870 123 870 123 811 49 c 0,0,1
737 293 m 259,14,15
 682 293 682 293 654 230 c 0,16,17
 625 167 625 167 625 103 c 259,18,19
 625 36 625 36 682 36 c 259,20,21
 734 36 734 36 764 99 c 0,22,23
 793 161 793 161 793 223 c 259,24,25
 793 293 793 293 737 293 c 259,14,15
428 424 m 0,26,27
 368 349 368 349 284 349 c 259,28,29
 226 349 226 349 196 384 c 128,-1,30
 166 419 166 419 166 479 c 259,31,32
 166 580 166 580 221 653 c 0,33,34
 275 728 275 728 363 728 c 259,35,36
 422 728 422 728 454.5 694.5 c 128,-1,37
 487 661 487 661 487 599 c 259,38,39
 487 498 487 498 428 424 c 0,26,27
354 668 m 259,40,41
 299 668 299 668 271 605 c 0,42,43
 242 542 242 542 242 478 c 259,44,45
 242 411 242 411 299 411 c 259,46,47
 351 411 351 411 381 474 c 0,48,49
 410 536 410 536 410 598 c 259,50,51
 410 668 410 668 354 668 c 259,40,41
206 -26 m 1,52,-1
 759 728 l 1,53,-1
 829 728 l 1,54,-1
 279 -26 l 1,55,-1
 206 -26 l 1,52,-1
EndSplineSet
EndChar

StartChar: ampersand
Encoding: 38 38 7
Width: 666
VWidth: 2048
Flags: W
HStem: -12 76<219.047 369.491> 656 72<384.162 496.859>
VStem: 81 97<105.111 242.942> 251 93<503.012 617.768> 512 92<534.668 640.979>
DStem2: 393 458 301 412 0.509068 -0.860726<-111.026 -7.24082 65.509 255.03>
LayerCount: 3
Fore
SplineSet
466 728 m 3
 561 728 604 672 604 608 c 3
 604 522 534 452 427 402 c 1
 522 238 l 1
 543 267 561 299 576 337 c 1
 663 317 l 1
 635 254 602 204 567 162 c 1
 591 120 619 83 655 54 c 1
 582 -17 l 1
 551 6 522 40 493 84 c 1
 421 20 346 -12 267 -12 c 3
 131 -12 81 77 81 158 c 3
 81 262 158 349 301 412 c 1
 268 462 251 506 251 544 c 3
 251 641 354 728 466 728 c 3
446 656 m 3
 390 656 344 610 344 559 c 3
 344 538 356 517 393 458 c 1
 467 497 512 541 512 594 c 3
 512 634 484 656 446 656 c 3
178 172 m 3
 178 108 224 64 285 64 c 3
 347 64 402 95 453 155 c 1
 334 354 l 1
 235 301 178 244 178 172 c 3
EndSplineSet
Layer: 2
SplineSet
466 728 m 259,0,1
 534 728 534 728 569 694 c 128,-1,2
 604 660 604 660 604 608 c 259,3,4
 604 485 604 485 427 402 c 1,5,-1
 522 238 l 1,6,7
 555 283 555 283 576 337 c 1,8,-1
 663 317 l 1,9,10
 625 232 625 232 567 162 c 1,11,12
 606 93 606 93 655 54 c 1,13,-1
 582 -17 l 1,14,15
 538 16 538 16 493 84 c 1,16,17
 385 -12 385 -12 267 -12 c 259,18,19
 173 -12 173 -12 127 38.5 c 128,-1,20
 81 89 81 89 81 158 c 259,21,22
 81 315 81 315 301 412 c 1,23,24
 251 488 251 488 251 544 c 259,25,26
 251 617 251 617 316.5 672.5 c 128,-1,27
 382 728 382 728 466 728 c 259,0,1
446 656 m 259,28,29
 404 656 404 656 374 627 c 128,-1,30
 344 598 344 598 344 559 c 259,31,32
 344 536 344 536 393 458 c 1,33,34
 512 521 512 521 512 594 c 259,35,36
 512 623 512 623 493.5 639.5 c 128,-1,37
 475 656 475 656 446 656 c 259,28,29
178 172 m 259,38,39
 178 124 178 124 208.5 94 c 128,-1,40
 239 64 239 64 285 64 c 259,41,42
 376 64 376 64 453 155 c 1,43,-1
 334 354 l 1,44,45
 178 270 178 270 178 172 c 259,38,39
EndSplineSet
EndChar

StartChar: quotesingle
Encoding: 39 39 8
Width: 190
VWidth: 2048
Flags: W
HStem: 463 253<196 219>
VStem: 196 100<616 716>
LayerCount: 3
Fore
SplineSet
164 463 m 1
 171 596 l 1
 196 716 l 1
 296 716 l 1
 271 596 l 1
 219 463 l 1
 164 463 l 1
EndSplineSet
Validated: 1
Layer: 2
SplineSet
164 463 m 1,0,-1
 171 596 l 1,1,-1
 196 716 l 1,2,-1
 296 716 l 1,3,-1
 271 596 l 1,4,-1
 219 463 l 1,5,-1
 164 463 l 1,0,-1
EndSplineSet
EndChar

StartChar: parenleft
Encoding: 40 40 9
Width: 332
VWidth: 2048
Flags: W
HStem: -210 21G<160 252> 708 20G<296 452>
VStem: 100 90<-47.3224 274.173>
LayerCount: 3
Fore
SplineSet
452 728 m 1
 281 522 190 308 190 96 c 3
 190 -6 210 -108 252 -210 c 1
 190 -210 l 1
 130 -107 100 0 100 113 c 3
 100 329 202 536 390 728 c 1
 452 728 l 1
EndSplineSet
Layer: 2
SplineSet
452 728 m 1,0,1
 190 412 190 412 190 96 c 259,2,3
 190 -59 190 -59 252 -210 c 1,4,-1
 190 -210 l 1,5,6
 100 -55 100 -55 100 113 c 259,7,8
 100 432 100 432 390 728 c 1,9,-1
 452 728 l 1,0,1
EndSplineSet
EndChar

StartChar: parenright
Encoding: 41 41 10
Width: 332
VWidth: 2048
Flags: W
HStem: -210 21G<16 175.5> 708 20G<216 308.5>
VStem: 281 86<249.907 563.837>
LayerCount: 3
Fore
SplineSet
16 -210 m 1
 190 -1 281 214 281 428 c 3
 281 520 257 624 216 728 c 1
 279 728 l 1
 338 619 367 509 367 397 c 3
 367 192 272 -17 79 -210 c 1
 16 -210 l 1
EndSplineSet
Layer: 2
SplineSet
16 -210 m 1,0,1
 281 108 281 108 281 428 c 259,2,3
 281 563 281 563 216 728 c 1,4,-1
 279 728 l 1,5,6
 367 565 367 565 367 397 c 259,7,8
 367 78 367 78 79 -210 c 1,9,-1
 16 -210 l 1,0,1
EndSplineSet
EndChar

StartChar: asterisk
Encoding: 42 42 11
Width: 387
VWidth: 2048
Flags: W
HStem: 584 71<410.363 470.789> 708 20G<311 382>
VStem: 313 69<652.029 728>
LayerCount: 3
Fore
SplineSet
156 584 m 1
 193 655 l 1
 241 636 276 621 296 607 c 1
 302 665 309 707 313 728 c 1
 382 728 l 1
 375 696 362 655 345 607 c 1
 383 624 424 639 470 655 c 1
 478 584 l 1
 434 572 393 563 352 558 c 1
 368 540 390 509 416 464 c 1
 348 423 l 1
 335 449 318 484 304 529 c 1
 269 483 241 448 217 423 c 1
 168 464 l 1
 216 512 251 543 271 558 c 1
 230 566 191 575 156 584 c 1
EndSplineSet
Layer: 2
SplineSet
156 584 m 1,0,-1
 193 655 l 1,1,2
 272 624 272 624 296 607 c 1,3,4
 303 676 303 676 313 728 c 1,5,-1
 382 728 l 1,6,7
 373 685 373 685 345 607 c 1,8,9
 390 627 390 627 470 655 c 1,10,-1
 478 584 l 1,11,12
 407 565 407 565 352 558 c 1,13,14
 380 527 380 527 416 464 c 1,15,-1
 348 423 l 1,16,17
 319 481 319 481 304 529 c 1,18,19
 248 455 248 455 217 423 c 1,20,-1
 168 464 l 1,21,22
 235 531 235 531 271 558 c 1,23,24
 213 569 213 569 156 584 c 1,0,-1
EndSplineSet
EndChar

StartChar: plus
Encoding: 43 43 12
Width: 583
VWidth: 2048
Flags: W
HStem: 313 81<139 318 418 596> 569 20G<371.795 459>
VStem: 276 83<116 199> 376 83<506 589>
DStem2: 276 116 359 116 0.207912 0.978148<17.2567 201.427 301.448 483.455>
LayerCount: 3
Fore
SplineSet
276 116 m 1
 318 313 l 1
 122 313 l 1
 139 394 l 1
 335 394 l 1
 376 589 l 1
 459 589 l 1
 418 394 l 1
 613 394 l 1
 596 313 l 1
 401 313 l 1
 359 116 l 1
 276 116 l 1
EndSplineSet
Validated: 1
Layer: 2
SplineSet
276 116 m 1,0,-1
 318 313 l 1,1,-1
 122 313 l 1,2,-1
 139 394 l 1,3,-1
 335 394 l 1,4,-1
 376 589 l 1,5,-1
 459 589 l 1,6,-1
 418 394 l 1,7,-1
 613 394 l 1,8,-1
 596 313 l 1,9,-1
 401 313 l 1,10,-1
 359 116 l 1,11,-1
 276 116 l 1,0,-1
EndSplineSet
EndChar

StartChar: comma
Encoding: 44 44 13
Width: 277
VWidth: 2048
Flags: W
HStem: -141 241
VStem: 110 101<-1 100>
LayerCount: 3
Fore
SplineSet
89 0 m 1
 110 100 l 1
 211 100 l 1
 190 0 l 2
 175 -71 137 -118 77 -141 c 1
 61 -104 l 1
 99 -89 125 -54 138 0 c 1
 89 0 l 1
EndSplineSet
Validated: 1
Layer: 2
SplineSet
89 0 m 1,0,-1
 110 100 l 1,1,-1
 211 100 l 1,2,-1
 190 0 l 2,3,4
 168 -106 168 -106 77 -141 c 1,5,-1
 61 -104 l 1,6,7
 118 -81 118 -81 138 0 c 1,8,-1
 89 0 l 1,0,-1
EndSplineSet
EndChar

StartChar: hyphen
Encoding: 45 45 14
AltUni2: 002010.ffffffff.0
Width: 332
VWidth: 2048
Flags: W
HStem: 215 88<96 348>
VStem: 78 288
LayerCount: 3
Fore
SplineSet
78 215 m 1
 96 303 l 1
 366 303 l 1
 348 215 l 1
 78 215 l 1
EndSplineSet
Validated: 1
Layer: 2
SplineSet
78 215 m 1,0,-1
 96 303 l 1,1,-1
 366 303 l 1,2,-1
 348 215 l 1,3,-1
 78 215 l 1,0,-1
EndSplineSet
EndChar

StartChar: period
Encoding: 46 46 15
Width: 277
VWidth: 2048
Flags: W
HStem: 0 100<111 192>
VStem: 90 102<0 102> 111 102<-2 100>
LayerCount: 3
Fore
SplineSet
90 0 m 1xc0
 111 100 l 1
 213 100 l 1xa0
 192 0 l 1
 90 0 l 1xc0
EndSplineSet
Validated: 1
Layer: 2
SplineSet
90 0 m 1,0,-1
 111 100 l 1,1,-1
 213 100 l 1,2,-1
 192 0 l 1,3,-1
 90 0 l 1,0,-1
EndSplineSet
EndChar

StartChar: slash
Encoding: 47 47 16
Width: 277
VWidth: 2048
Flags: W
HStem: -12 21G<-3 77.8378> 708 20G<352.135 432>
DStem2: -3 -12 68 -12 0.442359 0.896838<31.4075 825.121>
LayerCount: 3
Fore
SplineSet
-3 -12 m 1
 362 728 l 1
 432 728 l 1
 68 -12 l 1
 -3 -12 l 1
EndSplineSet
Validated: 1
Layer: 2
SplineSet
-3 -12 m 1,0,-1
 362 728 l 1,1,-1
 432 728 l 1,2,-1
 68 -12 l 1,3,-1
 -3 -12 l 1,0,-1
EndSplineSet
EndChar

StartChar: zero
Encoding: 48 48 17
Width: 556
VWidth: 2048
Flags: W
HStem: -12 72<226.991 356.414> 658 72<344.341 476.168>
VStem: 98 89<105.459 370.819> 515 90<342.624 613.722>
LayerCount: 3
Fore
SplineSet
185 556 m 0
 245 672 327 730 431 730 c 3
 547 730 605 659 605 521 c 3
 605 395 572 273 519 164 c 0
 460 43 377 -12 273 -12 c 3
 156 -12 98 59 98 198 c 3
 98 321 132 453 185 556 c 0
187 207 m 3
 187 110 221 60 289 60 c 3
 356 60 413 114 455 218 c 0
 494 314 515 422 515 510 c 3
 515 607 482 658 414 658 c 3
 345 658 288 601 248 500 c 0
 214 413 187 296 187 207 c 3
EndSplineSet
Layer: 2
SplineSet
185 556 m 0,0,1
 275 730 275 730 431 730 c 259,2,3
 605 730 605 730 605 521 c 259,4,5
 605 341 605 341 519 164 c 0,6,7
 433 -12 433 -12 273 -12 c 259,8,9
 98 -12 98 -12 98 198 c 259,10,11
 98 387 98 387 185 556 c 0,0,1
187 207 m 259,12,13
 187 60 187 60 289 60 c 259,14,15
 391 60 391 60 455 218 c 0,16,17
 515 366 515 366 515 510 c 259,18,19
 515 658 515 658 414 658 c 259,20,21
 311 658 311 658 248 500 c 0,22,23
 187 344 187 344 187 207 c 259,12,13
EndSplineSet
EndChar

StartChar: one
Encoding: 49 49 18
Width: 556
VWidth: 2048
Flags: W
HStem: 0 21G<285 378.246> 696 20G<443 526>
VStem: 285 89<0 89> 468 58<689.564 716>
DStem2: 285 0 374 0 0.207912 0.978148<18.5041 570.548>
LayerCount: 3
Fore
SplineSet
374 0 m 1
 285 0 l 1
 404 558 l 1
 347 512 281 477 205 451 c 1
 223 537 l 1
 336 584 418 644 468 716 c 1
 526 716 l 1
 374 0 l 1
EndSplineSet
Layer: 2
SplineSet
374 0 m 1,0,-1
 285 0 l 1,1,-1
 404 558 l 1,2,3
 320 490 320 490 205 451 c 1,4,-1
 223 537 l 1,5,6
 393 608 393 608 468 716 c 1,7,-1
 526 716 l 1,8,-1
 374 0 l 1,0,-1
EndSplineSet
EndChar

StartChar: two
Encoding: 50 50 19
Width: 556
VWidth: 2048
Flags: W
HStem: 0 72<154 501> 658 72<328.804 491.285>
VStem: 528 91<489.457 620.437>
LayerCount: 3
Fore
SplineSet
563 426 m 0
 524 374 459 315 352 236 c 0
 209 130 185 110 154 72 c 1
 516 72 l 1
 501 0 l 1
 28 0 l 1
 46 84 119 161 321 307 c 0
 388 355 438 400 472 440 c 0
 509 484 528 523 528 561 c 3
 528 621 482 658 416 658 c 3
 329 658 263 604 244 514 c 1
 155 523 l 1
 197 661 290 730 432 730 c 3
 546 730 619 673 619 577 c 3
 619 524 598 472 563 426 c 0
EndSplineSet
Layer: 2
SplineSet
563 426 m 0,0,1
 505 349 505 349 352 236 c 0,2,3
 245 157 245 157 211 129 c 128,-1,4
 177 101 177 101 154 72 c 1,5,-1
 516 72 l 1,6,-1
 501 0 l 1,7,-1
 28 0 l 1,8,9
 42 63 42 63 106 130.5 c 128,-1,10
 170 198 170 198 321 307 c 0,11,12
 418 377 418 377 472 440 c 0,13,14
 528 507 528 507 528 561 c 259,15,16
 528 605 528 605 497 631.5 c 128,-1,17
 466 658 466 658 416 658 c 259,18,19
 350 658 350 658 304 619.5 c 128,-1,20
 258 581 258 581 244 514 c 1,21,-1
 155 523 l 1,22,23
 187 627 187 627 256 678.5 c 128,-1,24
 325 730 325 730 432 730 c 259,25,26
 518 730 518 730 568.5 689.5 c 128,-1,27
 619 649 619 649 619 577 c 259,28,29
 619 500 619 500 563 426 c 0,0,1
EndSplineSet
EndChar

StartChar: three
Encoding: 51 51 20
Width: 556
VWidth: 2048
Flags: W
HStem: -12 72<216.242 364.059> 344 76<314 351.246> 354 66<314 419.711> 526 21G<166 266> 658 72<332.424 474.652>
VStem: 81 92<107.094 193> 466 92<164.256 315.899> 503 91<498.653 629.631>
LayerCount: 3
Fore
SplineSet
476 73 m 0xde
 421 18 345 -12 267 -12 c 3
 138 -12 81 63 81 166 c 3
 81 175 81 184 82 193 c 1
 173 204 l 1
 173 110 209 60 283 60 c 3
 334 60 380 83 413 119 c 0
 443 151 466 197 466 248 c 3
 466 312 424 354 352 354 c 3xbe
 336 354 315 350 289 344 c 1
 314 420 l 1
 336 420 l 2
 381 420 424 437 455 466 c 0
 484 492 503 533 503 571 c 3
 503 626 464 658 408 658 c 3
 335 658 282 612 250 526 c 1
 166 541 l 1
 216 666 301 730 422 730 c 3
 532 730 594 669 594 583 c 3xdd
 594 535 579 498 557 468 c 0
 534 436 501 411 458 393 c 1
 526 377 558 334 558 269 c 3
 558 189 521 118 476 73 c 0xde
EndSplineSet
Layer: 2
SplineSet
476 73 m 0,0,1
 391 -12 391 -12 267 -12 c 259,2,3
 174 -12 174 -12 127.5 36.5 c 128,-1,4
 81 85 81 85 81 166 c 259,5,6
 81 184 81 184 82 193 c 1,7,-1
 173 204 l 1,8,9
 173 133 173 133 200 96.5 c 128,-1,10
 227 60 227 60 283 60 c 259,11,12
 359 60 359 60 413 119 c 0,13,14
 466 176 466 176 466 248 c 259,15,16
 466 297 466 297 435.5 325.5 c 128,-1,17
 405 354 405 354 352 354 c 259,18,19
 332 354 332 354 289 344 c 1,20,-1
 314 420 l 1,21,-1
 336 420 l 2,22,23
 406 420 406 420 455 466 c 0,24,25
 503 509 503 509 503 571 c 259,26,27
 503 612 503 612 477 635 c 128,-1,28
 451 658 451 658 408 658 c 259,29,30
 299 658 299 658 250 526 c 1,31,-1
 166 541 l 1,32,33
 242 730 242 730 422 730 c 259,34,35
 503 730 503 730 548.5 689.5 c 128,-1,36
 594 649 594 649 594 583 c 259,37,38
 594 518 594 518 557 468 c 0,39,40
 523 420 523 420 458 393 c 1,41,42
 558 369 558 369 558 269 c 259,43,44
 558 155 558 155 476 73 c 0,0,1
EndSplineSet
EndChar

StartChar: four
Encoding: 52 52 21
Width: 556
VWidth: 2048
Flags: W
HStem: 0 21G<323 416.199> 181 72<154 361 466 547> 696 20G<473.598 564>
VStem: 323 89<0 89>
DStem2: 66 253 154 253 0.677091 0.735899<59.584 493.577> 323 0 412 0 0.207912 0.978148<18.5041 184.945 277.203 587.8>
LayerCount: 3
Fore
SplineSet
323 0 m 1
 361 181 l 1
 50 181 l 1
 66 253 l 1
 492 716 l 1
 564 716 l 1
 466 253 l 1
 563 253 l 1
 547 181 l 1
 450 181 l 1
 412 0 l 1
 323 0 l 1
377 253 m 1
 445 575 l 1
 154 253 l 1
 377 253 l 1
EndSplineSet
Validated: 1
Layer: 2
SplineSet
323 0 m 1,0,-1
 361 181 l 1,1,-1
 50 181 l 1,2,-1
 66 253 l 1,3,-1
 492 716 l 1,4,-1
 564 716 l 1,5,-1
 466 253 l 1,6,-1
 563 253 l 1,7,-1
 547 181 l 1,8,-1
 450 181 l 1,9,-1
 412 0 l 1,10,-1
 323 0 l 1,0,-1
377 253 m 1,11,-1
 445 575 l 1,12,-1
 154 253 l 1,13,-1
 377 253 l 1,11,-1
EndSplineSet
EndChar

StartChar: five
Encoding: 53 53 22
Width: 556
VWidth: 2048
Flags: W
HStem: -12 72<211.214 364.894> 404 72<291.687 435.561> 644 72<335 620>
VStem: 80 94<99.9205 189> 479 92<191.666 361.044>
DStem2: 130 343 251 433 0.370961 0.928648<19.4618 66.7027 128.465 355.57>
LayerCount: 3
Fore
SplineSet
479 287 m 3
 479 359 438 404 356 404 c 3
 299 404 251 378 210 332 c 1
 130 343 l 1
 279 716 l 1
 635 716 l 1
 620 644 l 1
 335 644 l 1
 251 433 l 1
 301 464 348 476 394 476 c 3
 512 476 571 407 571 307 c 3
 571 220 534 141 485 86 c 0
 432 26 356 -12 268 -12 c 3
 150 -12 80 51 80 161 c 3
 80 170 80 179 81 189 c 1
 174 195 l 1
 174 180 l 2
 174 101 211 60 284 60 c 3
 335 60 385 85 422 129 c 0
 453 166 479 227 479 287 c 3
EndSplineSet
Layer: 2
SplineSet
479 287 m 259,0,1
 479 342 479 342 447.5 373 c 128,-1,2
 416 404 416 404 356 404 c 259,3,4
 274 404 274 404 210 332 c 1,5,-1
 130 343 l 1,6,-1
 279 716 l 1,7,-1
 635 716 l 1,8,-1
 620 644 l 1,9,-1
 335 644 l 1,10,-1
 251 433 l 1,11,12
 320 476 320 476 394 476 c 259,13,14
 480 476 480 476 525.5 430 c 128,-1,15
 571 384 571 384 571 307 c 259,16,17
 571 183 571 183 485 86 c 0,18,19
 398 -12 398 -12 268 -12 c 259,20,21
 179 -12 179 -12 129.5 33.5 c 128,-1,22
 80 79 80 79 80 161 c 259,23,24
 80 179 80 179 81 189 c 1,25,-1
 174 195 l 1,26,-1
 174 180 l 2,27,28
 174 121 174 121 201 90.5 c 128,-1,29
 228 60 228 60 284 60 c 259,30,31
 364 60 364 60 422 129 c 0,32,33
 479 197 479 197 479 287 c 259,0,1
EndSplineSet
EndChar

StartChar: six
Encoding: 54 54 23
Width: 556
VWidth: 2048
Flags: W
HStem: -12 72<229.143 372.028> 394 72<294.938 435.789> 658 72<352.553 492.864>
VStem: 93 90<107.175 282.429> 475 91<182.66 353.498> 526 89<549 621.776>
LayerCount: 3
Fore
SplineSet
489 87 m 0xf8
 438 25 366 -12 284 -12 c 3
 156 -12 93 60 93 199 c 3
 93 324 128 450 185 557 c 0
 247 672 334 730 449 730 c 3
 560 730 615 674 615 567 c 3
 615 560 615 555 615 549 c 1
 526 543 l 1xf4
 525 617 494 658 428 658 c 3
 361 658 303 614 260 534 c 0
 237 491 218 437 205 374 c 1
 260 439 324 466 398 466 c 3
 505 466 566 396 566 296 c 3
 566 213 531 138 489 87 c 0xf8
366 394 m 3
 312 394 265 368 233 329 c 0
 203 293 183 238 183 187 c 3
 183 113 225 60 298 60 c 3
 349 60 393 87 425 130 c 0
 453 167 475 220 475 281 c 3xf8
 475 366 417 394 366 394 c 3
EndSplineSet
Layer: 2
SplineSet
489 87 m 0,0,1
 408 -12 408 -12 284 -12 c 259,2,3
 190 -12 190 -12 141.5 40 c 128,-1,4
 93 92 93 92 93 199 c 259,5,6
 93 384 93 384 185 557 c 0,7,8
 278 730 278 730 449 730 c 259,9,10
 615 730 615 730 615 567 c 2,11,-1
 615 549 l 1,12,-1
 526 543 l 1,13,14
 524 658 524 658 428 658 c 259,15,16
 327 658 327 658 260 534 c 0,17,18
 224 467 224 467 205 374 c 1,19,20
 283 466 283 466 398 466 c 259,21,22
 477 466 477 466 521.5 419.5 c 128,-1,23
 566 373 566 373 566 296 c 259,24,25
 566 180 566 180 489 87 c 0,0,1
366 394 m 259,26,27
 286 394 286 394 233 329 c 0,28,29
 183 269 183 269 183 187 c 259,30,31
 183 130 183 130 213.5 95 c 128,-1,32
 244 60 244 60 298 60 c 259,33,34
 373 60 373 60 425 130 c 0,35,36
 475 196 475 196 475 281 c 259,37,38
 475 340 475 340 442.5 367 c 128,-1,39
 410 394 410 394 366 394 c 259,26,27
EndSplineSet
EndChar

StartChar: seven
Encoding: 55 55 24
Width: 556
VWidth: 2048
Flags: W
HStem: 0 21G<147 274.5> 644 72<200 536>
VStem: 147 91<0 91>
LayerCount: 3
Fore
SplineSet
147 0 m 1
 205 240 385 509 536 644 c 1
 185 644 l 1
 200 716 l 1
 662 716 l 1
 650 661 l 1
 498 528 311 265 238 0 c 1
 147 0 l 1
EndSplineSet
Layer: 2
SplineSet
147 0 m 1,0,1
 189 172 189 172 302.5 354.5 c 128,-1,2
 416 537 416 537 536 644 c 1,3,-1
 185 644 l 1,4,-1
 200 716 l 1,5,-1
 662 716 l 1,6,-1
 650 661 l 1,7,8
 526 553 526 553 408 370.5 c 128,-1,9
 290 188 290 188 238 0 c 1,10,-1
 147 0 l 1,0,1
EndSplineSet
EndChar

StartChar: eight
Encoding: 56 56 25
Width: 556
VWidth: 2048
Flags: W
HStem: -12 72<216.306 372.27> 356 72<303.422 424.619> 658 72<340.287 479.904>
VStem: 80 91<105.069 254.474> 181 91<457.222 588.795> 471 91<160.918 311.192> 511 91<495.708 628.478>
LayerCount: 3
Fore
SplineSet
273 -12 m 3xfc
 154 -12 80 56 80 159 c 3
 80 275 152 367 260 393 c 1
 208 415 181 452 181 504 c 3
 181 628 295 730 431 730 c 3
 541 730 602 669 602 583 c 3xfa
 602 493 551 425 463 393 c 1
 530 370 562 324 562 259 c 3
 562 113 432 -12 273 -12 c 3xfc
416 658 m 3
 341 658 272 597 272 517 c 3
 272 463 308 428 368 428 c 3
 445 428 511 492 511 569 c 3
 511 625 471 658 416 658 c 3
350 356 m 3
 258 356 171 269 171 173 c 3
 171 100 225 60 290 60 c 3
 390 60 471 145 471 242 c 3xfc
 471 311 422 356 350 356 c 3
EndSplineSet
Layer: 2
SplineSet
273 -12 m 259,0,1
 184 -12 184 -12 132 34.5 c 128,-1,2
 80 81 80 81 80 159 c 259,3,4
 80 246 80 246 129.5 309.5 c 128,-1,5
 179 373 179 373 260 393 c 1,6,7
 181 426 181 426 181 504 c 259,8,9
 181 597 181 597 255 663.5 c 128,-1,10
 329 730 329 730 431 730 c 259,11,12
 512 730 512 730 557 689.5 c 128,-1,13
 602 649 602 649 602 583 c 259,14,15
 602 516 602 516 565.5 466.5 c 128,-1,16
 529 417 529 417 463 393 c 1,17,18
 562 359 562 359 562 259 c 259,19,20
 562 149 562 149 477 68.5 c 128,-1,21
 392 -12 392 -12 273 -12 c 259,0,1
416 658 m 259,22,23
 359 658 359 658 315.5 617 c 128,-1,24
 272 576 272 576 272 517 c 259,25,26
 272 476 272 476 297.5 452 c 128,-1,27
 323 428 323 428 368 428 c 259,28,29
 426 428 426 428 468.5 469.5 c 128,-1,30
 511 511 511 511 511 569 c 259,31,32
 511 610 511 610 484.5 634 c 128,-1,33
 458 658 458 658 416 658 c 259,22,23
350 356 m 259,34,35
 281 356 281 356 226 300.5 c 128,-1,36
 171 245 171 245 171 173 c 259,37,38
 171 120 171 120 205 90 c 128,-1,39
 239 60 239 60 290 60 c 259,40,41
 364 60 364 60 417.5 114.5 c 128,-1,42
 471 169 471 169 471 242 c 259,43,44
 471 294 471 294 437.5 325 c 128,-1,45
 404 356 404 356 350 356 c 259,34,35
EndSplineSet
EndChar

StartChar: nine
Encoding: 57 57 26
Width: 556
VWidth: 2048
Flags: W
HStem: -12 72<206.691 346.238> 250 72<274.121 406.874> 658 72<340.646 482.241>
VStem: 90 86<91.4242 168.625> 138 90<369.266 533.753> 524 86<437.337 613.754>
LayerCount: 3
Fore
SplineSet
307 250 m 3xf4
 202 250 138 321 138 425 c 3xec
 138 505 163.002535998 573.836675175 218 636 c 0
 268.239852056 692.78582275 338 730 422 730 c 3
 538 730 610 671 610 524 c 3
 610 482 604 433 592 377 c 0
 538 121 425 -12 253 -12 c 3
 149 -12 90 46 90 145 c 3
 90 153 90 161 91 169 c 1
 176 176 l 1
 176 169 l 2
 176 98 207 60 271 60 c 3
 375 60 459 169 486 295 c 2
 496 342 l 1
 443 279 381 250 307 250 c 3xf4
344 322 m 3
 396 322 440 348 472 388 c 0
 502 426 524 475 524 536 c 3
 524 605 488 658 417 658 c 3
 367 658 319 631 284 589 c 0
 253 552 228 496 228 442 c 3
 228 366 279 322 344 322 c 3
EndSplineSet
Layer: 2
SplineSet
307 250 m 259,0,1
 229 250 229 250 183.5 298 c 128,-1,2
 138 346 138 346 138 425 c 259,3,4
 138 546 138 546 218 636 c 0,5,6
 301 730 301 730 422 730 c 259,7,8
 610 730 610 730 610 524 c 259,9,10
 610 461 610 461 592 377 c 0,11,12
 550 176 550 176 463.5 82 c 128,-1,13
 377 -12 377 -12 253 -12 c 259,14,15
 175 -12 175 -12 132.5 29.5 c 128,-1,16
 90 71 90 71 90 145 c 259,17,18
 90 161 90 161 91 169 c 1,19,-1
 176 176 l 1,20,-1
 176 169 l 2,21,22
 176 60 176 60 271 60 c 259,23,24
 346 60 346 60 405.5 128 c 128,-1,25
 465 196 465 196 486 295 c 2,26,-1
 496 342 l 1,27,28
 419 250 419 250 307 250 c 259,0,1
344 322 m 259,29,30
 419 322 419 322 472 388 c 0,31,32
 524 454 524 454 524 536 c 259,33,34
 524 590 524 590 496 624 c 128,-1,35
 468 658 468 658 417 658 c 259,36,37
 342 658 342 658 284 589 c 0,38,39
 228 522 228 522 228 442 c 259,40,41
 228 387 228 387 261 354.5 c 128,-1,42
 294 322 294 322 344 322 c 259,29,30
EndSplineSet
EndChar

StartChar: colon
Encoding: 58 58 27
Width: 277
VWidth: 2048
Flags: W
HStem: 0 100<111 192> 418 100<200 281>
VStem: 90 102<0 102> 111 102<-2 100> 179 102<418 520> 200 102<416 518>
DStem2: 90 0 192 0 0.207912 0.978148<21.207 102.181 448.577 529.551>
LayerCount: 3
Fore
SplineSet
179 418 m 1xc8
 200 518 l 1
 302 518 l 1xc4
 281 418 l 1
 179 418 l 1xc8
90 0 m 1xe0
 111 100 l 1
 213 100 l 1xd0
 192 0 l 1
 90 0 l 1xe0
EndSplineSet
Validated: 1
Layer: 2
SplineSet
179 418 m 1,0,-1
 200 518 l 1,1,-1
 302 518 l 1,2,-1
 281 418 l 1,3,-1
 179 418 l 1,0,-1
90 0 m 1,4,-1
 111 100 l 1,5,-1
 213 100 l 1,6,-1
 192 0 l 1,7,-1
 90 0 l 1,4,-1
EndSplineSet
EndChar

StartChar: semicolon
Encoding: 59 59 28
Width: 277
VWidth: 2048
Flags: W
HStem: 418 100<199 279>
VStem: 110 101<-1 100> 178 101<418 519> 199 101<417 518>
DStem2: 59.0295 -141 160.03 -141 0.207912 0.978148<155.068 246.331 592.519 673.701>
LayerCount: 3
Fore
SplineSet
178 418 m 1xa0
 199 518 l 1
 300 518 l 1x90
 279 418 l 1
 178 418 l 1xa0
89 0 m 1
 110 100 l 1
 211 100 l 1xc0
 190 0 l 2
 175 -71 137 -118 77 -141 c 1
 61 -104 l 1
 99 -89 125 -54 138 0 c 1
 89 0 l 1
EndSplineSet
Validated: 1
Layer: 2
SplineSet
178 418 m 1,0,-1
 199 518 l 1,1,-1
 300 518 l 1,2,-1
 279 418 l 1,3,-1
 178 418 l 1,0,-1
89 0 m 1,4,-1
 110 100 l 1,5,-1
 211 100 l 1,6,-1
 190 0 l 2,7,8
 168 -106 168 -106 77 -141 c 1,9,-1
 61 -104 l 1,10,11
 118 -81 118 -81 138 0 c 1,12,-1
 89 0 l 1,4,-1
EndSplineSet
EndChar

StartChar: less
Encoding: 60 60 29
Width: 583
VWidth: 2048
Flags: W
HStem: 576 20G<604.557 651.632>
DStem2: 228 354 122 313 0.904294 -0.426911<0 376.771> 139 395 228 354 0.932038 0.362359<68.0947 505.464>
LayerCount: 3
Fore
SplineSet
122 313 m 1
 139 395 l 1
 656 596 l 1
 637 509 l 1
 228 354 l 1
 571 198 l 1
 552 110 l 1
 122 313 l 1
EndSplineSet
Validated: 1
Layer: 2
SplineSet
122 313 m 1,0,-1
 139 395 l 1,1,-1
 656 596 l 1,2,-1
 637 509 l 1,3,-1
 228 354 l 1,4,-1
 571 198 l 1,5,-1
 552 110 l 1,6,-1
 122 313 l 1,0,-1
EndSplineSet
EndChar

StartChar: equal
Encoding: 61 61 30
Width: 583
VWidth: 2048
Flags: W
HStem: 215 72<116 575> 431 72<162 621>
LayerCount: 3
Fore
SplineSet
621 431 m 1
 147 431 l 1
 162 503 l 1
 636 503 l 1
 621 431 l 1
575 215 m 1
 101 215 l 1
 116 287 l 1
 590 287 l 1
 575 215 l 1
EndSplineSet
Validated: 1
Layer: 2
SplineSet
621 431 m 1,0,-1
 147 431 l 1,1,-1
 162 503 l 1,2,-1
 636 503 l 1,3,-1
 621 431 l 1,0,-1
575 215 m 1,4,-1
 101 215 l 1,5,-1
 116 287 l 1,6,-1
 590 287 l 1,7,-1
 575 215 l 1,4,-1
EndSplineSet
EndChar

StartChar: greater
Encoding: 62 62 31
Width: 583
VWidth: 2048
Flags: W
HStem: 576 20G<177.632 224.886>
DStem2: 97 198 78 110 0.931057 0.364874<0 437.723> 182 596 163 509 0.906291 -0.422655<19.5515 395.921>
LayerCount: 3
Fore
SplineSet
596 313 m 1
 78 110 l 1
 97 198 l 1
 506 354 l 1
 163 509 l 1
 182 596 l 1
 613 395 l 1
 596 313 l 1
EndSplineSet
Validated: 1
Layer: 2
SplineSet
596 313 m 1,0,-1
 78 110 l 1,1,-1
 97 198 l 1,2,-1
 506 354 l 1,3,-1
 163 509 l 1,4,-1
 182 596 l 1,5,-1
 613 395 l 1,6,-1
 596 313 l 1,0,-1
EndSplineSet
EndChar

StartChar: question
Encoding: 63 63 32
Width: 556
VWidth: 2048
Flags: W
HStem: 0 100<246 325> 656 72<334.61 490.06>
VStem: 225 100<0 100> 246 100<0 100> 531 92<488.756 616.069>
DStem2: 225 0 325 0 0.207912 0.978148<20.7912 102.181 199.39 307.904>
LayerCount: 3
Fore
SplineSet
531 555 m 3xc8
 531 617 482 656 416 656 c 3
 337 656 279 609 243 510 c 1
 155 521 l 1
 201 659 293 728 431 728 c 3
 542 728 623 676 623 577 c 3
 623 496 591 456 469 355 c 0
 413 308 378 271 356 176 c 1
 267 176 l 1
 273 202 l 2
 291 286 320 324 408 392 c 0
 501 463 531 500 531 555 c 3xc8
225 0 m 1xe8
 246 100 l 1
 346 100 l 1xd8
 325 0 l 1
 225 0 l 1xe8
EndSplineSet
Layer: 2
SplineSet
531 555 m 259,0,1
 531 601 531 601 498.5 628.5 c 128,-1,2
 466 656 466 656 416 656 c 259,3,4
 296 656 296 656 243 510 c 1,5,-1
 155 521 l 1,6,7
 224 728 224 728 431 728 c 259,8,9
 517 728 517 728 570 688.5 c 128,-1,10
 623 649 623 649 623 577 c 259,11,12
 623 518 623 518 593 475.5 c 128,-1,13
 563 433 563 433 469 355 c 0,14,15
 421 315 421 315 396 278.5 c 128,-1,16
 371 242 371 242 356 176 c 1,17,-1
 267 176 l 1,18,-1
 273 202 l 2,19,20
 286 264 286 264 313.5 302 c 128,-1,21
 341 340 341 340 408 392 c 0,22,23
 479 446 479 446 505 480 c 128,-1,24
 531 514 531 514 531 555 c 259,0,1
225 0 m 1,25,-1
 246 100 l 1,26,-1
 346 100 l 1,27,-1
 325 0 l 1,28,-1
 225 0 l 1,25,-1
EndSplineSet
EndChar

StartChar: at
Encoding: 64 64 33
Width: 1014
VWidth: 2048
Flags: W
HStem: -210 72<361.949 672.046> -2 72<397.099 499.773 646.297 765.704> 458 72<525.255 657.383> 498 20G<760.282 856> 658 72<535.029 805.271>
VStem: 90 77<29.72 265.435> 280 91<97.8857 267.861> 965 74<300.853 515.88>
LayerCount: 3
Fore
SplineSet
981 9 m 1xdf
 890 -128 696 -210 504 -210 c 3
 228 -210 90 -82 90 118 c 3
 90 274 165 435 258 537 c 0
 366 656 518 730 693 730 c 3
 903 730 1039 615 1039 434 c 3
 1039 318 994 219 918 134 c 0
 840 46 752 -2 662 -2 c 3
 609 -2 582 18 582 59 c 3
 582 65 583 73 584 80 c 1
 527 26 471 -2 417 -2 c 3
 329 -2 280 62 280 154 c 3
 280 250 329 343 388 410 c 0
 458 489 535 530 607 530 c 3xef
 669 530 712 500 735 440 c 1
 769 518 l 1
 856 518 l 1
 714 189 l 2
 690 135 683 111 683 99 c 3
 683 83 691 70 709 70 c 3
 758 70 817 109 878 187 c 0
 932 257 965 334 965 418 c 3
 965 566 851 658 675 658 c 3
 532 658 404 596 313 498 c 0
 230 410 167 278 167 142 c 3
 167 -36 294 -138 518 -138 c 3
 679 -138 804 -89 894 9 c 1
 981 9 l 1xdf
685 360 m 3
 685 420 653 458 597 458 c 3
 540 458 483 415 441 356 c 0
 404 304 371 235 371 169 c 3
 371 111 400 70 450 70 c 3
 511 70 567 106 613 171 c 0
 650 223 685 294 685 360 c 3
EndSplineSet
Layer: 2
SplineSet
981 9 m 1,0,1
 914 -92 914 -92 782.5 -151 c 128,-1,2
 651 -210 651 -210 504 -210 c 259,3,4
 301 -210 301 -210 195.5 -122.5 c 128,-1,5
 90 -35 90 -35 90 118 c 259,6,7
 90 230 90 230 137.5 343.5 c 128,-1,8
 185 457 185 457 258 537 c 0,9,10
 341 628 341 628 452.5 679 c 128,-1,11
 564 730 564 730 693 730 c 259,12,13
 851 730 851 730 945 650 c 128,-1,14
 1039 570 1039 570 1039 434 c 259,15,16
 1039 269 1039 269 918 134 c 0,17,18
 797 -2 797 -2 662 -2 c 259,19,20
 582 -2 582 -2 582 59 c 259,21,22
 582 66 582 66 584 80 c 1,23,24
 497 -2 497 -2 417 -2 c 259,25,26
 352 -2 352 -2 316 40.5 c 128,-1,27
 280 83 280 83 280 154 c 259,28,29
 280 287 280 287 388 410 c 0,30,31
 494 530 494 530 607 530 c 259,32,33
 700 530 700 530 735 440 c 1,34,-1
 769 518 l 1,35,-1
 856 518 l 1,36,-1
 714 189 l 2,37,38
 683 119 683 119 683 99 c 259,39,40
 683 70 683 70 709 70 c 259,41,42
 786 70 786 70 878 187 c 0,43,44
 965 300 965 300 965 418 c 259,45,46
 965 529 965 529 886.5 593.5 c 128,-1,47
 808 658 808 658 675 658 c 259,48,49
 570 658 570 658 476.5 615.5 c 128,-1,50
 383 573 383 573 313 498 c 0,51,52
 248 429 248 429 207.5 334.5 c 128,-1,53
 167 240 167 240 167 142 c 259,54,55
 167 8 167 8 258.5 -65 c 128,-1,56
 350 -138 350 -138 518 -138 c 259,57,58
 644 -138 644 -138 737 -99.5 c 128,-1,59
 830 -61 830 -61 894 9 c 1,60,-1
 981 9 l 1,0,1
685 360 m 259,61,62
 685 405 685 405 662 431.5 c 128,-1,63
 639 458 639 458 597 458 c 259,64,65
 514 458 514 458 441 356 c 0,66,67
 371 258 371 258 371 169 c 259,68,69
 371 125 371 125 392 97.5 c 128,-1,70
 413 70 413 70 450 70 c 259,71,72
 542 70 542 70 613 171 c 0,73,74
 685 272 685 272 685 360 c 259,61,62
EndSplineSet
EndChar

StartChar: A
Encoding: 65 65 34
Width: 666
VWidth: 2048
Flags: W
HStem: 0 21G<-2 111.869 562.542 668> 214 84<277 515> 696 20G<426.682 534.827>
VStem: -2 102<0 102> 566 102<0 102>
DStem2: -2 0 100 0 0.524429 0.851454<53.4918 302.305 400.049 400.049 639.429 790.546> 531 716 481 504 0.187931 -0.982182<62.2268 407.545>
LayerCount: 3
Fore
SplineSet
439 716 m 1
 531 716 l 1
 668 0 l 1
 566 0 l 1
 529 214 l 1
 227 214 l 1
 100 0 l 1
 -2 0 l 1
 439 716 l 1
277 298 m 1
 515 298 l 1
 481 504 l 2
 475 545 469 587 469 627 c 2
 469 641 l 1
 451 596 426 550 399 504 c 2
 277 298 l 1
EndSplineSet
Validated: 1
Layer: 2
SplineSet
439 716 m 1,0,-1
 531 716 l 1,1,-1
 668 0 l 1,2,-1
 566 0 l 1,3,-1
 529 214 l 1,4,-1
 227 214 l 1,5,-1
 100 0 l 1,6,-1
 -2 0 l 1,7,-1
 439 716 l 1,0,-1
277 298 m 1,8,-1
 515 298 l 1,9,-1
 481 504 l 2,10,11
 469 586 469 586 469 627 c 2,12,-1
 469 641 l 1,13,14
 447 585 447 585 399 504 c 2,15,-1
 277 298 l 1,8,-1
EndSplineSet
EndChar

StartChar: B
Encoding: 66 66 35
Width: 666
VWidth: 2048
Flags: W
HStem: 0 84<187 480.213> 331 84<257 522.877> 632 84<303 571.941>
VStem: 565 96<159.098 295.881> 600 98<484.755 606.267>
DStem2: 74 0 169.145 0 0.207912 0.978148<105.658 358.072 443.979 665.801>
LayerCount: 3
Fore
SplineSet
494 716 m 2xf0
 639 716 698 654 698 573 c 3xe8
 698 482 642 417 559 382 c 1
 628 359 661 318 661 255 c 3
 661 92 534 0 346 0 c 2
 74 0 l 1
 226 716 l 1
 494 716 l 2xf0
411 415 m 2
 538 415 600 462 600 555 c 3
 600 617 548 632 445 632 c 2
 303 632 l 1
 257 415 l 1
 411 415 l 2
565 240 m 3xf0
 565 302 516 331 404 331 c 2
 239 331 l 1
 187 84 l 1
 364 84 l 2
 502 84 565 148 565 240 c 3xf0
EndSplineSet
Layer: 2
SplineSet
494 716 m 2,0,1
 598 716 598 716 648 677 c 128,-1,2
 698 638 698 638 698 573 c 259,3,4
 698 507 698 507 661 458 c 128,-1,5
 624 409 624 409 559 382 c 1,6,7
 661 348 661 348 661 255 c 259,8,9
 661 135 661 135 575 67.5 c 128,-1,10
 489 0 489 0 346 0 c 2,11,-1
 74 0 l 1,12,-1
 226 716 l 1,13,-1
 494 716 l 2,0,1
411 415 m 2,14,15
 510 415 510 415 555 451 c 128,-1,16
 600 487 600 487 600 555 c 259,17,18
 600 599 600 599 563.5 615.5 c 128,-1,19
 527 632 527 632 445 632 c 2,20,-1
 303 632 l 1,21,-1
 257 415 l 1,22,-1
 411 415 l 2,14,15
565 240 m 259,23,24
 565 287 565 287 526.5 309 c 128,-1,25
 488 331 488 331 404 331 c 2,26,-1
 239 331 l 1,27,-1
 187 84 l 1,28,-1
 364 84 l 2,29,30
 464 84 464 84 514.5 126 c 128,-1,31
 565 168 565 168 565 240 c 259,23,24
EndSplineSet
EndChar

StartChar: C
Encoding: 67 67 36
Width: 721
VWidth: 2048
Flags: W
HStem: -12 84<297.824 499.653> 646 84<409.22 614.53>
VStem: 116 97<157.579 400.599> 684 98<519.429 569.889>
LayerCount: 3
Fore
SplineSet
213 262 m 3
 213 146 268 72 394 72 c 3
 507 72 590 130 642 251 c 1
 732 227 l 1
 656 67 540 -12 383 -12 c 3
 206 -12 116 85 116 247 c 3
 116 386 166 505 230 584 c 0
 313 686 413 730 543 730 c 3
 691 730 771 660 782 521 c 1
 684 499 l 1
 673 599 618 646 523 646 c 3
 423 646 349 607 293 529 c 0
 245 461 213 369 213 262 c 3
EndSplineSet
Layer: 2
SplineSet
213 262 m 259,0,1
 213 172 213 172 257.5 122 c 128,-1,2
 302 72 302 72 394 72 c 259,3,4
 565 72 565 72 642 251 c 1,5,-1
 732 227 l 1,6,7
 618 -12 618 -12 383 -12 c 259,8,9
 252 -12 252 -12 184 56 c 128,-1,10
 116 124 116 124 116 247 c 259,11,12
 116 443 116 443 230 584 c 0,13,14
 349 730 349 730 543 730 c 259,15,16
 765 730 765 730 782 521 c 1,17,-1
 684 499 l 1,18,19
 668 646 668 646 523 646 c 259,20,21
 377 646 377 646 293 529 c 0,22,23
 213 416 213 416 213 262 c 259,0,1
EndSplineSet
EndChar

StartChar: D
Encoding: 68 68 37
Width: 721
VWidth: 2048
Flags: W
HStem: 0 84<190 461.422> 632 84<306 582.029>
VStem: 663 97<317.285 557.266>
DStem2: 77 0 172.145 0 0.207912 0.978148<105.658 665.801>
LayerCount: 3
Fore
SplineSet
77 0 m 1
 229 716 l 1
 475 716 l 2
 674 716 760 637 760 485 c 3
 760 353 725 237 651 144 c 0
 576 50 476 0 336 0 c 2
 77 0 l 1
190 84 m 1
 343 84 l 2
 452 84 526 125 579 192 c 0
 637 265 663 365 663 466 c 3
 663 578 603 632 456 632 c 2
 306 632 l 1
 190 84 l 1
EndSplineSet
Layer: 2
SplineSet
77 0 m 1,0,-1
 229 716 l 1,1,-1
 475 716 l 2,2,3
 622 716 622 716 691 658.5 c 128,-1,4
 760 601 760 601 760 485 c 259,5,6
 760 281 760 281 651 144 c 0,7,8
 536 0 536 0 336 0 c 2,9,-1
 77 0 l 1,0,-1
190 84 m 1,10,-1
 343 84 l 2,11,12
 494 84 494 84 579 192 c 0,13,14
 663 298 663 298 663 466 c 259,15,16
 663 551 663 551 614 591.5 c 128,-1,17
 565 632 565 632 456 632 c 2,18,-1
 306 632 l 1,19,-1
 190 84 l 1,10,-1
EndSplineSet
EndChar

StartChar: E
Encoding: 69 69 38
Width: 666
VWidth: 2048
Flags: W
HStem: 0 84<193 613> 328 84<263 640> 632 84<309 732>
DStem2: 80 0 175.145 0 0.207912 0.978148<105.658 355.138 441.045 665.801>
LayerCount: 3
Fore
SplineSet
80 0 m 1
 232 716 l 1
 750 716 l 1
 732 632 l 1
 309 632 l 1
 263 412 l 1
 658 412 l 1
 640 328 l 1
 245 328 l 1
 193 84 l 1
 631 84 l 1
 613 0 l 1
 80 0 l 1
EndSplineSet
Validated: 1
Layer: 2
SplineSet
80 0 m 1,0,-1
 232 716 l 1,1,-1
 750 716 l 1,2,-1
 732 632 l 1,3,-1
 309 632 l 1,4,-1
 263 412 l 1,5,-1
 658 412 l 1,6,-1
 640 328 l 1,7,-1
 245 328 l 1,8,-1
 193 84 l 1,9,-1
 631 84 l 1,10,-1
 613 0 l 1,11,-1
 80 0 l 1,0,-1
EndSplineSet
EndChar

StartChar: F
Encoding: 70 70 39
Width: 610
VWidth: 2048
Flags: W
HStem: 0 21G<83 182.281> 327 84<265 582> 632 84<312 700>
VStem: 83 95<0 95>
DStem2: 83 0 178 0 0.207912 0.978148<19.7516 354.16 439.859 665.801>
LayerCount: 3
Fore
SplineSet
83 0 m 1
 235 716 l 1
 718 716 l 1
 700 632 l 1
 312 632 l 1
 265 411 l 1
 599 411 l 1
 582 327 l 1
 248 327 l 1
 178 0 l 1
 83 0 l 1
EndSplineSet
Layer: 2
SplineSet
83 0 m 1,0,-1
 235 716 l 1,1,-1
 718 716 l 1,2,-1
 700 632 l 1,3,-1
 312 632 l 1,4,-1
 265 411 l 1,5,-1
 599 411 l 1,6,-1
 582 327 l 1,7,-1
 248 327 l 1,8,-1
 178 0 l 1,9,-1
 83 0 l 1,0,-1
EndSplineSet
EndChar

StartChar: G
Encoding: 71 71 40
Width: 777
VWidth: 2048
Flags: W
HStem: -12 84<318.065 554.126> 281 84<490 681> 646 84<424.078 649.878>
VStem: 120 97<170.729 405.901> 724 91<516 572.059>
DStem2: 618.204 -12 713.194 -12 0.207912 0.978148<140.474 299.653>
LayerCount: 3
Fore
SplineSet
217 271 m 3
 217 145 289 72 429 72 c 3
 512 72 587 98 652 147 c 1
 681 281 l 1
 472 281 l 1
 490 365 l 1
 794 365 l 1
 737 100 l 1
 627 25 520 -12 415 -12 c 3
 228 -12 120 84 120 253 c 3
 120 393 170 506 240 587 c 0
 323 683 439 730 567 730 c 3
 728 730 811 659 815 516 c 1
 724 493 l 1
 717 597 658 646 549 646 c 3
 446 646 360 610 301 532 c 0
 252 467 217 374 217 271 c 3
EndSplineSet
Layer: 2
SplineSet
217 271 m 259,0,1
 217 175 217 175 271 123.5 c 128,-1,2
 325 72 325 72 429 72 c 259,3,4
 553 72 553 72 652 147 c 1,5,-1
 681 281 l 1,6,-1
 472 281 l 1,7,-1
 490 365 l 1,8,-1
 794 365 l 1,9,-1
 737 100 l 1,10,11
 573 -12 573 -12 415 -12 c 259,12,13
 275 -12 275 -12 197.5 57 c 128,-1,14
 120 126 120 126 120 253 c 259,15,16
 120 448 120 448 240 587 c 0,17,18
 364 730 364 730 567 730 c 259,19,20
 809 730 809 730 815 516 c 1,21,-1
 724 493 l 1,22,23
 714 646 714 646 549 646 c 259,24,25
 387 646 387 646 301 532 c 0,26,27
 217 421 217 421 217 271 c 259,0,1
EndSplineSet
EndChar

StartChar: H
Encoding: 72 72 41
Width: 721
VWidth: 2048
Flags: W
HStem: 0 21G<80 179.26 547 646.246> 338 84<265 619> 696 20G<227.754 327 694.782 794>
VStem: 80 95<0 95> 232 95<621 716> 547 95<0 95> 699 95<621 716>
DStem2: 80 0 175 0 0.207912 0.978148<19.7516 365.335 451.242 731.956> 547 0 642 0 0.207912 0.978148<19.7516 345.584 431.49 731.956>
LayerCount: 3
Fore
SplineSet
80 0 m 1
 232 716 l 1
 327 716 l 1
 265 422 l 1
 637 422 l 1
 699 716 l 1
 794 716 l 1
 642 0 l 1
 547 0 l 1
 619 338 l 1
 247 338 l 1
 175 0 l 1
 80 0 l 1
EndSplineSet
Validated: 1
Layer: 2
SplineSet
80 0 m 1,0,-1
 232 716 l 1,1,-1
 327 716 l 1,2,-1
 265 422 l 1,3,-1
 637 422 l 1,4,-1
 699 716 l 1,5,-1
 794 716 l 1,6,-1
 642 0 l 1,7,-1
 547 0 l 1,8,-1
 619 338 l 1,9,-1
 247 338 l 1,10,-1
 175 0 l 1,11,-1
 80 0 l 1,0,-1
EndSplineSet
EndChar

StartChar: I
Encoding: 73 73 42
Width: 277
VWidth: 2048
Flags: W
HStem: 0 21G<94 193.246> 696 20G<241.754 341>
VStem: 94 95<0 95> 246 95<621 716>
DStem2: 94 0 189 0 0.207912 0.978148<19.7516 731.956>
LayerCount: 3
Fore
SplineSet
94 0 m 1
 246 716 l 1
 341 716 l 1
 189 0 l 1
 94 0 l 1
EndSplineSet
Validated: 1
Layer: 2
SplineSet
94 0 m 1,0,-1
 246 716 l 1,1,-1
 341 716 l 1,2,-1
 189 0 l 1,3,-1
 94 0 l 1,0,-1
EndSplineSet
EndChar

StartChar: J
Encoding: 74 74 43
Width: 499
VWidth: 2048
Flags: W
HStem: -12 84<174.459 308.719> 696 20G<472.772 572>
VStem: 62 91<94.935 203.792> 477 95<621 716>
DStem2: 322.837 -12 416.986 -12 0.207912 0.978148<125.448 744.144>
LayerCount: 3
Fore
SplineSet
234 72 m 3
 315 72 350 116 373 224 c 2
 477 716 l 1
 572 716 l 1
 468 228 l 2
 434 67 351 -12 216 -12 c 3
 109 -12 62 34 62 124 c 3
 62 148 65 174 71 204 c 1
 158 215 l 1
 155 197 153 180 153 165 c 3
 153 103 180 72 234 72 c 3
EndSplineSet
Layer: 2
SplineSet
234 72 m 259,0,1
 294 72 294 72 324.5 106.5 c 128,-1,2
 355 141 355 141 373 224 c 2,3,-1
 477 716 l 1,4,-1
 572 716 l 1,5,-1
 468 228 l 2,6,7
 441 103 441 103 378 45.5 c 128,-1,8
 315 -12 315 -12 216 -12 c 259,9,10
 62 -12 62 -12 62 124 c 259,11,12
 62 159 62 159 71 204 c 1,13,-1
 158 215 l 1,14,15
 153 185 153 185 153 165 c 259,16,17
 153 72 153 72 234 72 c 259,0,1
EndSplineSet
EndChar

StartChar: K
Encoding: 75 75 44
Width: 666
VWidth: 2048
Flags: W
HStem: 0 21G<74 173.274 531.11 665> 696 20G<221.754 321 651.843 803>
VStem: 74 95<0 95> 226 95<621 716> 676 127<589 716>
DStem2: 74 0 169 0 0.207912 0.978148<19.7516 273.352 387.894 731.956> 246 360 222 248 0.778772 0.627307<0 91.5922 194.042 558.193>
LayerCount: 3
Fore
SplineSet
74 0 m 1
 226 716 l 1
 321 716 l 1
 246 360 l 1
 676 716 l 1
 803 716 l 1
 442 426 l 1
 665 0 l 1
 541 0 l 1
 362 362 l 1
 222 248 l 1
 169 0 l 1
 74 0 l 1
EndSplineSet
Validated: 1
Layer: 2
SplineSet
74 0 m 1,0,-1
 226 716 l 1,1,-1
 321 716 l 1,2,-1
 246 360 l 1,3,-1
 676 716 l 1,4,-1
 803 716 l 1,5,-1
 442 426 l 1,6,-1
 665 0 l 1,7,-1
 541 0 l 1,8,-1
 362 362 l 1,9,-1
 222 248 l 1,10,-1
 169 0 l 1,11,-1
 74 0 l 1,0,-1
EndSplineSet
EndChar

StartChar: L
Encoding: 76 76 45
Width: 556
VWidth: 2048
Flags: W
HStem: 0 84<187 521> 696 20G<221.754 321>
VStem: 226 95<621 716>
DStem2: 74 0 169.145 0 0.207912 0.978148<105.658 731.956>
LayerCount: 3
Fore
SplineSet
74 0 m 1
 226 716 l 1
 321 716 l 1
 187 84 l 1
 539 84 l 1
 521 0 l 1
 74 0 l 1
EndSplineSet
Validated: 1
Layer: 2
SplineSet
74 0 m 1,0,-1
 226 716 l 1,1,-1
 321 716 l 1,2,-1
 187 84 l 1,3,-1
 539 84 l 1,4,-1
 521 0 l 1,5,-1
 74 0 l 1,0,-1
EndSplineSet
EndChar

StartChar: M
Encoding: 77 77 46
Width: 832
VWidth: 2048
Flags: W
HStem: 0 21G<75 174.264 370.554 469.975 662 761.246> 696 20G<222.754 376.286 751.244 909>
VStem: 75 95<0 95> 662 95<0 95>
DStem2: 75 0 170 0 0.207912 0.978148<19.7516 638.352> 374 716 299 605 0.121409 -0.992603<101.073 598.854> 442 121 459 0 0.481084 0.876674<0 592.209> 662 0 757 0 0.207912 0.978148<19.7516 618.6>
LayerCount: 3
Fore
SplineSet
75 0 m 1
 227 716 l 1
 374 716 l 1
 442 121 l 1
 762 716 l 1
 909 716 l 1
 757 0 l 1
 662 0 l 1
 791 605 l 1
 459 0 l 1
 373 0 l 1
 299 605 l 1
 170 0 l 1
 75 0 l 1
EndSplineSet
Validated: 1
Layer: 2
SplineSet
75 0 m 1,0,-1
 227 716 l 1,1,-1
 374 716 l 1,2,-1
 442 121 l 1,3,-1
 762 716 l 1,4,-1
 909 716 l 1,5,-1
 757 0 l 1,6,-1
 662 0 l 1,7,-1
 791 605 l 1,8,-1
 459 0 l 1,9,-1
 373 0 l 1,10,-1
 299 605 l 1,11,-1
 170 0 l 1,12,-1
 75 0 l 1,0,-1
EndSplineSet
EndChar

StartChar: N
Encoding: 78 78 47
Width: 721
VWidth: 2048
Flags: W
HStem: 0 21G<77 176.263 531.19 645.246> 696 20G<224.754 338.877 693.758 793>
VStem: 77 95<0 95> 698 95<621 716>
DStem2: 77 0 172 0 0.207912 0.978148<19.7516 595.398> 330 716 292 563 0.40312 -0.915147<124.699 613.774> 546.054 0 641 0 0.207912 0.978148<158.463 731.945>
LayerCount: 3
Fore
SplineSet
77 0 m 1
 229 716 l 1
 330 716 l 1
 579 155 l 1
 698 716 l 1
 793 716 l 1
 641 0 l 1
 540 0 l 1
 292 563 l 1
 172 0 l 1
 77 0 l 1
EndSplineSet
Validated: 1
Layer: 2
SplineSet
77 0 m 1,0,-1
 229 716 l 1,1,-1
 330 716 l 1,2,-1
 579 155 l 1,3,-1
 698 716 l 1,4,-1
 793 716 l 1,5,-1
 641 0 l 1,6,-1
 540 0 l 1,7,-1
 292 563 l 1,8,-1
 172 0 l 1,9,-1
 77 0 l 1,0,-1
EndSplineSet
EndChar

StartChar: O
Encoding: 79 79 48
Width: 777
VWidth: 2048
Flags: W
HStem: -12 84<308.4 516.731> 646 84<412.295 631.324>
VStem: 113 97<168.725 403.133> 722 96<309.545 556.819>
LayerCount: 3
Fore
SplineSet
545 730 m 3
 729 730 818 622 818 461 c 3
 818 320 767 209 693 127 c 0
 616 42 509 -12 387 -12 c 3
 210 -12 113 101 113 258 c 3
 113 392 166 504 230 582 c 0
 305 674 412 730 545 730 c 3
405 72 m 3
 498 72 571 108 633 184 c 0
 686 249 722 342 722 452 c 3
 722 574 660 646 527 646 c 3
 423 646 344 602 290 525 c 0
 248 465 210 374 210 272 c 3
 210 154 276 72 405 72 c 3
EndSplineSet
Layer: 2
SplineSet
545 730 m 259,0,1
 679 730 679 730 748.5 658 c 128,-1,2
 818 586 818 586 818 461 c 259,3,4
 818 266 818 266 693 127 c 0,5,6
 567 -12 567 -12 387 -12 c 259,7,8
 257 -12 257 -12 185 62.5 c 128,-1,9
 113 137 113 137 113 258 c 259,10,11
 113 439 113 439 230 582 c 0,12,13
 351 730 351 730 545 730 c 259,0,1
405 72 m 259,14,15
 542 72 542 72 633 184 c 0,16,17
 722 293 722 293 722 452 c 259,18,19
 722 545 722 545 673.5 595.5 c 128,-1,20
 625 646 625 646 527 646 c 259,21,22
 375 646 375 646 290 525 c 0,23,24
 210 411 210 411 210 272 c 259,25,26
 210 181 210 181 260.5 126.5 c 128,-1,27
 311 72 311 72 405 72 c 259,14,15
EndSplineSet
EndChar

StartChar: P
Encoding: 80 80 49
Width: 666
VWidth: 2048
Flags: W
HStem: 0 21G<77 176.247> 292 84<252 546.107> 632 84<306 605.572>
VStem: 77 95<0 95> 638 98<461.316 600.261>
DStem2: 77 0 172 0 0.207912 0.978148<19.7516 318.261 404.168 665.801>
LayerCount: 3
Fore
SplineSet
77 0 m 1
 229 716 l 1
 500 716 l 2
 650 716 736 675 736 566 c 3
 736 390 608 292 418 292 c 2
 234 292 l 1
 172 0 l 1
 77 0 l 1
638 545 m 3
 638 614 583 632 490 632 c 2
 306 632 l 1
 252 376 l 1
 437 376 l 2
 559 376 638 435 638 545 c 3
EndSplineSet
Layer: 2
SplineSet
77 0 m 1,0,-1
 229 716 l 1,1,-1
 500 716 l 2,2,3
 617 716 617 716 676.5 680.5 c 128,-1,4
 736 645 736 645 736 566 c 259,5,6
 736 436 736 436 649.5 364 c 128,-1,7
 563 292 563 292 418 292 c 2,8,-1
 234 292 l 1,9,-1
 172 0 l 1,10,-1
 77 0 l 1,0,-1
638 545 m 259,11,12
 638 594 638 594 601.5 613 c 128,-1,13
 565 632 565 632 490 632 c 2,14,-1
 306 632 l 1,15,-1
 252 376 l 1,16,-1
 437 376 l 2,17,18
 530 376 530 376 584 420 c 128,-1,19
 638 464 638 464 638 545 c 259,11,12
EndSplineSet
EndChar

StartChar: Q
Encoding: 81 81 50
Width: 777
VWidth: 2048
Flags: W
HStem: -12 84<298.345 498.649> 646 84<410.604 619.938>
VStem: 108 96<168.33 409.119> 719 98<321.971 548.419>
LayerCount: 3
Fore
SplineSet
227 586 m 0
 304 677 414 730 541 730 c 3
 719 730 817 633 817 468 c 3
 817 393 801 323 771 255 c 0
 740 184 695 124 635 77 c 1
 673 46 710 25 744 11 c 1
 702 -55 l 1
 654 -37 610 -8 566 32 c 1
 508 3 445 -12 380 -12 c 3
 210 -12 108 91 108 257 c 3
 108 387 150 494 227 586 c 0
204 271 m 3
 204 148 272 72 401 72 c 3
 435 72 468 75 500 89 c 1
 475 107 447 121 415 129 c 1
 454 198 l 1
 505 182 543 159 573 129 c 1
 620 166 657 214 683 275 c 0
 705 329 719 386 719 445 c 3
 719 567 652 646 523 646 c 3
 427 646 345 605 288 530 c 0
 236 462 204 371 204 271 c 3
EndSplineSet
Layer: 2
SplineSet
227 586 m 0,0,1
 349 730 349 730 541 730 c 259,2,3
 674 730 674 730 745.5 661 c 128,-1,4
 817 592 817 592 817 468 c 259,5,6
 817 359 817 359 771 255 c 0,7,8
 724 146 724 146 635 77 c 1,9,10
 687 34 687 34 744 11 c 1,11,-1
 702 -55 l 1,12,13
 633 -29 633 -29 566 32 c 1,14,15
 478 -12 478 -12 380 -12 c 259,16,17
 253 -12 253 -12 180.5 60 c 128,-1,18
 108 132 108 132 108 257 c 259,19,20
 108 444 108 444 227 586 c 0,0,1
204 271 m 259,21,22
 204 177 204 177 255 124.5 c 128,-1,23
 306 72 306 72 401 72 c 259,24,25
 461 72 461 72 500 89 c 1,26,27
 460 118 460 118 415 129 c 1,28,-1
 454 198 l 1,29,30
 527 175 527 175 573 129 c 1,31,32
 645 186 645 186 683 275 c 0,33,34
 719 363 719 363 719 445 c 259,35,36
 719 538 719 538 668.5 592 c 128,-1,37
 618 646 618 646 523 646 c 259,38,39
 376 646 376 646 288 530 c 0,40,41
 204 420 204 420 204 271 c 259,21,22
EndSplineSet
EndChar

StartChar: R
Encoding: 82 82 51
Width: 721
VWidth: 2048
Flags: W
HStem: 0 21G<78 177.241 581.834 710> 316 84<258 436.728> 632 84<307 633.101>
VStem: 78 95<0 95> 669 100<470.95 600.171>
DStem2: 78 0 173 0 0.207912 0.978148<19.7516 342.776 428.683 665.801> 627 195 521 169 0.39164 -0.920118<-118.723 164.932>
LayerCount: 3
Fore
SplineSet
78 0 m 1
 230 716 l 1
 547 716 l 2
 694 716 769 683 769 581 c 3
 769 432 674 345 518 325 c 1
 563 305 598 261 627 195 c 2
 710 0 l 1
 590 0 l 1
 521 169 l 2
 475 281 433 316 351 316 c 2
 240 316 l 1
 173 0 l 1
 78 0 l 1
258 400 m 1
 462 400 l 2
 587 400 669 447 669 547 c 3
 669 605 623 632 534 632 c 2
 307 632 l 1
 258 400 l 1
EndSplineSet
Layer: 2
SplineSet
78 0 m 1,0,-1
 230 716 l 1,1,-1
 547 716 l 2,2,3
 661 716 661 716 715 685.5 c 128,-1,4
 769 655 769 655 769 581 c 259,5,6
 769 471 769 471 703 405.5 c 128,-1,7
 637 340 637 340 518 325 c 1,8,9
 582 296 582 296 627 195 c 2,10,-1
 710 0 l 1,11,-1
 590 0 l 1,12,-1
 521 169 l 2,13,14
 487 253 487 253 450 284.5 c 128,-1,15
 413 316 413 316 351 316 c 2,16,-1
 240 316 l 1,17,-1
 173 0 l 1,18,-1
 78 0 l 1,0,-1
258 400 m 1,19,-1
 462 400 l 2,20,21
 559 400 559 400 614 437 c 128,-1,22
 669 474 669 474 669 547 c 259,23,24
 669 587 669 587 637 609.5 c 128,-1,25
 605 632 605 632 534 632 c 2,26,-1
 307 632 l 1,27,-1
 258 400 l 1,19,-1
EndSplineSet
EndChar

StartChar: S
Encoding: 83 83 52
Width: 666
VWidth: 2048
Flags: W
HStem: -12 84<250.309 466.936> 644 84<349.749 563.761>
VStem: 89 96<132.495 230> 181 98<470.673 584.974> 564 100<154.12 268.963> 612 94<513 598.273>
LayerCount: 3
Fore
SplineSet
348 -12 m 3xd8
 184 -12 89 52 89 183 c 3
 89 198 91 214 93 230 c 1
 186 238 l 1
 185 230 185 222 185 215 c 3
 185 119 243 72 361 72 c 3
 468 72 564 126 564 220 c 3xe8
 564 270 534 290 375 331 c 0
 248 364 181 410 181 493 c 3
 181 626 300 728 478 728 c 3
 618 728 706 671 706 557 c 3
 706 543 705 529 702 513 c 1
 611 507 l 1
 612 515 612 523 612 530 c 3xd4
 612 606 563 644 465 644 c 3
 353 644 279 602 279 517 c 3
 279 465 330 447 424 423 c 0
 600 378 664 338 664 253 c 3
 664 88 510 -12 348 -12 c 3xd8
EndSplineSet
Layer: 2
SplineSet
348 -12 m 259,0,1
 223 -12 223 -12 156 37 c 128,-1,2
 89 86 89 86 89 183 c 259,3,4
 89 198 89 198 93 230 c 1,5,-1
 186 238 l 1,6,7
 185 230 185 230 185 215 c 259,8,9
 185 146 185 146 227 109 c 128,-1,10
 269 72 269 72 361 72 c 259,11,12
 445 72 445 72 504.5 112 c 128,-1,13
 564 152 564 152 564 220 c 259,14,15
 564 258 564 258 528.5 279.5 c 128,-1,16
 493 301 493 301 375 331 c 0,17,18
 276 357 276 357 228.5 395 c 128,-1,19
 181 433 181 433 181 493 c 259,20,21
 181 594 181 594 263.5 661 c 128,-1,22
 346 728 346 728 478 728 c 259,23,24
 585 728 585 728 645.5 684.5 c 128,-1,25
 706 641 706 641 706 557 c 259,26,27
 706 534 706 534 702 513 c 1,28,-1
 611 507 l 1,29,30
 612 515 612 515 612 530 c 259,31,32
 612 584 612 584 577 614 c 128,-1,33
 542 644 542 644 465 644 c 259,34,35
 379 644 379 644 329 611.5 c 128,-1,36
 279 579 279 579 279 517 c 259,37,38
 279 481 279 481 312 462 c 128,-1,39
 345 443 345 443 424 423 c 0,40,41
 558 389 558 389 611 352.5 c 128,-1,42
 664 316 664 316 664 253 c 259,43,44
 664 134 664 134 570 61 c 128,-1,45
 476 -12 476 -12 348 -12 c 259,0,1
EndSplineSet
EndChar

StartChar: T
Encoding: 84 84 53
Width: 610
VWidth: 2048
Flags: W
HStem: 0 21G<259 358.241> 632 84<175 393 488 726>
VStem: 259 95<0 95>
DStem2: 259 0 354 0 0.207912 0.978148<19.7516 646.049>
LayerCount: 3
Fore
SplineSet
259 0 m 1
 393 632 l 1
 157 632 l 1
 175 716 l 1
 744 716 l 1
 726 632 l 1
 488 632 l 1
 354 0 l 1
 259 0 l 1
EndSplineSet
Validated: 1
Layer: 2
SplineSet
259 0 m 1,0,-1
 393 632 l 1,1,-1
 157 632 l 1,2,-1
 175 716 l 1,3,-1
 744 716 l 1,4,-1
 726 632 l 1,5,-1
 488 632 l 1,6,-1
 354 0 l 1,7,-1
 259 0 l 1,0,-1
EndSplineSet
EndChar

StartChar: U
Encoding: 85 85 54
Width: 721
VWidth: 2048
Flags: W
HStem: -12 84<276.212 483.931> 696 20G<225.749 325 694.738 794>
VStem: 127 98<121.073 331.578> 230 95<621 716> 699 95<621 716>
DStem2: 75.2572 -12 170.045 -12 0.207912 0.978148<243.746 744.264> 544.045 -12 639.257 -12 0.207912 0.978148<177.943 744.308>
LayerCount: 3
Fore
SplineSet
369 72 m 3
 521 72 577 144 611 303 c 2
 699 716 l 1
 794 716 l 1
 706 302 l 2
 660 85 555 -12 359 -12 c 3
 197 -12 127 48 127 179 c 3
 127 215 132 256 142 302 c 2
 230 716 l 1
 325 716 l 1
 237 303 l 2
 229 266 225 233 225 204 c 3
 225 118 265 72 369 72 c 3
EndSplineSet
Layer: 2
SplineSet
369 72 m 259,0,1
 479 72 479 72 531.5 125.5 c 128,-1,2
 584 179 584 179 611 303 c 2,3,-1
 699 716 l 1,4,-1
 794 716 l 1,5,-1
 706 302 l 2,6,7
 671 139 671 139 588.5 63.5 c 128,-1,8
 506 -12 506 -12 359 -12 c 259,9,10
 238 -12 238 -12 182.5 34 c 128,-1,11
 127 80 127 80 127 179 c 259,12,13
 127 233 127 233 142 302 c 2,14,-1
 230 716 l 1,15,-1
 325 716 l 1,16,-1
 237 303 l 2,17,18
 225 247 225 247 225 204 c 259,19,20
 225 138 225 138 259 105 c 128,-1,21
 293 72 293 72 369 72 c 259,0,1
EndSplineSet
EndChar

StartChar: V
Encoding: 86 86 55
Width: 666
VWidth: 2048
Flags: W
HStem: 0 21G<278.508 392.039> 696 20G<157 261.968 703.258 811>
VStem: 157 102<614 716> 715 96<620 716>
DStem2: 351 96 380 0 0.515727 0.856753<0 718.911>
LayerCount: 3
Fore
SplineSet
282 0 m 1
 157 716 l 1
 259 716 l 1
 351 96 l 1
 715 716 l 1
 811 716 l 1
 380 0 l 1
 282 0 l 1
EndSplineSet
Validated: 1
Layer: 2
SplineSet
282 0 m 1,0,-1
 157 716 l 1,1,-1
 259 716 l 1,2,-1
 351 96 l 1,3,-1
 715 716 l 1,4,-1
 811 716 l 1,5,-1
 380 0 l 1,6,-1
 282 0 l 1,0,-1
EndSplineSet
EndChar

StartChar: W
Encoding: 87 87 56
Width: 944
VWidth: 2048
Flags: W
HStem: 0 21G<200.939 308.746 643.762 745.749> 696 20G<164 261.582 559.034 685.164 980.685 1085>
VStem: 164 97<584.105 716>
DStem2: 278 132 299 0 0.438058 0.898947<0 591.358> 684 716 606 630 0.0617865 -0.998089<81.0163 584.985> 718 132 736 0 0.438152 0.898901<0 644.135>
LayerCount: 3
Fore
SplineSet
202 0 m 1
 164 716 l 1
 261 716 l 1
 278 132 l 1
 569 716 l 1
 684 716 l 1
 718 132 l 1
 990 716 l 1
 1085 716 l 1
 736 0 l 1
 645 0 l 1
 606 630 l 1
 299 0 l 1
 202 0 l 1
EndSplineSet
Validated: 1
Layer: 2
SplineSet
202 0 m 1,0,-1
 164 716 l 1,1,-1
 261 716 l 1,2,-1
 278 132 l 1,3,-1
 569 716 l 1,4,-1
 684 716 l 1,5,-1
 718 132 l 1,6,-1
 990 716 l 1,7,-1
 1085 716 l 1,8,-1
 736 0 l 1,9,-1
 645 0 l 1,10,-1
 606 630 l 1,11,-1
 299 0 l 1,12,-1
 202 0 l 1,0,-1
EndSplineSet
EndChar

StartChar: X
Encoding: 88 88 57
Width: 666
VWidth: 2048
Flags: W
HStem: 0 21G<5 136.658 534.067 661> 696 20G<189 311.738 670.674 793>
VStem: 5 113<0 113> 690 103<613 716>
DStem2: 5 0 118 0 0.691291 0.722576<78.1159 485.623 619.618 990.899> 302 716 189 716 0.448212 -0.893927<0 296.946 415.794 748.519>
LayerCount: 3
Fore
SplineSet
5 0 m 1
 361 374 l 1
 189 716 l 1
 302 716 l 1
 432 449 l 1
 690 716 l 1
 793 716 l 1
 470 379 l 1
 661 0 l 1
 544 0 l 1
 396 298 l 1
 118 0 l 1
 5 0 l 1
EndSplineSet
Validated: 1
Layer: 2
SplineSet
5 0 m 1,0,-1
 361 374 l 1,1,-1
 189 716 l 1,2,-1
 302 716 l 1,3,-1
 432 449 l 1,4,-1
 690 716 l 1,5,-1
 793 716 l 1,6,-1
 470 379 l 1,7,-1
 661 0 l 1,8,-1
 544 0 l 1,9,-1
 396 298 l 1,10,-1
 118 0 l 1,11,-1
 5 0 l 1,0,-1
EndSplineSet
EndChar

StartChar: Y
Encoding: 89 89 58
Width: 666
VWidth: 2048
Flags: W
HStem: 0 21G<279 378.224> 696 20G<155 278.93 683.569 811>
VStem: 279 95<0 95> 701 110<606 716>
DStem2: 270 716 155 716 0.414301 -0.91014<0 358.104> 279 0 374 0 0.207912 0.978148<19.7516 309.685> 416 389 438 303 0.670254 0.742131<0 433.699>
LayerCount: 3
Fore
SplineSet
279 0 m 1
 343 303 l 1
 155 716 l 1
 270 716 l 1
 416 389 l 1
 701 716 l 1
 811 716 l 1
 438 303 l 1
 374 0 l 1
 279 0 l 1
EndSplineSet
Validated: 1
Layer: 2
SplineSet
279 0 m 1,0,-1
 343 303 l 1,1,-1
 155 716 l 1,2,-1
 270 716 l 1,3,-1
 416 389 l 1,4,-1
 701 716 l 1,5,-1
 811 716 l 1,6,-1
 438 303 l 1,7,-1
 374 0 l 1,8,-1
 279 0 l 1,0,-1
EndSplineSet
EndChar

StartChar: Z
Encoding: 90 90 59
Width: 610
VWidth: 2048
Flags: W
HStem: 0 84<147 586> 632 84<213 589>
DStem2: 39 89 147 84 0.715968 0.698133<73.8339 772.869>
LayerCount: 3
Fore
SplineSet
20 0 m 1
 39 89 l 1
 589 632 l 1
 195 632 l 1
 213 716 l 1
 727 716 l 1
 709 632 l 1
 147 84 l 1
 604 84 l 1
 586 0 l 1
 20 0 l 1
EndSplineSet
Validated: 1
Layer: 2
SplineSet
20 0 m 1,0,-1
 39 89 l 1,1,-1
 589 632 l 1,2,-1
 195 632 l 1,3,-1
 213 716 l 1,4,-1
 727 716 l 1,5,-1
 709 632 l 1,6,-1
 147 84 l 1,7,-1
 604 84 l 1,8,-1
 586 0 l 1,9,-1
 20 0 l 1,0,-1
EndSplineSet
EndChar

StartChar: bracketleft
Encoding: 91 91 60
Width: 277
VWidth: 2048
Flags: W
HStem: -199 72<129 220> 644 72<293 399>
DStem2: 25 -199 113.696 -199 0.207912 0.978148<92.0494 880.299>
LayerCount: 3
Fore
SplineSet
25 -199 m 1
 219 716 l 1
 414 716 l 1
 399 644 l 1
 293 644 l 1
 129 -127 l 1
 235 -127 l 1
 220 -199 l 1
 25 -199 l 1
EndSplineSet
Validated: 1
Layer: 2
SplineSet
25 -199 m 1,0,-1
 219 716 l 1,1,-1
 414 716 l 1,2,-1
 399 644 l 1,3,-1
 293 644 l 1,4,-1
 129 -127 l 1,5,-1
 235 -127 l 1,6,-1
 220 -199 l 1,7,-1
 25 -199 l 1,0,-1
EndSplineSet
EndChar

StartChar: backslash
Encoding: 92 92 61
Width: 277
VWidth: 2048
Flags: W
HStem: -12 21G<202.676 274> 708 20G<155 227.297>
VStem: 155 71<657 728> 204 70<-12 58>
DStem2: 226 728 155 728 0.0660715 -0.997815<0 736.929>
LayerCount: 3
Fore
SplineSet
204 -12 m 1xd0
 155 728 l 1
 226 728 l 1xe0
 274 -12 l 1
 204 -12 l 1xd0
EndSplineSet
Validated: 1
Layer: 2
SplineSet
204 -12 m 1,0,-1
 155 728 l 1,1,-1
 226 728 l 1,2,-1
 274 -12 l 1,3,-1
 204 -12 l 1,0,-1
EndSplineSet
EndChar

StartChar: bracketright
Encoding: 93 93 62
Width: 277
VWidth: 2048
Flags: W
HStem: -199 72<-9 99> 644 72<170 263>
DStem2: 83.6959 -199 171 -199 0.207912 0.978148<73.6085 861.858>
LayerCount: 3
Fore
SplineSet
171 -199 m 1
 -24 -199 l 1
 -9 -127 l 1
 99 -127 l 1
 263 644 l 1
 155 644 l 1
 170 716 l 1
 365 716 l 1
 171 -199 l 1
EndSplineSet
Validated: 1
Layer: 2
SplineSet
171 -199 m 1,0,-1
 -24 -199 l 1,1,-1
 -9 -127 l 1,2,-1
 99 -127 l 1,3,-1
 263 644 l 1,4,-1
 155 644 l 1,5,-1
 170 716 l 1,6,-1
 365 716 l 1,7,-1
 171 -199 l 1,0,-1
EndSplineSet
EndChar

StartChar: asciicircum
Encoding: 94 94 63
Width: 469
VWidth: 2048
Flags: W
HStem: 708 20G<340.905 429.604>
VStem: 98 90<337 427> 426 89<337 426>
DStem2: 98 337 188 337 0.547768 0.83663<49.2991 391.357>
LayerCount: 3
Fore
SplineSet
188 337 m 1
 98 337 l 1
 354 728 l 1
 425 728 l 1
 515 337 l 1
 426 337 l 1
 368 628 l 1
 188 337 l 1
EndSplineSet
Validated: 1
Layer: 2
SplineSet
188 337 m 1,0,-1
 98 337 l 1,1,-1
 354 728 l 1,2,-1
 425 728 l 1,3,-1
 515 337 l 1,4,-1
 426 337 l 1,5,-1
 368 628 l 1,6,-1
 188 337 l 1,0,-1
EndSplineSet
EndChar

StartChar: underscore
Encoding: 95 95 64
Width: 556
VWidth: 2048
Flags: W
HStem: -199 64<-44 527>
LayerCount: 3
Fore
SplineSet
-57 -199 m 1
 -44 -135 l 1
 540 -135 l 1
 527 -199 l 1
 -57 -199 l 1
EndSplineSet
Validated: 1
Layer: 2
SplineSet
-57 -199 m 1,0,-1
 -44 -135 l 1,1,-1
 540 -135 l 1,2,-1
 527 -199 l 1,3,-1
 -57 -199 l 1,0,-1
EndSplineSet
EndChar

StartChar: grave
Encoding: 96 96 65
Width: 332
VWidth: 2048
Flags: W
HStem: 582 138<280 314>
VStem: 196 155
LayerCount: 3
Fore
SplineSet
351 582 m 1
 280 582 l 1
 196 720 l 1
 314 720 l 1
 351 582 l 1
EndSplineSet
Validated: 1
Layer: 2
SplineSet
351 582 m 1,0,-1
 280 582 l 1,1,-1
 196 720 l 1,2,-1
 314 720 l 1,3,-1
 351 582 l 1,0,-1
EndSplineSet
EndChar

StartChar: a
Encoding: 97 97 66
Width: 556
VWidth: 2048
Flags: W
HStem: -12 72<167.973 318.765> 0 21G<420.5 513> 458 72<275.711 451.699>
VStem: 60 91<77.4025 176.216> 418 86<0.750732 63.5709> 475 92<329.109 435.317>
DStem2: 393.986 -12 483.918 -12 0.207912 0.978148<137.756 277.14 338.977 402.798>
LayerCount: 3
Fore
SplineSet
370 458 m 3xb4
 281 458 246 427 212 359 c 1
 131 371 l 1
 176 477 265 530 398 530 c 3
 525 530 567 496 567 413 c 3xb4
 567 388 563 362 557 334 c 2
 509 106 l 2
 506 90 504 75 504 60 c 3xb8
 504 39 507 20 513 0 c 1
 422 0 l 1
 419 12 418 27 418 42 c 3x78
 418 49 418 56 419 64 c 1
 348 14 278 -12 210 -12 c 3
 117 -12 60 32 60 103 c 3
 60 152 80 191 117 229 c 0
 156 268 215 289 312 300 c 0
 363 306 418 315 467 331 c 1
 472 353 l 2
 474 364 475 374 475 383 c 3
 475 433 440 458 370 458 c 3xb4
248 60 m 3
 378 60 427 142 445 228 c 2
 452 259 l 1
 418 246 378 240 338 234 c 0
 269 223 223 210 193 192 c 0
 163 174 151 151 151 120 c 3
 151 78 187 60 248 60 c 3
EndSplineSet
Layer: 2
SplineSet
370 458 m 259,0,1
 306 458 306 458 272.5 435.5 c 128,-1,2
 239 413 239 413 212 359 c 1,3,-1
 131 371 l 1,4,5
 164 449 164 449 230 489.5 c 128,-1,6
 296 530 296 530 398 530 c 259,7,8
 492 530 492 530 529.5 503 c 128,-1,9
 567 476 567 476 567 413 c 259,10,11
 567 381 567 381 557 334 c 2,12,-1
 509 106 l 2,13,14
 504 79 504 79 504 60 c 259,15,16
 504 30 504 30 513 0 c 1,17,-1
 422 0 l 1,18,19
 418 16 418 16 418 42 c 259,20,21
 418 56 418 56 419 64 c 1,22,23
 311 -12 311 -12 210 -12 c 259,24,25
 140 -12 140 -12 100 19 c 128,-1,26
 60 50 60 50 60 103 c 259,27,28
 60 170 60 170 117 229 c 0,29,30
 172 284 172 284 312 300 c 0,31,32
 406 311 406 311 467 331 c 1,33,-1
 472 353 l 2,34,35
 475 369 475 369 475 383 c 259,36,37
 475 421 475 421 448.5 439.5 c 128,-1,38
 422 458 422 458 370 458 c 259,0,1
248 60 m 259,39,40
 330 60 330 60 379 102.5 c 128,-1,41
 428 145 428 145 445 228 c 2,42,-1
 452 259 l 1,43,44
 418 246 418 246 338 234 c 0,45,46
 236 218 236 218 193 192 c 0,47,48
 151 167 151 167 151 120 c 259,49,50
 151 93 151 93 173 76.5 c 128,-1,51
 195 60 195 60 248 60 c 259,39,40
EndSplineSet
EndChar

StartChar: b
Encoding: 98 98 67
Width: 556
VWidth: 2048
Flags: W
HStem: -12 72<233.195 373.111> 0 21G<64 157.375> 458 72<317.215 452.446> 696 20G<211.754 305>
VStem: 216 89<627 716> 490 91<220.1 419.202>
DStem2: 61.4493 -12 150.449 -12 0.207912 0.978148<30.7722 96.2844 216.528 424.606 502.074 744.224>
LayerCount: 3
Fore
SplineSet
288 -12 m 3xbc
 227 -12 190 14 167 64 c 1
 153 0 l 1
 64 0 l 1x7c
 216 716 l 1
 305 716 l 1
 251 461 l 1
 298 507 351 530 409 530 c 3
 520 530 581 461 581 348 c 3
 581 258.9943822 547.435570802 168.178815199 499 102 c 0
 444.664278579 27.7596512828 370.339778203 -12 288 -12 c 3xbc
385 458 m 3
 293 458 232 373 209 264 c 0
 202 231 199 203 199 179 c 3
 199 90 243 60 297 60 c 3xbc
 351 60 399.219824075 84.3709319018 437 148 c 0
 469.746222755 203.1509247 490 269 490 335 c 3
 490 405 462 458 385 458 c 3
EndSplineSet
Layer: 2
SplineSet
288 -12 m 259,0,1
 202 -12 202 -12 167 64 c 1,2,-1
 153 0 l 1,3,-1
 64 0 l 1,4,-1
 216 716 l 1,5,-1
 305 716 l 1,6,-1
 251 461 l 1,7,8
 322 530 322 530 409 530 c 259,9,10
 491 530 491 530 536 482 c 128,-1,11
 581 434 581 434 581 348 c 259,12,13
 581 214 581 214 499 102 c 0,14,15
 416 -12 416 -12 288 -12 c 259,0,1
385 458 m 259,16,17
 319 458 319 458 273 404 c 128,-1,18
 227 350 227 350 209 264 c 256,19,20
 199 217 199 217 199 179 c 259,21,22
 199 122 199 122 223 91 c 128,-1,23
 247 60 247 60 297 60 c 259,24,25
 385 60 385 60 437 148 c 0,26,27
 490 237 490 237 490 335 c 259,28,29
 490 397 490 397 463.5 427.5 c 128,-1,30
 437 458 437 458 385 458 c 259,16,17
EndSplineSet
EndChar

StartChar: c
Encoding: 99 99 68
Width: 499
VWidth: 2048
Flags: W
HStem: -12 72<212.57 366.077> 458 72<290.991 442.845>
VStem: 84 89<101.689 306.29> 472 89<366 428.366>
LayerCount: 3
Fore
SplineSet
163 420 m 0
 221 496 302 530 389 530 c 3
 503 530 561 478 561 370 c 0
 561 369 561 367 561 366 c 1
 472 353 l 1
 472 423 439 458 376 458 c 3
 312 458 258 428 224 372 c 0
 196 326 173 252 173 182 c 3
 173 101 212 60 287 60 c 3
 362 60 414 104 445 190 c 1
 528 179 l 1
 483 59 400 -12 273 -12 c 3
 147 -12 84 61 84 176 c 3
 84 271 114 355 163 420 c 0
EndSplineSet
Layer: 2
SplineSet
163 420 m 0,0,1
 247 530 247 530 389 530 c 259,2,3
 561 530 561 530 561 370 c 2,4,-1
 561 366 l 1,5,-1
 472 353 l 1,6,7
 472 458 472 458 376 458 c 259,8,9
 276 458 276 458 224 372 c 0,10,11
 173 288 173 288 173 182 c 259,12,13
 173 122 173 122 201 91 c 128,-1,14
 229 60 229 60 287 60 c 259,15,16
 398 60 398 60 445 190 c 1,17,-1
 528 179 l 1,18,19
 456 -12 456 -12 273 -12 c 0,20,21
 180 -12 180 -12 132 38 c 128,-1,22
 84 88 84 88 84 176 c 259,23,24
 84 315 84 315 163 420 c 0,0,1
EndSplineSet
EndChar

StartChar: d
Encoding: 100 100 69
Width: 556
VWidth: 2048
Flags: W
HStem: -12 72<213.463 343.796> 0 21G<397 490.246> 458 72<281.522 425.559> 696 20G<544.781 638>
VStem: 80 90<105.142 313.348> 549 89<627 716>
DStem2: 394.449 -12 483.449 -12 0.207912 0.978148<30.7722 77.7803 142.183 355.039 482.591 744.224>
LayerCount: 3
Fore
SplineSet
255 -12 m 3xbc
 140 -12 80 67 80 180 c 3
 80 272 106 351 159 422 c 0
 208 488 278 530 367 530 c 3
 427 530 470 507 495 460 c 1
 549 716 l 1
 638 716 l 1
 486 0 l 1
 397 0 l 1x7c
 411 64 l 1
 366 14 319 -12 255 -12 c 3xbc
450 251 m 0
 457 284 461 313 461 338 c 3
 461 418 425 458 359 458 c 3
 301 458 250 427 218 372 c 0
 191 326 170 255 170 188 c 3
 170 88 231 60 278 60 c 3xbc
 361 60 423 125 450 251 c 0
EndSplineSet
Layer: 2
SplineSet
255 -12 m 259,0,1
 171 -12 171 -12 125.5 40.5 c 128,-1,2
 80 93 80 93 80 180 c 259,3,4
 80 316 80 316 159 422 c 0,5,6
 239 530 239 530 367 530 c 259,7,8
 458 530 458 530 495 460 c 1,9,-1
 549 716 l 1,10,-1
 638 716 l 1,11,-1
 486 0 l 1,12,-1
 397 0 l 1,13,-1
 411 64 l 1,14,15
 343 -12 343 -12 255 -12 c 259,0,1
450 251 m 0,16,17
 461 303 461 303 461 338 c 259,18,19
 461 398 461 398 435.5 428 c 128,-1,20
 410 458 410 458 359 458 c 259,21,22
 268 458 268 458 218 372 c 0,23,24
 170 290 170 290 170 188 c 259,25,26
 170 120 170 120 202.5 90 c 128,-1,27
 235 60 235 60 278 60 c 259,28,29
 341 60 341 60 385.5 108.5 c 128,-1,30
 430 157 430 157 450 251 c 0,16,17
EndSplineSet
EndChar

StartChar: e
Encoding: 101 101 70
Width: 556
VWidth: 2048
Flags: W
HStem: -12 72<223.373 376.106> 238 72<198 489.881> 458 72<295.928 452.403>
VStem: 82 92<110.051 236.927> 490 89<310.357 421.843>
LayerCount: 3
Fore
SplineSet
178 238 m 1
 176 222 174 206 174 194 c 3
 174 114 214 60 298 60 c 3
 364 60 415 97 457 167 c 1
 545 156 l 1
 490 44 403 -12 281 -12 c 3
 152 -12 82 53 82 173 c 3
 82 266 108 348 165 421 c 0
 221 492 297 530 392 530 c 3
 516 530 579 459 579 344 c 3
 579 329 578 313 576 296 c 1
 564 238 l 1
 178 238 l 1
198 310 m 1
 488 310 l 1
 490 323 490 334 490 345 c 3
 490 420 452 458 378 458 c 3
 289 458 222 393 198 310 c 1
EndSplineSet
Layer: 2
SplineSet
178 238 m 1,0,1
 174 206 174 206 174 194 c 259,2,3
 174 132 174 132 205.5 96 c 128,-1,4
 237 60 237 60 298 60 c 259,5,6
 393 60 393 60 457 167 c 1,7,-1
 545 156 l 1,8,9
 462 -12 462 -12 281 -12 c 259,10,11
 184 -12 184 -12 133 35.5 c 128,-1,12
 82 83 82 83 82 173 c 259,13,14
 82 315 82 315 165 421 c 0,15,16
 251 530 251 530 392 530 c 259,17,18
 483 530 483 530 531 481 c 128,-1,19
 579 432 579 432 579 344 c 259,20,21
 579 322 579 322 576 296 c 2,22,-1
 564 238 l 1,23,-1
 178 238 l 1,0,1
198 310 m 1,24,-1
 488 310 l 1,25,26
 490 323 490 323 490 345 c 259,27,28
 490 403 490 403 461.5 430.5 c 128,-1,29
 433 458 433 458 378 458 c 259,30,31
 313 458 313 458 265 416.5 c 128,-1,32
 217 375 217 375 198 310 c 1,24,-1
EndSplineSet
EndChar

StartChar: f
Encoding: 102 102 71
Width: 277
VWidth: 2048
Flags: W
HStem: 0 21G<87 180.257> 451 67<119 183 286 372> 656 72<327.236 442.009>
VStem: 87 89<0 89>
DStem2: 87 0 176 0 0.207912 0.978148<18.5041 461.104 548.055 676.624>
LayerCount: 3
Fore
SplineSet
387 656 m 3
 329 656 310 626 297 567 c 2
 286 518 l 1
 386 518 l 1
 372 451 l 1
 272 451 l 1
 176 0 l 1
 87 0 l 1
 183 451 l 1
 105 451 l 1
 119 518 l 1
 197 518 l 1
 209 575 l 2
 228 663 271 728 385 728 c 3
 411 728 438 725 466 720 c 1
 437 650 l 1
 421 655 403 656 387 656 c 3
EndSplineSet
Layer: 2
SplineSet
387 656 m 259,0,1
 346 656 346 656 326.5 635 c 128,-1,2
 307 614 307 614 297 567 c 2,3,-1
 286 518 l 1,4,-1
 386 518 l 1,5,-1
 372 451 l 1,6,-1
 272 451 l 1,7,-1
 176 0 l 1,8,-1
 87 0 l 1,9,-1
 183 451 l 1,10,-1
 105 451 l 1,11,-1
 119 518 l 1,12,-1
 197 518 l 1,13,-1
 209 575 l 2,14,15
 225 648 225 648 265 688 c 128,-1,16
 305 728 305 728 385 728 c 259,17,18
 421 728 421 728 466 720 c 1,19,-1
 437 650 l 1,20,21
 418 656 418 656 387 656 c 259,0,1
EndSplineSet
EndChar

StartChar: g
Encoding: 103 103 72
Width: 556
VWidth: 2048
Flags: W
HStem: -210 72<145.709 322.491> 0 72<206.221 348.86> 458 72<284.136 427.271> 498 20G<505.738 599>
VStem: 37 86<-113.216 -55> 79 90<110.161 310.88>
DStem2: 355.122 -210 444.272 -210 0.207912 0.978148<142.656 283.188 359.446 555.695 681.923 744.292>
LayerCount: 3
Fore
SplineSet
504 71 m 2xd4
 466 -106 397 -210 211 -210 c 3
 102 -210 37 -172 37 -87 c 3
 37 -74 39 -59 42 -43 c 1
 123 -55 l 1
 123 -63 l 2xd8
 123 -113 157 -138 225 -138 c 3
 343 -138 381 -86 414 67 c 1
 367 23 314 0 256 0 c 3
 142 0 79 75 79 187 c 3
 79 279 116 365 159 422 c 0
 210 489 283 530 369 530 c 3xe4
 432 530 467 506 497 457 c 1
 510 518 l 1
 599 518 l 1
 504 71 l 2xd4
361 458 m 3xe4
 302 458 253 425 220 374 c 0
 191 329 169 260 169 191 c 3
 169 112 206 72 280 72 c 3
 377 72 433 159 456 265 c 0
 461 290 464 314 464 336 c 3
 464 412 429 458 361 458 c 3xe4
EndSplineSet
Layer: 2
SplineSet
504 71 m 2,0,1
 473 -72 473 -72 408 -141 c 128,-1,2
 343 -210 343 -210 211 -210 c 259,3,4
 37 -210 37 -210 37 -87 c 259,5,6
 37 -70 37 -70 42 -43 c 1,7,-1
 123 -55 l 1,8,-1
 123 -63 l 2,9,10
 123 -138 123 -138 225 -138 c 259,11,12
 312 -138 312 -138 350.5 -94.5 c 128,-1,13
 389 -51 389 -51 414 67 c 1,14,15
 342 0 342 0 256 0 c 259,16,17
 172 0 172 0 125.5 50.5 c 128,-1,18
 79 101 79 101 79 187 c 259,19,20
 79 316 79 316 159 422 c 0,21,22
 241 530 241 530 369 530 c 259,23,24
 415 530 415 530 444.5 512.5 c 128,-1,25
 474 495 474 495 497 457 c 1,26,-1
 510 518 l 1,27,-1
 599 518 l 1,28,-1
 504 71 l 2,0,1
361 458 m 259,29,30
 274 458 274 458 220 374 c 0,31,32
 169 295 169 295 169 191 c 259,33,34
 169 134 169 134 195.5 103 c 128,-1,35
 222 72 222 72 280 72 c 259,36,37
 349 72 349 72 393 125.5 c 128,-1,38
 437 179 437 179 456 265 c 0,39,40
 464 305 464 305 464 336 c 259,41,42
 464 394 464 394 437.5 426 c 128,-1,43
 411 458 411 458 361 458 c 259,29,30
EndSplineSet
EndChar

StartChar: h
Encoding: 104 104 73
Width: 556
VWidth: 2048
Flags: W
HStem: 0 21G<66 159.225 400 493.268> 458 72<325.335 451.941> 696 20G<213.754 307>
VStem: 66 89<0 89> 218 89<627 716> 400 89<0 89> 475 94<276.75 434.633>
DStem2: 66 0 155 0 0.207912 0.978148<18.5041 431.708 488.827 731.956> 400 0 489 0 0.207912 0.978148<18.5041 379.8>
LayerCount: 3
Fore
SplineSet
388 458 m 3xfa
 279 458 236 385 215 284 c 2
 155 0 l 1
 66 0 l 1
 218 716 l 1
 307 716 l 1
 253 460 l 1
 303 507 360 530 423 530 c 3
 527 530 569 489 569 408 c 3xfa
 569 385 565 358 559 328 c 2
 489 0 l 1
 400 0 l 1xfc
 470 328 l 2
 474 345 475 359 475 373 c 3
 475 428 446 458 388 458 c 3xfa
EndSplineSet
Layer: 2
SplineSet
388 458 m 259,0,1
 311 458 311 458 271.5 413 c 128,-1,2
 232 368 232 368 215 284 c 2,3,-1
 155 0 l 1,4,-1
 66 0 l 1,5,-1
 218 716 l 1,6,-1
 307 716 l 1,7,-1
 253 460 l 1,8,9
 327 530 327 530 423 530 c 259,10,11
 500 530 500 530 534.5 500 c 128,-1,12
 569 470 569 470 569 408 c 259,13,14
 569 378 569 378 559 328 c 2,15,-1
 489 0 l 1,16,-1
 400 0 l 1,17,-1
 470 328 l 2,18,19
 475 349 475 349 475 373 c 259,20,21
 475 412 475 412 454 435 c 128,-1,22
 433 458 433 458 388 458 c 259,0,1
EndSplineSet
EndChar

StartChar: i
Encoding: 105 105 74
Width: 222
VWidth: 2048
Flags: W
HStem: 0 21G<66 159.247> 498 20G<171.753 265> 615 101<218 286>
VStem: 66 89<0 89> 176 89<429 518> 197 89<615 704> 218 89<627 716>
DStem2: 66 0 155 0 0.207912 0.978148<18.5041 529.551 647.301 731.956>
LayerCount: 3
Fore
SplineSet
197 615 m 1xf4
 218 716 l 1
 307 716 l 1xf2
 286 615 l 1
 197 615 l 1xf4
66 0 m 1
 176 518 l 1
 265 518 l 1xf8
 155 0 l 1
 66 0 l 1
EndSplineSet
Validated: 1
Layer: 2
SplineSet
197 615 m 1,0,-1
 218 716 l 1,1,-1
 307 716 l 1,2,-1
 286 615 l 1,3,-1
 197 615 l 1,0,-1
66 0 m 1,4,-1
 176 518 l 1,5,-1
 265 518 l 1,6,-1
 155 0 l 1,7,-1
 66 0 l 1,4,-1
EndSplineSet
EndChar

StartChar: j
Encoding: 106 106 75
Width: 222
VWidth: 2048
Flags: W
HStem: -210 72<-62.8158 23.8844> 498 20G<169.735 263> 615 101<216 284>
VStem: 174 89<429 518> 195 89<615 704> 216 89<627 716>
DStem2: 18.8896 -210 108.527 -210 0.207912 0.978148<82.3172 744.341 862.091 946.746>
LayerCount: 3
Fore
SplineSet
195 615 m 1xe8
 216 716 l 1
 305 716 l 1xe4
 284 615 l 1
 195 615 l 1xe8
147 -29 m 2
 116 -177 56 -210 -22 -210 c 3
 -45 -210 -67 -207 -89 -201 c 1
 -57 -132 l 1
 -41 -135 -27 -138 -17 -138 c 3
 20 -138 41 -107 58 -26 c 2
 174 518 l 1
 263 518 l 1xf0
 147 -29 l 2
EndSplineSet
Layer: 2
SplineSet
195 615 m 1,0,-1
 216 716 l 1,1,-1
 305 716 l 1,2,-1
 284 615 l 1,3,-1
 195 615 l 1,0,-1
147 -29 m 2,4,5
 125 -133 125 -133 84 -171.5 c 128,-1,6
 43 -210 43 -210 -22 -210 c 259,7,8
 -56 -210 -56 -210 -89 -201 c 1,9,-1
 -57 -132 l 1,10,11
 -25 -138 -25 -138 -17 -138 c 259,12,13
 11 -138 11 -138 28 -112.5 c 128,-1,14
 45 -87 45 -87 58 -26 c 2,15,-1
 174 518 l 1,16,-1
 263 518 l 1,17,-1
 147 -29 l 2,4,5
EndSplineSet
EndChar

StartChar: k
Encoding: 107 107 76
Width: 499
VWidth: 2048
Flags: W
HStem: 0 21G<66 159.293 379.245 497> 498 20G<448 587> 696 20G<213.754 307>
VStem: 66 89<0 89> 218 89<627 716> 472 115<403 518>
DStem2: 66 0 155 0 0.207912 0.978148<18.5041 228.173 333.288 731.956> 220 308 272 265 0.778318 0.62787<0 13.4741 109.37 327.989> 346 326 272 265 0.420293 -0.907388<24.249 313.461>
LayerCount: 3
Fore
SplineSet
66 0 m 1
 218 716 l 1
 307 716 l 1
 220 308 l 1
 472 518 l 1
 587 518 l 1
 346 326 l 1
 497 0 l 1
 388 0 l 1
 272 265 l 1
 199 205 l 1
 155 0 l 1
 66 0 l 1
EndSplineSet
Validated: 1
Layer: 2
SplineSet
66 0 m 1,0,-1
 218 716 l 1,1,-1
 307 716 l 1,2,-1
 220 308 l 1,3,-1
 472 518 l 1,4,-1
 587 518 l 1,5,-1
 346 326 l 1,6,-1
 497 0 l 1,7,-1
 388 0 l 1,8,-1
 272 265 l 1,9,-1
 199 205 l 1,10,-1
 155 0 l 1,11,-1
 66 0 l 1,0,-1
EndSplineSet
EndChar

StartChar: l
Encoding: 108 108 77
Width: 222
VWidth: 2048
Flags: W
HStem: 0 21G<64 157.246> 696 20G<211.754 305>
VStem: 64 89<0 89> 216 89<627 716>
DStem2: 64 0 153 0 0.207912 0.978148<18.5041 731.956>
LayerCount: 3
Fore
SplineSet
64 0 m 1
 216 716 l 1
 305 716 l 1
 153 0 l 1
 64 0 l 1
EndSplineSet
Validated: 1
Layer: 2
SplineSet
64 0 m 1,0,-1
 216 716 l 1,1,-1
 305 716 l 1,2,-1
 153 0 l 1,3,-1
 64 0 l 1,0,-1
EndSplineSet
EndChar

StartChar: m
Encoding: 109 109 78
Width: 832
VWidth: 2048
Flags: W
HStem: 0 21G<66 159.222 374 467.238 680 773.27> 458 72<320.034 433.249 630.912 739.266> 498 20G<171.753 265>
VStem: 66 89<0 89> 374 89<0 89> 680 89<0 89> 756 96<289.797 441.92>
DStem2: 66 0 155 0 0.207912 0.978148<18.5041 430.42 474.51 529.551> 374 0 463 0 0.207912 0.978148<18.5041 389.064> 680 0 769 0 0.207912 0.978148<18.5041 387.74>
LayerCount: 3
Fore
SplineSet
379 458 m 3xda
 272 458 233 371 212 270 c 2
 155 0 l 1
 66 0 l 1
 176 518 l 1
 265 518 l 1xba
 250 446 l 1
 288 503 346 530 415 530 c 3
 492 530 533 500 542 440 c 1
 596 500 656 530 722 530 c 3
 809 530 852 491 852 415 c 3xda
 852 397 850 378 845 356 c 2
 769 0 l 1
 680 0 l 1xdc
 749 326 l 2
 753 347 756 365 756 381 c 3
 756 432 733 458 686 458 c 3
 601 458 548 403 527 302 c 2
 463 0 l 1
 374 0 l 1
 446 337 l 2
 450 354 451 369 451 382 c 3
 451 431 427 458 379 458 c 3xda
EndSplineSet
Layer: 2
SplineSet
379 458 m 259,0,1
 305 458 305 458 267.5 408 c 128,-1,2
 230 358 230 358 212 270 c 2,3,-1
 155 0 l 1,4,-1
 66 0 l 1,5,-1
 176 518 l 1,6,-1
 265 518 l 1,7,-1
 250 446 l 1,8,9
 306 530 306 530 415 530 c 259,10,11
 528 530 528 530 542 440 c 1,12,13
 623 530 623 530 722 530 c 259,14,15
 852 530 852 530 852 415 c 259,16,17
 852 387 852 387 845 356 c 2,18,-1
 769 0 l 1,19,-1
 680 0 l 1,20,-1
 749 326 l 2,21,22
 756 363 756 363 756 381 c 259,23,24
 756 458 756 458 686 458 c 259,25,26
 559 458 559 458 527 302 c 2,27,-1
 463 0 l 1,28,-1
 374 0 l 1,29,-1
 446 337 l 2,30,31
 451 358 451 358 451 382 c 259,32,33
 451 458 451 458 379 458 c 259,0,1
EndSplineSet
EndChar

StartChar: n
Encoding: 110 110 79
Width: 556
VWidth: 2048
Flags: W
HStem: 0 21G<66 159.225 398 491.269> 458 72<321.946 449.573> 498 20G<171.753 264>
VStem: 66 89<0 89> 398 89<0 89> 472 95<274.516 435.038>
DStem2: 66 0 155 0 0.207912 0.978148<18.5041 427.337 474.302 529.551> 398 0 487 0 0.207912 0.978148<18.5041 377.542>
LayerCount: 3
Fore
SplineSet
66 0 m 1xd4
 176 518 l 1
 264 518 l 1xb4
 249 446 l 1
 288 503 351 530 424 530 c 3
 519 530 567 488 567 405 c 3xd4
 567 386 565 365 560 342 c 2
 487 0 l 1
 398 0 l 1xd8
 465 316 l 2
 469 336 472 355 472 371 c 3
 472 428 444 458 388 458 c 3
 298 458 239 397 215 284 c 2
 155 0 l 1
 66 0 l 1xd4
EndSplineSet
Layer: 2
SplineSet
66 0 m 1,0,-1
 176 518 l 1,1,-1
 264 518 l 1,2,-1
 249 446 l 1,3,4
 306 530 306 530 424 530 c 259,5,6
 567 530 567 530 567 405 c 259,7,8
 567 374 567 374 560 342 c 2,9,-1
 487 0 l 1,10,-1
 398 0 l 1,11,-1
 465 316 l 2,12,13
 472 351 472 351 472 371 c 259,14,15
 472 458 472 458 388 458 c 259,16,17
 252 458 252 458 215 284 c 2,18,-1
 155 0 l 1,19,-1
 66 0 l 1,0,-1
EndSplineSet
EndChar

StartChar: o
Encoding: 111 111 80
Width: 556
VWidth: 2048
Flags: W
HStem: -12 72<214.638 372.698> 458 72<289.442 445.862>
VStem: 78 90<107.99 308.095> 494 90<210.49 409.144>
LayerCount: 3
Fore
SplineSet
273 -12 m 3
 142 -12 78 64 78 179 c 3
 78 279 115 364 162 422 c 0
 217 489 295 530 389 530 c 3
 518 530 584 455 584 338 c 3
 584 243 547 154 500 96 c 0
 446 29 369 -12 273 -12 c 3
373 458 m 3
 308 458 257 425 221 371 c 0
 192 327 168 261 168 191 c 3
 168 110 208 60 289 60 c 3
 353 60 404 91 440 144 c 0
 469 187 494 255 494 325 c 3
 494 405 454 458 373 458 c 3
EndSplineSet
Layer: 2
SplineSet
273 -12 m 259,0,1
 177 -12 177 -12 127.5 39 c 128,-1,2
 78 90 78 90 78 179 c 259,3,4
 78 318 78 318 162 422 c 0,5,6
 251 530 251 530 389 530 c 259,7,8
 484 530 484 530 534 479 c 128,-1,9
 584 428 584 428 584 338 c 259,10,11
 584 200 584 200 500 96 c 0,12,13
 413 -12 413 -12 273 -12 c 259,0,1
373 458 m 259,14,15
 279 458 279 458 221 371 c 0,16,17
 168 291 168 291 168 191 c 259,18,19
 168 129 168 129 198.5 94.5 c 128,-1,20
 229 60 229 60 289 60 c 259,21,22
 383 60 383 60 440 144 c 0,23,24
 494 224 494 224 494 325 c 259,25,26
 494 387 494 387 463 422.5 c 128,-1,27
 432 458 432 458 373 458 c 259,14,15
EndSplineSet
EndChar

StartChar: p
Encoding: 112 112 81
Width: 556
VWidth: 2048
Flags: W
HStem: -199 21G<24 117.19> -12 72<233.058 373.865> 458 72<319.032 450.788> 498 20G<171.76 265>
VStem: 24 89<-199 -110> 490 91<217.524 418.018>
DStem2: 24 -199 113 -199 0.207912 0.978148<18.5041 276.995 403.523 616.465 682.992 732.934>
LayerCount: 3
Fore
SplineSet
497 99 m 0xec
 445 31 372 -12 287 -12 c 3
 232 -12 191 11 166 54 c 1
 113 -199 l 1
 24 -199 l 1
 176 518 l 1
 265 518 l 1xdc
 251 451 l 1
 291 504 348 530 409 530 c 3
 525 530 581 458 581 348 c 3
 581 250 544 160 497 99 c 0xec
385 458 m 3xec
 300 458 235 378 209 256 c 0
 203 226 200 199 200 175 c 3
 200 100 233 60 298 60 c 3
 358 60 406 94 439 149 c 0
 466 194 490 264 490 334 c 3
 490 408 457 458 385 458 c 3xec
EndSplineSet
Layer: 2
SplineSet
497 99 m 0,0,1
 412 -12 412 -12 287 -12 c 259,2,3
 204 -12 204 -12 166 54 c 1,4,-1
 113 -199 l 1,5,-1
 24 -199 l 1,6,-1
 176 518 l 1,7,-1
 265 518 l 1,8,-1
 251 451 l 1,9,10
 311 530 311 530 409 530 c 259,11,12
 494 530 494 530 537.5 481.5 c 128,-1,13
 581 433 581 433 581 348 c 259,14,15
 581 208 581 208 497 99 c 0,0,1
385 458 m 259,16,17
 322 458 322 458 275.5 403.5 c 128,-1,18
 229 349 229 349 209 256 c 0,19,20
 200 211 200 211 200 175 c 259,21,22
 200 118 200 118 224 89 c 128,-1,23
 248 60 248 60 298 60 c 259,24,25
 386 60 386 60 439 149 c 0,26,27
 490 234 490 234 490 334 c 259,28,29
 490 392 490 392 463.5 425 c 128,-1,30
 437 458 437 458 385 458 c 259,16,17
EndSplineSet
EndChar

StartChar: q
Encoding: 113 113 82
Width: 556
VWidth: 2048
Flags: W
HStem: -199 21G<354 447.24> -12 72<213.953 347.666> 458 72<287.107 425.854> 498 20G<501.652 595>
VStem: 84 89<103.048 310.706> 354 89<-199 -110>
DStem2: 354 -199 443 -199 0.207912 0.978148<18.5041 259.677 333.324 546.155 662.324 732.934>
LayerCount: 3
Fore
SplineSet
162 423 m 0xdc
 211 489 281 530 367 530 c 3xec
 432 530 475 504 491 449 c 1
 506 518 l 1
 595 518 l 1
 443 -199 l 1
 354 -199 l 1
 408 55 l 1
 367 11 316 -12 258 -12 c 3
 149 -12 84 64 84 183 c 3
 84 280 119 365 162 423 c 0xdc
359 458 m 3
 306 458 258 427 224 373 c 0
 197 330 173 259 173 188 c 3
 173 105 214 60 281 60 c 3
 367 60 424 132 450 253 c 0
 457 285 460 313 460 338 c 3
 460 417 425 458 359 458 c 3
EndSplineSet
Layer: 2
SplineSet
162 423 m 0,0,1
 241 530 241 530 367 530 c 259,2,3
 467 530 467 530 491 449 c 1,4,-1
 506 518 l 1,5,-1
 595 518 l 1,6,-1
 443 -199 l 1,7,-1
 354 -199 l 1,8,-1
 408 55 l 1,9,10
 346 -12 346 -12 258 -12 c 259,11,12
 177 -12 177 -12 130.5 40.5 c 128,-1,13
 84 93 84 93 84 183 c 259,14,15
 84 318 84 318 162 423 c 0,0,1
359 458 m 259,16,17
 278 458 278 458 224 373 c 0,18,19
 173 292 173 292 173 188 c 259,20,21
 173 126 173 126 201.5 93 c 128,-1,22
 230 60 230 60 281 60 c 259,23,24
 344 60 344 60 387 110.5 c 128,-1,25
 430 161 430 161 450 253 c 0,26,27
 460 299 460 299 460 338 c 259,28,29
 460 458 460 458 359 458 c 259,16,17
EndSplineSet
EndChar

StartChar: r
Encoding: 114 114 83
Width: 332
VWidth: 2048
Flags: W
HStem: 0 21G<64 157.28> 458 72<308.913 423.081> 498 20G<169.753 263>
VStem: 64 89<0 89>
DStem2: 64 0 153 0 0.207912 0.978148<18.5041 430.064 468.433 529.551>
LayerCount: 3
Fore
SplineSet
64 0 m 1xd0
 174 518 l 1
 263 518 l 1xb0
 247 440 l 1
 285 500 328 530 369 530 c 3
 400 530 427 521 453 503 c 1
 410 438 l 1
 392 452 371 458 350 458 c 3
 295 458 239 402 211 271 c 2
 153 0 l 1
 64 0 l 1xd0
EndSplineSet
Layer: 2
SplineSet
64 0 m 1,0,-1
 174 518 l 1,1,-1
 263 518 l 1,2,-1
 247 440 l 1,3,4
 304 530 304 530 369 530 c 259,5,6
 414 530 414 530 453 503 c 1,7,-1
 410 438 l 1,8,9
 384 458 384 458 350 458 c 259,10,11
 306 458 306 458 268.5 411.5 c 128,-1,12
 231 365 231 365 211 271 c 2,13,-1
 153 0 l 1,14,-1
 64 0 l 1,0,-1
EndSplineSet
EndChar

StartChar: s
Encoding: 115 115 84
Width: 499
VWidth: 2048
Flags: W
HStem: -12 72<185.919 359.842> 458 72<246.845 412.685>
VStem: 64 89<91.6995 155> 123 93<344.345 429.152> 404 94<105.197 191.097> 436 89<385 434.626>
LayerCount: 3
Fore
SplineSet
291 222 m 0xe8
 173 253 123 284 123 348 c 3
 123 453 215 530 349 530 c 3
 472 530 525 489 525 394 c 2
 525 385 l 1
 435 374 l 1
 436 377 436 380 436 382 c 3
 436 432 403 458 339 458 c 3
 262 458 216 431 216 377 c 3xd4
 216 350 240 333 343 307 c 0
 456 278 498 246 498 188 c 3
 498 67 379 -12 250 -12 c 3
 125 -12 64 40 64 145 c 2
 64 155 l 1
 154 169 l 1
 153 164 153 157 153 154 c 3
 153 92 192 60 266 60 c 3
 346 60 404 93 404 159 c 3
 404 187 380 199 291 222 c 0xe8
EndSplineSet
Layer: 2
SplineSet
291 222 m 0,0,1
 200 246 200 246 161.5 273.5 c 128,-1,2
 123 301 123 301 123 348 c 259,3,4
 123 427 123 427 186 478.5 c 128,-1,5
 249 530 249 530 349 530 c 259,6,7
 441 530 441 530 483 497.5 c 128,-1,8
 525 465 525 465 525 394 c 2,9,-1
 525 385 l 1,10,-1
 435 374 l 2,11,12
 436 377 436 377 436 382 c 259,13,14
 436 419 436 419 411.5 438.5 c 128,-1,15
 387 458 387 458 339 458 c 259,16,17
 278 458 278 458 247 437 c 128,-1,18
 216 416 216 416 216 377 c 259,19,20
 216 356 216 356 242 341 c 128,-1,21
 268 326 268 326 343 307 c 0,22,23
 428 285 428 285 463 258 c 128,-1,24
 498 231 498 231 498 188 c 259,25,26
 498 100 498 100 424.5 44 c 128,-1,27
 351 -12 351 -12 250 -12 c 259,28,29
 159 -12 159 -12 111.5 26 c 128,-1,30
 64 64 64 64 64 145 c 2,31,-1
 64 155 l 1,32,-1
 154 169 l 1,33,34
 153 164 153 164 153 154 c 259,35,36
 153 108 153 108 182 84 c 128,-1,37
 211 60 211 60 266 60 c 259,38,39
 328 60 328 60 366 85.5 c 128,-1,40
 404 111 404 111 404 159 c 259,41,42
 404 180 404 180 381.5 192 c 128,-1,43
 359 204 359 204 291 222 c 0,0,1
EndSplineSet
EndChar

StartChar: t
Encoding: 116 116 85
Width: 277
VWidth: 2048
Flags: W
HStem: -6 72<199.569 271> 451 67<128 178 281 354>
VStem: 103 94<39.3883 198.984>
DStem2: 80.4161 -6 169.479 -6 0.207912 0.978148<134.298 467.302 554.253 667.752>
LayerCount: 3
Fore
SplineSet
202 147 m 2
 198 130 197 117 197 106 c 3
 197 76 210 66 233 66 c 3
 244 66 257 67 273 69 c 1
 271 0 l 1
 244 -5 223 -6 203 -6 c 3
 133 -6 103 11 103 70 c 3
 103 91 107 118 114 152 c 2
 178 451 l 1
 114 451 l 1
 128 518 l 1
 192 518 l 1
 220 647 l 1
 320 700 l 1
 281 518 l 1
 368 518 l 1
 354 451 l 1
 267 451 l 1
 202 147 l 2
EndSplineSet
Layer: 2
SplineSet
202 147 m 2,0,1
 197 126 197 126 197 106 c 259,2,3
 197 66 197 66 233 66 c 259,4,5
 249 66 249 66 273 69 c 1,6,-1
 271 0 l 1,7,8
 239 -6 239 -6 203 -6 c 259,9,10
 149 -6 149 -6 126 10.5 c 128,-1,11
 103 27 103 27 103 70 c 259,12,13
 103 99 103 99 114 152 c 2,14,-1
 178 451 l 1,15,-1
 114 451 l 1,16,-1
 128 518 l 1,17,-1
 192 518 l 1,18,-1
 220 647 l 1,19,-1
 320 700 l 1,20,-1
 281 518 l 1,21,-1
 368 518 l 1,22,-1
 354 451 l 1,23,-1
 267 451 l 1,24,-1
 202 147 l 2,0,1
EndSplineSet
EndChar

StartChar: u
Encoding: 117 117 86
Width: 556
VWidth: 2048
Flags: W
HStem: -12 72<206.857 333.532> 0 21G<395 488.247> 498 20G<169.75 263 500.74 594>
VStem: 95 95<78.0781 248.469> 174 89<429 518> 505 89<429 518>
DStem2: 61.3631 -12 150.349 -12 0.207912 0.978148<176.529 541.837> 392.449 -12 481.449 -12 0.207912 0.978148<30.7722 90.912 129.755 541.819>
LayerCount: 3
Fore
SplineSet
272 60 m 3xb4
 382 60 423 133 446 241 c 2
 505 518 l 1
 594 518 l 1
 484 0 l 1
 395 0 l 1x74
 411 77 l 1
 369 17 308 -12 238 -12 c 3
 138 -12 95 28 95 112 c 3xb4
 95 137 99 165 106 198 c 2
 174 518 l 1
 263 518 l 1xac
 202 231 l 2
 194 194 190 164 190 140 c 3
 190 85 213 60 272 60 c 3xb4
EndSplineSet
Layer: 2
SplineSet
272 60 m 259,0,1
 349 60 349 60 388 106 c 128,-1,2
 427 152 427 152 446 241 c 2,3,-1
 505 518 l 1,4,-1
 594 518 l 1,5,-1
 484 0 l 1,6,-1
 395 0 l 1,7,-1
 411 77 l 1,8,9
 349 -12 349 -12 238 -12 c 259,10,11
 164 -12 164 -12 129.5 18 c 128,-1,12
 95 48 95 48 95 112 c 259,13,14
 95 146 95 146 106 198 c 2,15,-1
 174 518 l 1,16,-1
 263 518 l 1,17,-1
 202 231 l 2,18,19
 190 175 190 175 190 140 c 259,20,21
 190 98 190 98 209 79 c 128,-1,22
 228 60 228 60 272 60 c 259,0,1
EndSplineSet
EndChar

StartChar: v
Encoding: 118 118 87
Width: 499
VWidth: 2048
Flags: W
HStem: 0 21G<206.602 302.892> 498 20G<122 218.95 497.3 599>
VStem: 122 94<424 518> 509 90<428 518>
DStem2: 216 518 122 518 0.167485 -0.985875<0 404.231> 275 118 291 0 0.511075 0.859536<0 463.406>
LayerCount: 3
Fore
SplineSet
210 0 m 1
 122 518 l 1
 216 518 l 1
 275 118 l 1
 509 518 l 1
 599 518 l 1
 291 0 l 1
 210 0 l 1
EndSplineSet
Validated: 1
Layer: 2
SplineSet
210 0 m 1,0,-1
 122 518 l 1,1,-1
 216 518 l 1,2,-1
 275 118 l 1,3,-1
 509 518 l 1,4,-1
 599 518 l 1,5,-1
 291 0 l 1,6,-1
 210 0 l 1,0,-1
EndSplineSet
EndChar

StartChar: w
Encoding: 119 119 88
Width: 721
VWidth: 2048
Flags: W
HStem: 0 21G<159.147 263.524 460.148 562.502> 498 20G<113 205.265 417.414 518.905 729.749 824>
VStem: 113 91<427 518> 444 74<363.222 399> 461 75<120 164.294>
DStem2: 204 518 113 518 0.0922688 -0.995734<0 411.646> 230 107 254 0 0.432232 0.901763<0 355.812> 536 120 552 0 0.464901 0.885363<0 447.214>
LayerCount: 3
Fore
SplineSet
161 0 m 1xf0
 113 518 l 1
 204 518 l 1
 230 107 l 1
 427 518 l 1
 518 518 l 1xf0
 536 120 l 1
 740 518 l 1
 824 518 l 1
 552 0 l 1
 461 0 l 1xe8
 444 399 l 1
 254 0 l 1
 161 0 l 1xf0
EndSplineSet
Validated: 1
Layer: 2
SplineSet
161 0 m 1,0,-1
 113 518 l 1,1,-1
 204 518 l 1,2,-1
 230 107 l 1,3,-1
 427 518 l 1,4,-1
 518 518 l 1,5,-1
 536 120 l 1,6,-1
 740 518 l 1,7,-1
 824 518 l 1,8,-1
 552 0 l 1,9,-1
 461 0 l 1,10,-1
 444 399 l 1,11,-1
 254 0 l 1,12,-1
 161 0 l 1,0,-1
EndSplineSet
EndChar

StartChar: x
Encoding: 120 120 89
Width: 499
VWidth: 2048
Flags: W
HStem: 0 21G<8 131.342 375.155 494> 498 20G<131 251.767 465.628 588>
VStem: 8 105<0 105> 484 104<414 518>
DStem2: 8 0 113 0 0.676625 0.736328<71.0457 332.92 469.936 703.491> 242 518 131 518 0.440267 -0.897867<0 191.416 312.94 528.053>
LayerCount: 3
Fore
SplineSet
8 0 m 1
 254 268 l 1
 131 518 l 1
 242 518 l 1
 326 346 l 1
 484 518 l 1
 588 518 l 1
 362 271 l 1
 494 0 l 1
 385 0 l 1
 290 193 l 1
 113 0 l 1
 8 0 l 1
EndSplineSet
Validated: 1
Layer: 2
SplineSet
8 0 m 1,0,-1
 254 268 l 1,1,-1
 131 518 l 1,2,-1
 242 518 l 1,3,-1
 326 346 l 1,4,-1
 484 518 l 1,5,-1
 588 518 l 1,6,-1
 362 271 l 1,7,-1
 494 0 l 1,8,-1
 385 0 l 1,9,-1
 290 193 l 1,10,-1
 113 0 l 1,11,-1
 8 0 l 1,0,-1
EndSplineSet
EndChar

StartChar: y
Encoding: 121 121 90
Width: 499
VWidth: 2048
Flags: W
HStem: -210 72<24.2126 134.749> 498 20G<127 223.077 501.477 602>
VStem: 127 93<425 518> 513 89<429 518>
DStem2: 220 518 127 518 0.163781 -0.986497<0 421.943> 164 -83 292 -9 0.50217 0.864769<-65.7008 96.3822 215.36 694.983>
LayerCount: 3
Fore
SplineSet
21 -199 m 1
 24 -130 l 1
 43 -135 58 -138 74 -138 c 3
 114 -138 147 -112 164 -83 c 2
 213 0 l 1
 127 518 l 1
 220 518 l 1
 266 219 l 2
 273 175 276 135 277 98 c 1
 297 138 317 177 339 216 c 2
 513 518 l 1
 602 518 l 1
 292 -9 l 2
 201 -163 152 -210 75 -210 c 3
 58 -210 39 -207 21 -199 c 1
EndSplineSet
Layer: 2
SplineSet
21 -199 m 1,0,-1
 24 -130 l 1,1,2
 54 -138 54 -138 74 -138 c 259,3,4
 102 -138 102 -138 126 -122 c 128,-1,5
 150 -106 150 -106 164 -83 c 2,6,-1
 213 0 l 1,7,-1
 127 518 l 1,8,-1
 220 518 l 1,9,-1
 266 219 l 2,10,11
 275 160 275 160 277 98 c 1,12,13
 313 169 313 169 339 216 c 2,14,-1
 513 518 l 1,15,-1
 602 518 l 1,16,-1
 292 -9 l 2,17,18
 223 -125 223 -125 177.5 -167.5 c 128,-1,19
 132 -210 132 -210 75 -210 c 259,20,21
 46 -210 46 -210 21 -199 c 1,0,-1
EndSplineSet
EndChar

StartChar: z
Encoding: 122 122 91
Width: 499
VWidth: 2048
Flags: W
HStem: 0 72<139.921 478> 446 72<148 442>
DStem2: 35 71 138 68 0.732608 0.68065<73.4167 555.457>
LayerCount: 3
Fore
SplineSet
20 0 m 1
 35 71 l 1
 442 449 l 1
 406 447 374 446 346 446 c 2
 133 446 l 1
 148 518 l 1
 573 518 l 1
 561 461 l 1
 138 68 l 1
 179 71 219 72 254 72 c 2
 493 72 l 1
 478 0 l 1
 20 0 l 1
EndSplineSet
Validated: 1
Layer: 2
SplineSet
20 0 m 1,0,-1
 35 71 l 1,1,-1
 442 449 l 1,2,3
 388 446 388 446 346 446 c 2,4,-1
 133 446 l 1,5,-1
 148 518 l 1,6,-1
 573 518 l 1,7,-1
 561 461 l 1,8,-1
 138 68 l 1,9,10
 193 72 193 72 254 72 c 2,11,-1
 493 72 l 1,12,-1
 478 0 l 1,13,-1
 20 0 l 1,0,-1
EndSplineSet
EndChar

StartChar: braceleft
Encoding: 123 123 92
Width: 334
VWidth: 2048
Flags: W
HStem: -210 77<205.365 266> 219 80<92 126.831> 651 77<362.177 449>
VStem: 111 90<-127.275 7.28491> 149 82<-15.4754 198.058>
DStem2: 85.0348 -210 167.286 -210 0.207912 0.978148<147.536 339.127 580.352 886.445>
CounterMasks: 1 e0
LayerCount: 3
Fore
SplineSet
75 219 m 1xe8
 92 299 l 1
 158 300 202 354 228 460 c 2
 267 621 l 2
 285 694 355 728 439 728 c 2
 466 728 l 1
 449 651 l 1
 434 651 l 2
 359 651 348 639 314 480 c 0
 288 359 239 287 164 259 c 1
 209 239 231 197 231 131 c 3xe8
 231 104 227 73 220 38 c 0
 207 -21 201 -60 201 -85 c 3
 201 -128 221 -133 268 -133 c 2
 283 -133 l 1
 266 -210 l 1
 239 -210 l 2
 163 -210 111 -182 111 -124 c 3xf0
 111 -117 112 -110 113 -103 c 2
 142 58 l 2
 147 83 149 105 149 124 c 3
 149 186 125 218 75 219 c 1xe8
EndSplineSet
Layer: 2
SplineSet
75 219 m 1,0,-1
 92 299 l 1,1,2
 189 300 189 300 228 460 c 2,3,-1
 267 621 l 2,4,5
 280 674 280 674 326.5 701 c 128,-1,6
 373 728 373 728 439 728 c 2,7,-1
 466 728 l 1,8,-1
 449 651 l 1,9,-1
 434 651 l 2,10,11
 403 651 403 651 388 647.5 c 128,-1,12
 373 644 373 644 359 624.5 c 128,-1,13
 345 605 345 605 336.5 574.5 c 128,-1,14
 328 544 328 544 314 480 c 0,15,16
 275 301 275 301 164 259 c 1,17,18
 231 229 231 229 231 131 c 259,19,20
 231 93 231 93 220 38 c 0,21,22
 201 -48 201 -48 201 -85 c 259,23,24
 201 -115 201 -115 215.5 -124 c 128,-1,25
 230 -133 230 -133 268 -133 c 2,26,-1
 283 -133 l 1,27,-1
 266 -210 l 1,28,-1
 239 -210 l 2,29,30
 180 -210 180 -210 145.5 -188 c 128,-1,31
 111 -166 111 -166 111 -124 c 259,32,33
 111 -117 111 -117 113 -103 c 2,34,-1
 142 58 l 2,35,36
 149 93 149 93 149 124 c 259,37,38
 149 218 149 218 75 219 c 1,0,-1
EndSplineSet
EndChar

StartChar: bar
Encoding: 124 124 93
Width: 259
VWidth: 2048
Flags: W
HStem: -210 21G<47 128.264> 708 20G<242.736 324>
VStem: 47 77<-210 -133> 247 77<651 728>
DStem2: 47 -210 124 -210 0.207912 0.978148<16.0092 959.085>
LayerCount: 3
Fore
SplineSet
47 -210 m 1
 247 728 l 1
 324 728 l 1
 124 -210 l 1
 47 -210 l 1
EndSplineSet
Validated: 1
Layer: 2
SplineSet
47 -210 m 1,0,-1
 247 728 l 1,1,-1
 324 728 l 1,2,-1
 124 -210 l 1,3,-1
 47 -210 l 1,0,-1
EndSplineSet
EndChar

StartChar: braceright
Encoding: 125 125 94
Width: 334
VWidth: 2048
Flags: W
HStem: -210 77<-4 82.8231> 219 80<319.077 354> 651 77<179 239.76>
VStem: 214 82<320.631 531.134> 245 89<510.715 645.031>
DStem2: 78.286 -210 155.256 -210 0.207912 0.978148<89.622 393.888 636.94 828.738>
CounterMasks: 1 e0
LayerCount: 3
Fore
SplineSet
354 219 m 1xf0
 288 218 243 164 217 58 c 2
 178 -103 l 2
 160 -176 90 -210 6 -210 c 2
 -21 -210 l 1
 -4 -133 l 1
 11 -133 l 2
 86 -133 97 -121 131 38 c 0
 157 159 206 231 281 259 c 1
 236 279 214 321 214 387 c 3xf0
 214 414 218 445 225 480 c 0
 238 539 245 578 245 603 c 3
 245 646 224 651 177 651 c 2
 162 651 l 1
 179 728 l 1
 206 728 l 2
 282 728 334 700 334 642 c 3xe8
 334 635 333 628 332 621 c 2
 303 460 l 2
 298 435 296 413 296 394 c 3
 296 332 321 300 371 299 c 1
 354 219 l 1xf0
EndSplineSet
Layer: 2
SplineSet
354 219 m 1,0,1
 256 218 256 218 217 58 c 2,2,-1
 178 -103 l 2,3,4
 165 -156 165 -156 118.5 -183 c 128,-1,5
 72 -210 72 -210 6 -210 c 2,6,-1
 -21 -210 l 1,7,-1
 -4 -133 l 1,8,-1
 11 -133 l 2,9,10
 42 -133 42 -133 57 -129.5 c 128,-1,11
 72 -126 72 -126 86 -106.5 c 128,-1,12
 100 -87 100 -87 108.5 -56.5 c 128,-1,13
 117 -26 117 -26 131 38 c 0,14,15
 170 217 170 217 281 259 c 1,16,17
 214 289 214 289 214 387 c 259,18,19
 214 425 214 425 225 480 c 0,20,21
 245 571 245 571 245 603 c 259,22,23
 245 633 245 633 230 642 c 128,-1,24
 215 651 215 651 177 651 c 2,25,-1
 162 651 l 1,26,-1
 179 728 l 1,27,-1
 206 728 l 2,28,29
 265 728 265 728 299.5 706 c 128,-1,30
 334 684 334 684 334 642 c 259,31,32
 334 635 334 635 332 621 c 2,33,-1
 303 460 l 2,34,35
 296 425 296 425 296 394 c 259,36,37
 296 300 296 300 371 299 c 1,38,-1
 354 219 l 1,0,1
EndSplineSet
EndChar

StartChar: asciitilde
Encoding: 126 126 95
Width: 583
VWidth: 2048
Flags: W
HStem: 281 84<418.311 559.722> 347 84<177.118 325.15>
LayerCount: 3
Fore
SplineSet
468 281 m 3x80
 426 281 387 298 350 315 c 0
 314 331 271 347 244 347 c 3x40
 204 347 158 324 103 281 c 1x80
 122 372 l 1
 164 411 215 431 270 431 c 3x40
 307 431 354 415 392 398 c 0
 429 382 470 365 493 365 c 3
 538 365 584 388 635 432 c 1
 614 336 l 1
 566 299 518 281 468 281 c 3x80
EndSplineSet
Layer: 2
SplineSet
468 281 m 259,0,1
 424 281 424 281 350 315 c 0,2,3
 278 347 278 347 244 347 c 259,4,5
 187 347 187 347 103 281 c 1,6,-1
 122 372 l 1,7,8
 186 431 186 431 270 431 c 259,9,10
 318 431 318 431 392 398 c 0,11,12
 468 365 468 365 493 365 c 259,13,14
 557 365 557 365 635 432 c 1,15,-1
 614 336 l 1,16,17
 543 281 543 281 468 281 c 259,0,1
EndSplineSet
EndChar

StartChar: ellipsis
Encoding: 8230 8230 100
Width: 570
VWidth: 2048
Flags: W
HStem: 0 118<84.9096 167.566 271.91 354.566 460.184 542.811>
VStem: 65 122<19.2017 97.75> 252 122<19.2017 97.75> 441 121<19.2017 98.9739>
LayerCount: 3
Fore
SplineSet
489 0 m 3
 457 0 441 14 441 40 c 3
 441 90 471 118 514 118 c 3
 545 118 562 104 562 77 c 3
 562 28 532 0 489 0 c 3
300 0 m 3
 268 0 252 14 252 40 c 3
 252 90 284 118 325 118 c 3
 357 118 374 104 374 77 c 3
 374 28 344 0 300 0 c 3
113 0 m 3
 81 0 65 14 65 40 c 3
 65 90 97 118 138 118 c 3
 170 118 187 104 187 77 c 3
 187 28 157 0 113 0 c 3
EndSplineSet
Layer: 2
SplineSet
489 0 m 259,0,1
 441 0 441 0 441 40 c 259,2,3
 441 77 441 77 461 97.5 c 128,-1,4
 481 118 481 118 514 118 c 259,5,6
 562 118 562 118 562 77 c 259,7,8
 562 41 562 41 542 20.5 c 128,-1,9
 522 0 522 0 489 0 c 259,0,1
300 0 m 259,10,11
 252 0 252 0 252 40 c 259,12,13
 252 76 252 76 272.5 97 c 128,-1,14
 293 118 293 118 325 118 c 259,15,16
 374 118 374 118 374 77 c 259,17,18
 374 41 374 41 354 20.5 c 128,-1,19
 334 0 334 0 300 0 c 259,10,11
113 0 m 259,20,21
 65 0 65 0 65 40 c 259,22,23
 65 76 65 76 85.5 97 c 128,-1,24
 106 118 106 118 138 118 c 259,25,26
 187 118 187 118 187 77 c 259,27,28
 187 41 187 41 167 20.5 c 128,-1,29
 147 0 147 0 113 0 c 259,20,21
EndSplineSet
EndChar

StartChar: uni0E48.low_left
Encoding: 63237 63237 101
Width: 0
Flags: W
HStem: 665 222<-99 -78>
VStem: -147 69<665 734> -99 69<818 887>
DStem2: -147 665 -78 665 0.207912 0.978148<14.3459 227.129>
LayerCount: 3
Back
SplineSet
-106 665 m 1
 -175 665 l 1
 -127 887 l 1
 -58 887 l 1
 -106 665 l 1
EndSplineSet
Fore
Refer: 106 63242 N 1 0 0 1 -99 0 2
Validated: 1
Layer: 2
Refer: 106 63242 N 1 0 0 1 -99 0 2
EndChar

StartChar: uni0E49.low_left
Encoding: 63238 63238 102
Width: 0
Flags: W
HStem: 798 42<-347.074 -296.5> 932 43<-336.985 -257.06>
VStem: -399 49<843.399 918.123> -255 47<853.158 928.939>
LayerCount: 3
Back
SplineSet
-15 796 m 1
 -15 796 l 0
 -51 757 -86 727 -161 696 c 0
 -213 674 -259 667 -297 667 c 0
 -317 667 -334 668 -351 671 c 1
 -336 679 -320 693 -308 707 c 0
 -299 717 -284 733 -282 740 c 1
 -288 740 -293 739 -297 739 c 0
 -325 739 -340 750 -354 766 c 0
 -360 774 -363 785 -363 797 c 0
 -363 838 -331 892 -274 900 c 0
 -267 901 -261 901 -254 901 c 0
 -205 901 -190 868 -190 835 c 0
 -190 831 -190 828 -190 823 c 0
 -196 768 -244 717 -247 717 c 0
 -199 727 -169 740 -127 768 c 0
 -69 803 -38 832 5 891 c 1
 -15 796 l 1
-285 777 m 0
 -253 777 -235 805 -235 829 c 0
 -235 846 -245 861 -268 861 c 0
 -300 861 -320 834 -320 811 c 0
 -320 792 -310 777 -285 777 c 0
EndSplineSet
Fore
Refer: 107 63243 N 1 0 0 1 -199 0 2
Layer: 2
Refer: 107 63243 N 1 0 0 1 -199 0 2
EndChar

StartChar: uni0E4C.low_left
Encoding: 63241 63241 105
Width: 0
Flags: W
HStem: 667 43<-169.272 -91.4045> 802 41<-159.901 -84.1135>
VStem: -238 65<712.972 815.765> -80 47<721.214 798.196>
LayerCount: 3
Back
SplineSet
67 972 m 1
 67 972 l 0
 61 960 54 917 -3 889 c 0
 -71 855 -143 877 -201 851 c 0
 -231 837 -238 812 -241 809 c 1
 -224 820 -213 826 -185 826 c 0
 -150 826 -124 802 -124 766 c 0
 -124 760 -124 756 -126 750 c 0
 -136 699 -179 670 -224 668 c 0
 -228 668 l 0
 -281 668 -308 707 -308 754 c 0
 -308 773 -303 792 -294 812 c 0
 -258 891 -192 912 -90 912 c 0
 -11 912 -8 969 -2 972 c 1
 67 972 l 1
-218 707 m 0
 -187 707 -167 733 -167 756 c 0
 -167 774 -178 789 -202 789 c 0
 -233 789 -251 762 -251 739 c 0
 -251 722 -241 707 -218 707 c 0
EndSplineSet
Fore
Refer: 110 63246 S 1 0 0 1 -99 0 2
Layer: 2
Refer: 110 63246 N 1 0 0 1 -99 0 2
EndChar

StartChar: uni0E48.low
Encoding: 63242 63242 106
Width: 0
Flags: W
HStem: 665 222<0 21>
VStem: -48 69<665 734> -0 69<818 887>
DStem2: -48 665 21 665 0.207912 0.978148<14.3459 227.129>
AnchorPoint: "AboveMark" 56 988 basemark 0
AnchorPoint: "AboveBase" 27 659 mark 0
LayerCount: 3
Fore
SplineSet
21 665 m 1xc0
 -48 665 l 1xc0
 -0 887 l 1
 69 887 l 1xa0
 21 665 l 1xc0
EndSplineSet
Validated: 1
Layer: 2
SplineSet
21 665 m 1,0,-1
 -48 665 l 1,1,-1
 -0 887 l 1,2,-1
 69 887 l 1,3,-1
 21 665 l 1,0,-1
EndSplineSet
Substitution2: "Thai Phinthu Mai Ek Reordering" uni0E3A
EndChar

StartChar: uni0E49.low
Encoding: 63243 63243 107
Width: 0
Flags: W
HStem: 798 42<-148.074 -97.5> 932 43<-137.985 -58.06>
VStem: -200 49<843.399 918.123> -56 47<853.158 928.939>
AnchorPoint: "AboveMark" 19 988 basemark 0
AnchorPoint: "AboveBase" 127 659 mark 0
LayerCount: 3
Fore
SplineSet
177 820 m 1
 112 739 1 686 -116 686 c 3
 -155 686 -190 692 -215 705 c 1
 -178 723 -126 773 -114 799 c 1
 -119 798 -124 798 -129 798 c 3
 -172 798 -200 827 -200 866 c 3
 -200 930 -143 975 -80 975 c 3
 -34 975 -9 947 -9 904 c 3
 -9 854 -40 801 -93 742 c 1
 27 752 122 813 200 926 c 1
 177 820 l 1
-112 840 m 3
 -83 840 -56 864 -56 898 c 3
 -56 919 -70 932 -93 932 c 3
 -122 932 -151 909 -151 875 c 3
 -151 854 -135 840 -112 840 c 3
EndSplineSet
Layer: 2
SplineSet
177 820 m 1,0,1
 128 759 128 759 49.5 722.5 c 128,-1,2
 -29 686 -29 686 -116 686 c 259,3,4
 -178 686 -178 686 -215 705 c 1,5,6
 -188 718 -188 718 -155.5 748.5 c 128,-1,7
 -123 779 -123 779 -114 799 c 1,8,9
 -119 798 -119 798 -129 798 c 259,10,11
 -161 798 -161 798 -180.5 817 c 128,-1,12
 -200 836 -200 836 -200 866 c 259,13,14
 -200 913 -200 913 -164.5 944 c 128,-1,15
 -129 975 -129 975 -80 975 c 259,16,17
 -46 975 -46 975 -27.5 956 c 128,-1,18
 -9 937 -9 937 -9 904 c 259,19,20
 -9 836 -9 836 -93 742 c 1,21,22
 -6 749 -6 749 66.5 793.5 c 128,-1,23
 139 838 139 838 200 926 c 1,24,-1
 177 820 l 1,0,1
-112 840 m 259,25,26
 -90 840 -90 840 -73 856.5 c 128,-1,27
 -56 873 -56 873 -56 898 c 259,28,29
 -56 914 -56 914 -65.5 923 c 128,-1,30
 -75 932 -75 932 -93 932 c 259,31,32
 -116 932 -116 932 -133.5 916 c 128,-1,33
 -151 900 -151 900 -151 875 c 259,34,35
 -151 859 -151 859 -140 849.5 c 128,-1,36
 -129 840 -129 840 -112 840 c 259,25,26
EndSplineSet
Substitution2: "Thai Phinthu Mai Tho Reordering" uni0E3A
EndChar

StartChar: uni0E4A.low
Encoding: 63244 63244 108
Width: 0
Flags: W
HStem: 661 32<-182.969 -130.575> 753 32<-176.43 -124.202> 835 46<-162.162 -73.0333 -48.4265 20.5062>
VStem: -236 52<693.24 781.275> -123 35<699.175 751.993> 24 56<738.741 831.709>
AnchorPoint: "AboveMark" -33 988 basemark 0
AnchorPoint: "AboveBase" 127 659 mark 0
LayerCount: 3
Fore
SplineSet
15 881 m 3
 54 881 80 852 80 811 c 3
 80 771 60 737 35 705 c 1
 103 738 144 795 161 874 c 1
 202 831 l 1
 158 729 71 665 -32 665 c 2
 -48 665 l 1
 -12 688 24 743 24 792 c 3
 24 819 11 835 -13 835 c 3
 -33 835 -59 824 -70 809 c 1
 -76 820 -101 832 -119 832 c 3
 -151 832 -176 808 -184 771 c 1
 -168 780 -150 785 -133 785 c 3
 -106 785 -88 766 -88 740 c 3
 -88 693 -128 661 -170 661 c 3
 -211 661 -236 692 -236 738 c 3
 -236 820 -177 881 -119 881 c 3
 -93 881 -72 867 -64 845 c 1
 -43 868 -15 881 15 881 c 3
-147 753 m 3
 -165 753 -184 737 -184 716 c 3
 -184 702 -175 693 -160 693 c 3
 -142 693 -123 709 -123 730 c 3
 -123 744 -132 753 -147 753 c 3
EndSplineSet
Layer: 2
SplineSet
15 881 m 259,0,1
 44 881 44 881 62 861.5 c 128,-1,2
 80 842 80 842 80 811 c 259,3,4
 80 763 80 763 35 705 c 1,5,6
 135 754 135 754 161 874 c 1,7,-1
 202 831 l 1,8,9
 169 754 169 754 107 709.5 c 128,-1,10
 45 665 45 665 -32 665 c 2,11,-1
 -48 665 l 1,12,13
 -20 683 -20 683 2 720 c 128,-1,14
 24 757 24 757 24 792 c 259,15,16
 24 835 24 835 -13 835 c 259,17,18
 -28 835 -28 835 -45 827.5 c 128,-1,19
 -62 820 -62 820 -70 809 c 1,20,21
 -75 817 -75 817 -90.5 824.5 c 128,-1,22
 -106 832 -106 832 -119 832 c 259,23,24
 -143 832 -143 832 -160.5 815.5 c 128,-1,25
 -178 799 -178 799 -184 771 c 1,26,27
 -159 785 -159 785 -133 785 c 259,28,29
 -113 785 -113 785 -100.5 772.5 c 128,-1,30
 -88 760 -88 760 -88 740 c 259,31,32
 -88 706 -88 706 -112.5 683.5 c 128,-1,33
 -137 661 -137 661 -170 661 c 259,34,35
 -200 661 -200 661 -218 682 c 128,-1,36
 -236 703 -236 703 -236 738 c 259,37,38
 -236 798 -236 798 -200 839.5 c 128,-1,39
 -164 881 -164 881 -119 881 c 259,40,41
 -77 881 -77 881 -64 845 c 1,42,43
 -31 881 -31 881 15 881 c 259,0,1
-147 753 m 259,44,45
 -161 753 -161 753 -172.5 742 c 128,-1,46
 -184 731 -184 731 -184 716 c 259,47,48
 -184 693 -184 693 -160 693 c 259,49,50
 -146 693 -146 693 -134.5 704 c 128,-1,51
 -123 715 -123 715 -123 730 c 259,52,53
 -123 753 -123 753 -147 753 c 259,44,45
EndSplineSet
Substitution2: "Thai Phinthu Mai Tri Reordering" uni0E3A
EndChar

StartChar: uni0E4B.low
Encoding: 63245 63245 109
Width: 0
Flags: W
HStem: 752 66<-93 -25 58 126>
VStem: -43 69<668 737> 7 69<833 902>
DStem2: -43 668 26 668 0.207912 0.978148<14.3459 85.9068 167.721 239.282>
AnchorPoint: "AboveMark" 60 988 basemark 0
AnchorPoint: "AboveBase" 127 659 mark 0
LayerCount: 3
Fore
SplineSet
140 818 m 1xa0
 126 752 l 1
 44 752 l 1
 26 668 l 1
 -43 668 l 1xc0
 -25 752 l 1
 -107 752 l 1
 -93 818 l 1
 -11 818 l 1
 7 902 l 1
 76 902 l 1
 58 818 l 1
 140 818 l 1xa0
EndSplineSet
Validated: 1
Layer: 2
SplineSet
140 818 m 1,0,-1
 126 752 l 1,1,-1
 44 752 l 1,2,-1
 26 668 l 1,3,-1
 -43 668 l 1,4,-1
 -25 752 l 1,5,-1
 -107 752 l 1,6,-1
 -93 818 l 1,7,-1
 -11 818 l 1,8,-1
 7 902 l 1,9,-1
 76 902 l 1,10,-1
 58 818 l 1,11,-1
 140 818 l 1,0,-1
EndSplineSet
Substitution2: "Thai Phinthu Mai Chattawa Reordering" uni0E3A
EndChar

StartChar: uni0E4C.low
Encoding: 63246 63246 110
Width: 0
Flags: W
HStem: 667 43<-70.2715 7.5955> 802 41<-60.9006 14.8865>
VStem: -139 65<712.972 815.765> 19 47<721.214 798.196>
AnchorPoint: "AboveMark" 23 988 basemark 0
AnchorPoint: "AboveBase" 27 659 mark 0
LayerCount: 3
Fore
SplineSet
-47 667 m 3
 -103 667 -139 707 -139 762 c 3
 -139 815 -113 859 -80 887 c 0
 -39 922 24 939 105 940 c 0
 160 941 187 960 203 1006 c 1
 278 1006 l 1
 256 930 198 895 87 889 c 0
 -10 884 -42 870 -63 825 c 1
 -43 837 -24 843 -2 843 c 3
 40 843 66 816 66 777 c 3
 66 714 10 667 -47 667 c 3
-74 746 m 3
 -74 725 -60 710 -38 710 c 3
 -10 710 19 728 19 765 c 3
 19 786 3 802 -19 802 c 3
 -47 802 -74 779 -74 746 c 3
EndSplineSet
Layer: 2
SplineSet
-47 667 m 259,0,1
 -89 667 -89 667 -114 693.5 c 128,-1,2
 -139 720 -139 720 -139 762 c 259,3,4
 -139 837 -139 837 -80 887 c 0,5,6
 -20 938 -20 938 105 940 c 0,7,8
 146 941 146 941 168.5 956 c 128,-1,9
 191 971 191 971 203 1006 c 1,10,-1
 278 1006 l 1,11,12
 262 949 262 949 216 921.5 c 128,-1,13
 170 894 170 894 87 889 c 0,14,15
 14 885 14 885 -16.5 872 c 128,-1,16
 -47 859 -47 859 -63 825 c 1,17,18
 -33 843 -33 843 -2 843 c 259,19,20
 29 843 29 843 47.5 825 c 128,-1,21
 66 807 66 807 66 777 c 259,22,23
 66 731 66 731 31.5 699 c 128,-1,24
 -3 667 -3 667 -47 667 c 259,0,1
-74 746 m 259,25,26
 -74 730 -74 730 -64 720 c 128,-1,27
 -54 710 -54 710 -38 710 c 259,28,29
 -15 710 -15 710 2 724.5 c 128,-1,30
 19 739 19 739 19 765 c 259,31,32
 19 781 19 781 8 791.5 c 128,-1,33
 -3 802 -3 802 -19 802 c 259,34,35
 -41 802 -41 802 -57.5 786 c 128,-1,36
 -74 770 -74 770 -74 746 c 259,25,26
EndSplineSet
Substitution2: "Thai Phinthu Thanthakhat Reordering" uni0E3A
EndChar

StartChar: uni0E0D.descless
Encoding: 63247 63247 111
Width: 800
Flags: W
HStem: -3 50<163.275 243.243> 0 61<366 408 477 641.78> 138 50<191.572 252.406> 532 61<262.594 465.478>
VStem: 101 59<50.3736 125.063> 255 52<59.2367 134.687> 492 71<365.172 507.145> 752 69<521 590>
DStem2: 82.1067 -3 151.677 -3 0.207912 0.978148<203.598 407.792> 394.396 -3 463.396 -3 0.207912 0.978148<79.7757 475.834> 626.682 -3 694.933 -3 0.207912 0.978148<63.2366 606.097>
LayerCount: 3
Fore
SplineSet
603 61 m 2x7f
 628 61 643 75 649 102 c 2
 752 590 l 1
 821 590 l 1
 713 82 l 2
 702 32 666 0 615 0 c 2
 353 0 l 1
 366 61 l 1
 408 61 l 1x7f
 490 445 l 2
 491 451 492 457 492 463 c 3
 492 509 447 532 363 532 c 3
 312 532 266 519 235 501 c 1
 266 491 301 465 344 423 c 1
 275 410 230 368 217 308 c 2
 191 182 l 1
 202 186 217 188 229 188 c 3
 277 188 307 162 307 119 c 3
 307 48 248 -3 183 -3 c 3xbf
 129 -3 101 25 101 71 c 3
 101 80 102 90 104 100 c 2
 151 322 l 2
 160 364 192 404 232 426 c 1
 212 450 158 480 110 487 c 1
 190 556 295 593 400 593 c 3
 501 593 563 550 563 478 c 3
 563 468 561 459 559 448 c 2
 477 61 l 1
 603 61 l 2x7f
198 47 m 3xbf
 231 47 255 73 255 103 c 3
 255 121 243 138 217 138 c 3
 184 138 160 112 160 83 c 3
 160 64 172 47 198 47 c 3xbf
EndSplineSet
Layer: 2
SplineSet
603 61 m 2,0,1
 640 61 640 61 649 102 c 2,2,-1
 752 590 l 1,3,-1
 821 590 l 1,4,-1
 713 82 l 2,5,6
 705 44 705 44 679 22 c 128,-1,7
 653 0 653 0 615 0 c 2,8,-1
 353 0 l 1,9,-1
 366 61 l 1,10,-1
 408 61 l 1,11,-1
 490 445 l 2,12,13
 492 457 492 457 492 463 c 259,14,15
 492 495 492 495 462 513.5 c 128,-1,16
 432 532 432 532 363 532 c 259,17,18
 288 532 288 532 235 501 c 1,19,20
 279 487 279 487 344 423 c 1,21,22
 289 413 289 413 258 383.5 c 128,-1,23
 227 354 227 354 217 308 c 2,24,-1
 191 182 l 1,25,26
 208 188 208 188 229 188 c 259,27,28
 265 188 265 188 286 169.5 c 128,-1,29
 307 151 307 151 307 119 c 259,30,31
 307 67 307 67 270 32 c 128,-1,32
 233 -3 233 -3 183 -3 c 259,33,34
 143 -3 143 -3 122 16.5 c 128,-1,35
 101 36 101 36 101 71 c 259,36,37
 101 85 101 85 104 100 c 2,38,-1
 151 322 l 2,39,40
 158 353 158 353 180 381 c 128,-1,41
 202 409 202 409 232 426 c 1,42,43
 216 445 216 445 180.5 463.5 c 128,-1,44
 145 482 145 482 110 487 c 1,45,46
 233 593 233 593 400 593 c 259,47,48
 476 593 476 593 519.5 562.5 c 128,-1,49
 563 532 563 532 563 478 c 259,50,51
 563 470 563 470 559 448 c 2,52,-1
 477 61 l 1,53,-1
 603 61 l 2,0,1
198 47 m 259,54,55
 222 47 222 47 238.5 63.5 c 128,-1,56
 255 80 255 80 255 103 c 259,57,58
 255 118 255 118 245 128 c 128,-1,59
 235 138 235 138 217 138 c 259,60,61
 193 138 193 138 176.5 121.5 c 128,-1,62
 160 105 160 105 160 83 c 259,63,64
 160 68 160 68 170 57.5 c 128,-1,65
 180 47 180 47 198 47 c 259,54,55
EndSplineSet
EndChar

StartChar: quoteleft
Encoding: 8216 8216 112
Width: 268
Flags: W
HStem: 571 20G<238 258.5> 679 40<273.152 313>
VStem: 142 155<479.428 580.524>
LayerCount: 3
Fore
SplineSet
203 446 m 3
 163 446 142 469 142 509 c 3
 142 552 159 597 193 639 c 0
 230 686 272 711 322 719 c 1
 313 679 l 1
 274 671 230 626 222 589 c 1
 228 591 235 591 241 591 c 3
 276 591 297 570 297 538 c 3
 297 483 252 446 203 446 c 3
EndSplineSet
Layer: 2
SplineSet
203 446 m 259,0,1
 142 446 142 446 142 509 c 259,2,3
 142 575 142 575 193 639 c 0,4,5
 246 707 246 707 322 719 c 1,6,-1
 313 679 l 1,7,8
 284 673 284 673 256 645 c 128,-1,9
 228 617 228 617 222 589 c 1,10,11
 228 591 228 591 241 591 c 259,12,13
 267 591 267 591 282 576.5 c 128,-1,14
 297 562 297 562 297 538 c 259,15,16
 297 498 297 498 269 472 c 128,-1,17
 241 446 241 446 203 446 c 259,0,1
EndSplineSet
EndChar

StartChar: quoteright
Encoding: 8217 8217 113
Width: 278
Flags: W
HStem: 455 273
VStem: 197 157<598.471 695.102>
LayerCount: 3
Fore
SplineSet
292 728 m 3
 332 728 354 707 354 667 c 3
 354 623 336 578 301 534 c 0
 265 490 222 463 172 455 c 1
 180 495 l 1
 219 503 264 549 272 586 c 1
 266 584 258 583 252 583 c 3
 218 583 197 605 197 637 c 3
 197 692 243 728 292 728 c 3
EndSplineSet
Layer: 2
SplineSet
292 728 m 0,0,1
 354 728 354 728 354 667 c 0,2,3
 354 600 354 600 301 534 c 0,4,5
 247 467 247 467 172 455 c 1,6,-1
 180 495 l 1,7,8
 209 501 209 501 237.5 529.5 c 128,-1,9
 266 558 266 558 272 586 c 1,10,11
 263 583 263 583 252 583 c 0,12,13
 227 583 227 583 212 598 c 128,-1,14
 197 613 197 613 197 637 c 0,15,16
 197 677 197 677 225.5 702.5 c 128,-1,17
 254 728 254 728 292 728 c 0,0,1
EndSplineSet
EndChar

StartChar: bullet
Encoding: 8226 8226 116
Width: 528
Flags: W
HStem: 98 336<272.375 382.625>
VStem: 156 343<214.432 317.568>
LayerCount: 3
Fore
SplineSet
292 98 m 3
 198 98 156 158 156 227 c 3
 156 287 180 332 215 370 c 0
 251 408 301 434 363 434 c 3
 457 434 499 374 499 305 c 3
 499 245 475 200 440 162 c 0
 404 124 354 98 292 98 c 3
EndSplineSet
Layer: 2
SplineSet
292 98 m 259,0,1
 225 98 225 98 190.5 134.5 c 128,-1,2
 156 171 156 171 156 227 c 259,3,4
 156 306 156 306 215 370 c 0,5,6
 276 434 276 434 363 434 c 259,7,8
 430 434 430 434 464.5 397.5 c 128,-1,9
 499 361 499 361 499 305 c 259,10,11
 499 226 499 226 440 162 c 0,12,13
 379 98 379 98 292 98 c 259,0,1
EndSplineSet
EndChar

StartChar: endash
Encoding: 8211 8211 117
Width: 548
Flags: W
HStem: 258 68<110 578>
LayerCount: 3
Fore
SplineSet
578 258 m 1
 96 258 l 1
 110 326 l 1
 592 326 l 1
 578 258 l 1
EndSplineSet
Validated: 1
Layer: 2
SplineSet
578 258 m 1,0,-1
 96 258 l 1,1,-1
 110 326 l 1,2,-1
 592 326 l 1,3,-1
 578 258 l 1,0,-1
EndSplineSet
EndChar

StartChar: emdash
Encoding: 8212 8212 118
Width: 709
Flags: W
HStem: 258 68<110 737>
LayerCount: 3
Fore
SplineSet
737 258 m 1
 96 258 l 1
 110 326 l 1
 751 326 l 1
 737 258 l 1
EndSplineSet
Validated: 1
Layer: 2
SplineSet
737 258 m 1,0,-1
 96 258 l 1,1,-1
 110 326 l 1,2,-1
 751 326 l 1,3,-1
 737 258 l 1,0,-1
EndSplineSet
EndChar

StartChar: uni0E4C.left
Encoding: 63255 63255 126
Width: 0
Flags: W
HStem: 891 39<-79.158 -10.5069> 1012 36<-70.3614 -2.87834>
VStem: -141 59<932.215 1026.87> 1 43<939.596 1009.4>
LayerCount: 3
Back
SplineSet
153 1194 m 1
 153 1194 l 0
 149 1185 141 1143 90 1119 c 0
 31 1090 -35 1108 -89 1085 c 0
 -112 1074 -121 1052 -124 1048 c 1
 -107 1058 -100 1064 -74 1064 c 0
 -40 1064 -18 1042 -18 1009 c 0
 -18 1004 -18 998 -20 993 c 0
 -29 949 -67 921 -107 920 c 0
 -156 920 -184 956 -184 1001 c 0
 -184 1018 -179 1035 -172 1052 c 0
 -139 1119 -80 1142 12 1142 c 0
 84 1142 87 1193 92 1194 c 2
 153 1194 l 1
-103 955 m 0
 -75 955 -57 979 -57 1001 c 0
 -57 1016 -66 1030 -87 1030 c 0
 -115 1030 -133 1006 -133 984 c 0
 -133 969 -124 955 -103 955 c 0
EndSplineSet
Fore
Refer: 200 3660 N 1 0 0 1 -56 0 2
Layer: 2
Refer: 200 3660 N 1 0 0 1 -56 0 2
EndChar

StartChar: uni0E01
Encoding: 3585 3585 128
Width: 626
Flags: W
HStem: 0 21G<100 173.221 451 524.265> 532 61<295.193 508.281>
VStem: 100 69<0 69> 451 69<0 69> 543 71<341.25 499.73>
DStem2: 100 0 169 0 0.207912 0.978148<14.3459 402.759> 451 0 520 0 0.207912 0.978148<14.3459 455.013>
LayerCount: 3
Fore
SplineSet
249 426 m 1
 228 451 168 482 127 487 c 1
 210 549 312 593 417 593 c 3
 539 593 614 544 614 458 c 3
 614 447 613 435 610 422 c 2
 520 0 l 1
 451 0 l 1
 540 418 l 2
 542 428 543 438 543 446 c 3
 543 508 489 532 411 532 c 3
 358 532 309 519 264 498 c 1
 281 493 348 441 361 423 c 1
 293 411 247 368 234 308 c 2
 169 0 l 1
 100 0 l 1
 168 322 l 2
 177 365 205 397 249 426 c 1
EndSplineSet
Layer: 2
SplineSet
249 426 m 1,0,1
 233 445 233 445 195 464 c 128,-1,2
 157 483 157 483 127 487 c 1,3,4
 269 593 269 593 417 593 c 259,5,6
 509 593 509 593 561.5 557.5 c 128,-1,7
 614 522 614 522 614 458 c 259,8,9
 614 439 614 439 610 422 c 2,10,-1
 520 0 l 1,11,-1
 451 0 l 1,12,-1
 540 418 l 2,13,14
 543 433 543 433 543 446 c 259,15,16
 543 485 543 485 511.5 508.5 c 128,-1,17
 480 532 480 532 411 532 c 259,18,19
 337 532 337 532 264 498 c 1,20,21
 277 494 277 494 314 465.5 c 128,-1,22
 351 437 351 437 361 423 c 1,23,24
 310 414 310 414 277 383.5 c 128,-1,25
 244 353 244 353 234 308 c 2,26,-1
 169 0 l 1,27,-1
 100 0 l 1,28,-1
 168 322 l 2,29,30
 180 381 180 381 249 426 c 1,0,1
EndSplineSet
EndChar

StartChar: uni0E02
Encoding: 3586 3586 129
Width: 648
Flags: W
HStem: 0 61<195 269 338 469.563> 352 50<180.653 262.373> 532 61<291.511 383.877>
VStem: 128 50<405.254 482.037> 276 51<415.505 492.805> 399 70<403.155 516.4> 586 69<521 590>
DStem2: 256.034 0 325.034 0 0.207912 0.978148<76.7087 386.811> 460.556 0 529.981 0 0.207912 0.978148<66.4452 603.188>
LayerCount: 3
Fore
SplineSet
319 593 m 3
 415 593 469 549 469 480 c 3
 469 446 455 411 425 366 c 0
 406 338 391 310 387 293 c 2
 338 61 l 1
 422 61 l 2
 448 61 476 72 485 115 c 2
 586 590 l 1
 655 590 l 1
 554 113 l 2
 534 19 478 0 425 0 c 2
 182 0 l 1
 195 61 l 1
 269 61 l 1
 316 280 l 2
 324 319 339 349 357 374 c 0
 389 417 399 438 399 470 c 3
 399 512 369 532 319 532 c 3
 309 532 299 531 291 529 c 1
 314 520 327 500 327 472 c 3
 327 438 313 408 292 387 c 0
 271 366 241 352 204 352 c 3
 155 352 128 385 128 429 c 3
 128 470 145 510 181 542 c 0
 216 574 265 593 319 593 c 3
237 496 m 3
 204 496 178 469 178 438 c 3
 178 419 190 402 217 402 c 3
 250 402 276 429 276 460 c 3
 276 479 263 496 237 496 c 3
EndSplineSet
Layer: 2
SplineSet
319 593 m 259,0,1
 390 593 390 593 429.5 562.5 c 128,-1,2
 469 532 469 532 469 480 c 259,3,4
 469 432 469 432 425 366 c 0,5,6
 393 319 393 319 387 293 c 2,7,-1
 338 61 l 1,8,-1
 422 61 l 2,9,10
 474 61 474 61 485 115 c 2,11,-1
 586 590 l 1,12,-1
 655 590 l 1,13,-1
 554 113 l 2,14,15
 530 0 530 0 425 0 c 2,16,-1
 182 0 l 1,17,-1
 195 61 l 1,18,-1
 269 61 l 1,19,-1
 316 280 l 2,20,21
 327 332 327 332 357 374 c 0,22,23
 399 430 399 430 399 470 c 259,24,25
 399 500 399 500 379.5 516 c 128,-1,26
 360 532 360 532 319 532 c 259,27,28
 303 532 303 532 291 529 c 1,29,30
 327 515 327 515 327 472 c 259,31,32
 327 422 327 422 292 387 c 128,-1,33
 257 352 257 352 204 352 c 259,34,35
 168 352 168 352 148 373.5 c 128,-1,36
 128 395 128 395 128 429 c 259,37,38
 128 495 128 495 181 542 c 0,39,40
 237 593 237 593 319 593 c 259,0,1
237 496 m 259,41,42
 212 496 212 496 195 479 c 128,-1,43
 178 462 178 462 178 438 c 259,44,45
 178 423 178 423 188 412.5 c 128,-1,46
 198 402 198 402 217 402 c 259,47,48
 242 402 242 402 259 419 c 128,-1,49
 276 436 276 436 276 460 c 259,50,51
 276 475 276 475 266 485.5 c 128,-1,52
 256 496 256 496 237 496 c 259,41,42
EndSplineSet
EndChar

StartChar: uni0E03
Encoding: 3587 3587 130
Width: 677
Flags: W
HStem: 0 61<252 323 392 506.466> 260 50<182.68 263.425> 407 50<200.586 274.238> 570 20G<256 311.435 402.435 458.5 617.756 691>
VStem: 120 60<313.057 393.783> 277 51<323.995 404.511> 622 69<521 590>
DStem2: 310.034 0 379.034 0 0.207912 0.978148<76.7087 433.44> 496.769 0 565.981 0 0.207912 0.978148<64.336 603.144>
LayerCount: 3
Fore
SplineSet
459 61 m 2
 500 61 515 88 521 114 c 2
 622 590 l 1
 691 590 l 1
 590 113 l 2
 569 15 501 0 460 0 c 2
 239 0 l 1
 252 61 l 1
 323 61 l 1
 400 424 l 1
 424 444 l 2
 441 459 452 472 452 481 c 3
 452 497 436 521 420 529 c 1
 340 492 l 1
 279 529 l 1
 239 512 206 472 200 443 c 1
 215 450 231 457 245 457 c 3
 296 457 328 429 328 382 c 3
 328 316 271 260 207 260 c 3
 152 260 120 296 120 356 c 3
 120 404 138 450 162 488 c 0
 190 533 231 571 281 593 c 1
 351 547 l 1
 442 593 l 1
 475 575 515 520 524 493 c 1
 517 460 l 2
 515 452 483 426 468 417 c 1
 392 61 l 1
 459 61 l 2
218 310 m 3
 253 310 277 339 277 371 c 3
 277 391 266 407 239 407 c 3
 204 407 180 379 180 347 c 3
 180 327 191 310 218 310 c 3
EndSplineSet
Layer: 2
SplineSet
459 61 m 2,0,1
 509 61 509 61 521 114 c 2,2,-1
 622 590 l 1,3,-1
 691 590 l 1,4,-1
 590 113 l 2,5,6
 566 0 566 0 460 0 c 2,7,-1
 239 0 l 1,8,-1
 252 61 l 1,9,-1
 323 61 l 1,10,-1
 400 424 l 1,11,-1
 424 444 l 2,12,13
 452 469 452 469 452 481 c 259,14,15
 452 493 452 493 442 508 c 128,-1,16
 432 523 432 523 420 529 c 1,17,-1
 340 492 l 1,18,-1
 279 529 l 1,19,20
 250 517 250 517 227.5 491.5 c 128,-1,21
 205 466 205 466 200 443 c 1,22,23
 230 457 230 457 245 457 c 259,24,25
 283 457 283 457 305.5 437 c 128,-1,26
 328 417 328 417 328 382 c 259,27,28
 328 333 328 333 291.5 296.5 c 128,-1,29
 255 260 255 260 207 260 c 259,30,31
 166 260 166 260 143 285.5 c 128,-1,32
 120 311 120 311 120 356 c 259,33,34
 120 422 120 422 162 488 c 0,35,36
 207 560 207 560 281 593 c 1,37,-1
 351 547 l 1,38,-1
 442 593 l 1,39,40
 465 580 465 580 491 547.5 c 128,-1,41
 517 515 517 515 524 493 c 1,42,-1
 517 460 l 2,43,44
 516 454 516 454 498 439 c 128,-1,45
 480 424 480 424 468 417 c 1,46,-1
 392 61 l 1,47,-1
 459 61 l 2,0,1
218 310 m 259,48,49
 244 310 244 310 260.5 328 c 128,-1,50
 277 346 277 346 277 371 c 259,51,52
 277 407 277 407 239 407 c 259,53,54
 213 407 213 407 196.5 389.5 c 128,-1,55
 180 372 180 372 180 347 c 259,56,57
 180 310 180 310 218 310 c 259,48,49
EndSplineSet
EndChar

StartChar: uni0E04
Encoding: 3588 3588 131
Width: 613
Flags: W
HStem: 0 21G<123 196.255 432 505.232> 227 50<252.204 332.304> 371 50<262.365 342.561> 532 61<282.274 472.911>
VStem: 101 68<253.571 420.361> 123 69<0 69> 345 51<289.595 368.346> 432 69<0 69> 519 71<321.344 489.691>
DStem2: 123 0 192 0 0.207912 0.978148<14.3459 123.024> 432 0 501 0 0.207912 0.978148<14.3459 435.298>
LayerCount: 3
Fore
SplineSet
185 514 m 0xfb80
 240.324677231 563.639993848 318 593 408 593 c 3
 526 593 590 531 590 442 c 3
 590 428 588 413 585 397 c 2
 501 0 l 1
 432 0 l 1
 516 394 l 2
 518 406 519 417 519 427 c 3
 519 491 473 532 380 532 c 3
 315 532 260 508 222 467 c 0
 189 431 169 384 169 319 c 3xfb80
 169 289 174 261 180 253 c 1
 193 317 l 2
 206 376 256 421 313 421 c 3
 361 421 396 393 396 346 c 3
 396 275 333 227 278 227 c 3
 261 227 253 230 242 235 c 1
 192 0 l 1
 123 0 l 1xf780
 144 98 l 2
 146 106 147 114 147 121 c 3
 147 137 140 159 126 203 c 0
 109 254 101 293 101 329 c 3
 101 403 130.665257125 465.248223451 185 514 c 0xfb80
287 277 m 3
 321 277 345 304 345 335 c 3
 345 355 333 371 307 371 c 3
 273 371 250 344 250 312 c 3
 250 293 261 277 287 277 c 3
EndSplineSet
Layer: 2
SplineSet
185 514 m 0,0,1
 273 593 273 593 408 593 c 259,2,3
 495 593 495 593 542.5 551.5 c 128,-1,4
 590 510 590 510 590 442 c 259,5,6
 590 424 590 424 585 397 c 2,7,-1
 501 0 l 1,8,-1
 432 0 l 1,9,-1
 516 394 l 2,10,11
 519 412 519 412 519 427 c 259,12,13
 519 476 519 476 483.5 504 c 128,-1,14
 448 532 448 532 380 532 c 259,15,16
 282 532 282 532 222 467 c 0,17,18
 169 409 169 409 169 319 c 259,19,20
 169 268 169 268 180 253 c 1,21,-1
 193 317 l 2,22,23
 203 362 203 362 237 391.5 c 128,-1,24
 271 421 271 421 313 421 c 259,25,26
 350 421 350 421 373 401 c 128,-1,27
 396 381 396 381 396 346 c 259,28,29
 396 295 396 295 359 261 c 128,-1,30
 322 227 322 227 278 227 c 259,31,32
 260 227 260 227 242 235 c 1,33,-1
 192 0 l 1,34,-1
 123 0 l 1,35,-1
 144 98 l 2,36,37
 147 110 147 110 147 121 c 259,38,39
 147 137 147 137 126 203 c 0,40,41
 101 278 101 278 101 329 c 259,42,43
 101 439 101 439 185 514 c 0,0,1
287 277 m 259,44,45
 312 277 312 277 328.5 294 c 128,-1,46
 345 311 345 311 345 335 c 259,47,48
 345 371 345 371 307 371 c 259,49,50
 282 371 282 371 266 354 c 128,-1,51
 250 337 250 337 250 312 c 259,52,53
 250 277 250 277 287 277 c 259,44,45
EndSplineSet
EndChar

StartChar: uni0E05
Encoding: 3589 3589 132
Width: 591
Flags: W
HStem: 0 21G<101 175 406 479.251> 226 50<272.863 358.652> 377 50<285.729 370.784> 573 20G<278.5 342.538 429.923 488>
VStem: 79 73<200.474 408.967> 374 51<291.311 373.154> 406 69<0 69> 498 70<382.839 519.51>
DStem2: 406 0 475 0 0.207912 0.978148<14.3459 463.587>
LayerCount: 3
Fore
SplineSet
463 593 m 1xfd
 513 582 568 542 568 460 c 3
 568 446 567 431 563 414 c 2
 475 0 l 1
 406 0 l 1xfb
 493 409 l 2
 497 426 498 442 498 455 c 3
 498 496 483 521 457 535 c 1
 364 472 l 1
 295 535 l 1
 252 515 217 486 192 449 c 0
 166 411 152 368 152 312 c 3
 152 269 158 222 165 199 c 1
 165 205 168 220 170 230 c 0
 196 352 255 427 338 427 c 3
 393 427 425 397 425 350 c 3
 425 271 366 226 292 226 c 3
 269 226 252 234 237 248 c 1
 230 231 208 172 188 80 c 0
 182 54 177 29 173 0 c 1
 101 0 l 1
 105 18 107 36 107 57 c 3
 107 89 102 126 92 176 c 0
 83 222 79 258 79 289 c 3
 79 367 102 429 137 475 c 0
 176 526 236 564 321 593 c 1
 377 541 l 1
 463 593 l 1xfd
312 276 m 3
 349 276 374 306 374 339 c 3xfd
 374 360 361 377 333 377 c 3
 297 377 269 349 269 315 c 3
 269 294 283 276 312 276 c 3
EndSplineSet
Layer: 2
SplineSet
463 593 m 1,0,1
 506 584 506 584 537 550.5 c 128,-1,2
 568 517 568 517 568 460 c 259,3,4
 568 435 568 435 563 414 c 2,5,-1
 475 0 l 1,6,-1
 406 0 l 1,7,-1
 493 409 l 2,8,9
 498 430 498 430 498 455 c 259,10,11
 498 513 498 513 457 535 c 1,12,-1
 364 472 l 1,13,-1
 295 535 l 1,14,15
 230 505 230 505 192 449 c 0,16,17
 152 391 152 391 152 312 c 259,18,19
 152 242 152 242 165 199 c 1,20,21
 165 205 165 205 170 230 c 0,22,23
 190 323 190 323 233.5 375 c 128,-1,24
 277 427 277 427 338 427 c 259,25,26
 379 427 379 427 402 406.5 c 128,-1,27
 425 386 425 386 425 350 c 259,28,29
 425 292 425 292 387 259 c 128,-1,30
 349 226 349 226 292 226 c 259,31,32
 261 226 261 226 237 248 c 1,33,34
 211 184 211 184 188 80 c 0,35,36
 178 37 178 37 173 0 c 1,37,-1
 101 0 l 1,38,39
 107 27 107 27 107 57 c 259,40,41
 107 101 107 101 92 176 c 0,42,43
 79 242 79 242 79 289 c 259,44,45
 79 399 79 399 137 475 c 0,46,47
 194 550 194 550 321 593 c 1,48,-1
 377 541 l 1,49,-1
 463 593 l 1,0,1
312 276 m 259,50,51
 339 276 339 276 356.5 294.5 c 128,-1,52
 374 313 374 313 374 339 c 259,53,54
 374 356 374 356 363.5 366.5 c 128,-1,55
 353 377 353 377 333 377 c 259,56,57
 306 377 306 377 287.5 359 c 128,-1,58
 269 341 269 341 269 315 c 259,59,60
 269 298 269 298 280 287 c 128,-1,61
 291 276 291 276 312 276 c 259,50,51
EndSplineSet
EndChar

StartChar: uni0E06
Encoding: 3590 3590 133
Width: 770
Flags: W
HStem: -3 61<247.009 303.319 532.175 600.93> 190 61<271.559 328> 260 50<162.739 242.77> 406 50<180.821 254.038> 570 20G<236 291.435 382.435 442 709.769 783>
VStem: 100 60<312.97 392.268> 184 61<58.7023 163.218> 257 51<324.123 402.945> 714 69<521 590>
DStem2: 286.977 -3 356.72 -3 0.207912 0.978148<58.999 164.792 256.775 461.71> 407 234 388 144 0.628337 -0.777941<58.0763 240.605> 587.954 -3 656.918 -3 0.207912 0.978148<60.3103 606.248>
LayerCount: 3
Fore
SplineSet
498 460 m 1
 479 442 469 434 445 415 c 1
 407 234 l 1
 512 104 l 2
 544 64 552 58 573 58 c 3
 592 58 606 80 615 122 c 2
 714 590 l 1
 783 590 l 1
 682 115 l 2
 665 34 626 -3 563 -3 c 3
 527 -3 501 5 488 21 c 2
 388 144 l 1
 375 83 l 2
 365 37 318 -3 270 -3 c 3
 212 -3 184 36 184 86 c 3
 184 126 198 167 227 200 c 0
 255 232 294 251 341 251 c 1
 378 425 l 1
 413 450 433 466 433 483 c 3
 433 497 422 513 400 529 c 1
 320 492 l 1
 259 529 l 1
 210 508 183 458 180 443 c 1
 195 449 213 456 227 456 c 3
 291 456 308 412 308 378 c 3
 308 309 243 260 186 260 c 3
 135 260 100 295 100 357 c 3
 100 407 120 455 142 490 c 0
 170 535 211 570 261 593 c 1
 331 547 l 1
 422 593 l 1
 462 566 488 532 505 492 c 1
 498 460 l 1
198 310 m 3
 233 310 257 338 257 369 c 3
 257 389 245 406 218 406 c 3
 183 406 160 378 160 346 c 3
 160 326 171 310 198 310 c 3
270 58 m 3
 293 58 302 68 308 95 c 2
 328 190 l 1
 298 190 277 180 263 158 c 0
 254 144 245 115 245 95 c 3
 245 74 253 58 270 58 c 3
EndSplineSet
Layer: 2
SplineSet
498 460 m 1,0,1
 478 441 478 441 445 415 c 1,2,-1
 407 234 l 1,3,-1
 512 104 l 2,4,5
 536 74 536 74 546.5 66 c 128,-1,6
 557 58 557 58 573 58 c 259,7,8
 601 58 601 58 615 122 c 2,9,-1
 714 590 l 1,10,-1
 783 590 l 1,11,-1
 682 115 l 2,12,13
 657 -3 657 -3 563 -3 c 259,14,15
 508 -3 508 -3 488 21 c 2,16,-1
 388 144 l 1,17,-1
 375 83 l 2,18,19
 367 48 367 48 336.5 22.5 c 128,-1,20
 306 -3 306 -3 270 -3 c 259,21,22
 228 -3 228 -3 206 22 c 128,-1,23
 184 47 184 47 184 86 c 259,24,25
 184 151 184 151 227 200 c 0,26,27
 272 251 272 251 341 251 c 1,28,-1
 378 425 l 1,29,30
 433 464 433 464 433 483 c 259,31,32
 433 505 433 505 400 529 c 1,33,-1
 320 492 l 1,34,-1
 259 529 l 1,35,36
 227 515 227 515 205 487 c 128,-1,37
 183 459 183 459 180 443 c 1,38,39
 212 456 212 456 227 456 c 259,40,41
 270 456 270 456 289 432.5 c 128,-1,42
 308 409 308 409 308 378 c 259,43,44
 308 329 308 329 269.5 294.5 c 128,-1,45
 231 260 231 260 186 260 c 259,46,47
 147 260 147 260 123.5 285.5 c 128,-1,48
 100 311 100 311 100 357 c 259,49,50
 100 423 100 423 142 490 c 0,51,52
 184 558 184 558 261 593 c 1,53,-1
 331 547 l 1,54,-1
 422 593 l 1,55,56
 478 555 478 555 505 492 c 1,57,-1
 498 460 l 1,0,1
198 310 m 259,58,59
 224 310 224 310 240.5 327.5 c 128,-1,60
 257 345 257 345 257 369 c 259,61,62
 257 385 257 385 247 395.5 c 128,-1,63
 237 406 237 406 218 406 c 259,64,65
 192 406 192 406 176 388.5 c 128,-1,66
 160 371 160 371 160 346 c 259,67,68
 160 310 160 310 198 310 c 259,58,59
270 58 m 259,69,70
 287 58 287 58 295 66 c 128,-1,71
 303 74 303 74 308 95 c 2,72,-1
 328 190 l 1,73,74
 283 190 283 190 263 158 c 0,75,76
 245 130 245 130 245 95 c 259,77,78
 245 58 245 58 270 58 c 259,69,70
EndSplineSet
EndChar

StartChar: uni0E07
Encoding: 3591 3591 134
Width: 496
Flags: W
HStem: -6 61<267.03 328.009> 228 63<99 154.301> 401 50<343.058 403.463> 543 50<351.982 432.234>
VStem: 288 52<454.219 530.24> 435 58<465.245 539.754>
DStem2: 315.981 -6 385.218 -6 0.207912 0.978148<60.7701 423.253>
LayerCount: 3
Fore
SplineSet
411 593 m 3
 471 593 493 560 493 519 c 3
 493 510 492 500 490 490 c 2
 412 120 l 2
 395 40 351 -6 284 -6 c 3
 231 -6 208 21 190 116 c 0
 173 205 154 226 85 228 c 1
 99 291 l 1
 197 291 228 260 250 137 c 0
 261 74 273 55 295 55 c 3
 318 55 333 74 340 107 c 2
 404 408 l 1
 404 408 386 401 364 401 c 3
 323 401 288 426 288 473 c 3
 288 544 348 593 411 593 c 3
378 451 m 3
 410 451 435 478 435 508 c 3
 435 527 423 543 397 543 c 3
 365 543 340 517 340 487 c 3
 340 468 352 451 378 451 c 3
EndSplineSet
Layer: 2
SplineSet
411 593 m 259,0,1
 493 593 493 593 493 519 c 259,2,3
 493 505 493 505 490 490 c 2,4,-1
 412 120 l 2,5,6
 385 -6 385 -6 284 -6 c 259,7,8
 244 -6 244 -6 223.5 20 c 128,-1,9
 203 46 203 46 190 116 c 0,10,11
 177 183 177 183 157 205 c 128,-1,12
 137 227 137 227 85 228 c 1,13,-1
 99 291 l 1,14,15
 173 291 173 291 203.5 260 c 128,-1,16
 234 229 234 229 250 137 c 0,17,18
 258 91 258 91 268 73 c 128,-1,19
 278 55 278 55 295 55 c 259,20,21
 329 55 329 55 340 107 c 2,22,-1
 404 408 l 1,23,24
 386 401 386 401 364 401 c 259,25,26
 332 401 332 401 310 420 c 128,-1,27
 288 439 288 439 288 473 c 259,28,29
 288 525 288 525 325 559 c 128,-1,30
 362 593 362 593 411 593 c 259,0,1
378 451 m 259,31,32
 402 451 402 451 418.5 468 c 128,-1,33
 435 485 435 485 435 508 c 259,34,35
 435 523 435 523 425.5 533 c 128,-1,36
 416 543 416 543 397 543 c 259,37,38
 373 543 373 543 356.5 526.5 c 128,-1,39
 340 510 340 510 340 487 c 259,40,41
 340 472 340 472 350 461.5 c 128,-1,42
 360 451 360 451 378 451 c 259,31,32
EndSplineSet
EndChar

StartChar: uni0E08
Encoding: 3592 3592 135
Width: 551
Flags: W
HStem: -3 61<317.334 386.542> 212 50<211.135 271.863> 356 50<221.533 299.86> 532 61<246.904 433.276>
VStem: 157 51<265.073 341.639> 242 73<59.9688 119.333> 303 59<276.763 352.848> 468 72<395.107 497.626>
DStem2: 224.445 -3 293.619 -3 0.207912 0.978148<112.914 227.036> 375.194 -3 444.169 -3 0.207912 0.978148<62.3068 456.16>
LayerCount: 3
Fore
SplineSet
350 532 m 3xfd
 267 532 204 500 163 432 c 1
 110 460 l 1
 171 550 255 593 362 593 c 3xfb
 473 593 540 543 540 462 c 3
 540 450 539 439 536 426 c 2
 465 95 l 2
 453 37 396 -3 330 -3 c 3
 276 -3 242 26 242 70 c 3xfd
 242 76 243 82 244 89 c 2
 272 219 l 1
 272 219 255 212 234 212 c 3
 188 212 157 240 157 285 c 3
 157 359 219 406 278 406 c 3
 339 406 362 373 362 332 c 3xfb
 362 322 360 312 358 302 c 2
 317 107 l 2
 316 102 315 97 315 93 c 3
 315 72 327 58 349 58 c 3
 375 58 392 76 399 109 c 2
 465 418 l 2
 467 427 468 436 468 444 c 3
 468 501 422 532 350 532 c 3xfd
246 262 m 3
 277 262 303 290 303 320 c 3
 303 339 292 356 266 356 c 3
 233 356 208 327 208 298 c 3
 208 279 220 262 246 262 c 3
EndSplineSet
Layer: 2
SplineSet
350 532 m 259,0,1
 223 532 223 532 163 432 c 1,2,-1
 110 460 l 1,3,4
 200 593 200 593 362 593 c 259,5,6
 445 593 445 593 492.5 558 c 128,-1,7
 540 523 540 523 540 462 c 259,8,9
 540 443 540 443 536 426 c 2,10,-1
 465 95 l 2,11,12
 456 52 456 52 418 24.5 c 128,-1,13
 380 -3 380 -3 330 -3 c 259,14,15
 290 -3 290 -3 266 17 c 128,-1,16
 242 37 242 37 242 70 c 259,17,18
 242 75 242 75 244 89 c 2,19,-1
 272 219 l 1,20,21
 255 212 255 212 234 212 c 259,22,23
 199 212 199 212 178 231.5 c 128,-1,24
 157 251 157 251 157 285 c 259,25,26
 157 338 157 338 194 372 c 128,-1,27
 231 406 231 406 278 406 c 259,28,29
 321 406 321 406 341.5 385.5 c 128,-1,30
 362 365 362 365 362 332 c 259,31,32
 362 322 362 322 358 302 c 2,33,-1
 317 107 l 2,34,35
 315 97 315 97 315 93 c 259,36,37
 315 58 315 58 349 58 c 259,38,39
 388 58 388 58 399 109 c 2,40,-1
 465 418 l 2,41,42
 468 432 468 432 468 444 c 259,43,44
 468 486 468 486 436.5 509 c 128,-1,45
 405 532 405 532 350 532 c 259,0,1
246 262 m 259,46,47
 269 262 269 262 286 279.5 c 128,-1,48
 303 297 303 297 303 320 c 259,49,50
 303 335 303 335 293.5 345.5 c 128,-1,51
 284 356 284 356 266 356 c 259,52,53
 242 356 242 356 225 338 c 128,-1,54
 208 320 208 320 208 298 c 259,55,56
 208 283 208 283 218 272.5 c 128,-1,57
 228 262 228 262 246 262 c 259,46,47
EndSplineSet
EndChar

StartChar: uni0E09
Encoding: 3593 3593 136
Width: 596
Flags: W
HStem: -3 61<214.5 293.888 490.874 544.219> 182 58<523 552.339> 199 50<134.868 195.862> 341 50<145.196 223.965> 532 61<266.64 456.377>
VStem: 80 52<252.165 328.438> 168 72<58.1183 118.75> 227 59<262.036 337.96> 423 67<58.0929 151.156> 494 73<344.766 495.758> 559 63<70.5475 178.26>
DStem2: 151.232 -3 220.469 -3 0.207912 0.978148<99.9188 212.762> 407.358 -3 471.169 -3 0.207912 0.978148<95.6198 158.4 261.733 451.99>
AnchorPoint: "AboveBase" 618 654 basechar 0
LayerCount: 3
Fore
SplineSet
496 -3 m 3xdca0
 450 -3 423 21 423 60 c 3
 423 66 424 73 425 80 c 2
 440 152 l 1
 430 150 413 136 369 84 c 0
 321 27 276 -3 237 -3 c 3
 192 -3 168 20 168 62 c 3xdea0
 168 71 169 80 171 90 c 2
 196 205 l 1
 196 205 178 199 157 199 c 3
 108 199 80 229 80 272 c 3
 80 347 145 391 203 391 c 3
 255 391 286 365 286 317 c 3xbd80
 286 308 284 299 282 288 c 2
 243 103 l 2
 241 94 240 86 240 80 c 3
 240 64 245 58 254 58 c 3
 273 58 293 74 340 130 c 0
 399 200 421 219 451 228 c 1
 492 418 l 2
 494 426 494 434 494 441 c 3
 494 498 444 532 372 532 c 3
 292 532 228 505 179 437 c 1
 133 466 l 1
 196 552 280 593 380 593 c 3
 493 593 567 545 567 462 c 3xbec0
 567 451 565 440 563 428 c 2
 523 240 l 1
 584 240 622 203 622 145 c 3
 622 62 569 -3 496 -3 c 3xdca0
170 249 m 3xbd80
 201 249 227 275 227 305 c 3
 227 324 214 341 189 341 c 3
 155 341 132 314 132 284 c 3
 132 265 143 249 170 249 c 3xbd80
512 58 m 3
 539 58 559 94 559 131 c 3
 559 155 552 182 521 182 c 3xdca0
 518 182 514 181 510 179 c 1
 492 95 l 2
 491 88 490 81 490 77 c 3
 490 62 497 58 512 58 c 3
EndSplineSet
Layer: 2
SplineSet
496 -3 m 259,0,1
 462 -3 462 -3 442.5 14 c 128,-1,2
 423 31 423 31 423 60 c 259,3,4
 423 66 423 66 425 80 c 2,5,-1
 440 152 l 1,6,7
 424 149 424 149 369 84 c 0,8,9
 296 -3 296 -3 237 -3 c 259,10,11
 168 -3 168 -3 168 62 c 259,12,13
 168 75 168 75 171 90 c 2,14,-1
 196 205 l 1,15,16
 178 199 178 199 157 199 c 259,17,18
 121 199 121 199 100.5 219 c 128,-1,19
 80 239 80 239 80 272 c 259,20,21
 80 325 80 325 118 358 c 128,-1,22
 156 391 156 391 203 391 c 259,23,24
 242 391 242 391 264 372 c 128,-1,25
 286 353 286 353 286 317 c 259,26,27
 286 310 286 310 282 288 c 2,28,-1
 243 103 l 2,29,30
 240 89 240 89 240 80 c 259,31,32
 240 58 240 58 254 58 c 259,33,34
 280 58 280 58 340 130 c 0,35,36
 384 182 384 182 406 201.5 c 128,-1,37
 428 221 428 221 451 228 c 1,38,-1
 492 418 l 2,39,40
 494 426 494 426 494 441 c 259,41,42
 494 483 494 483 460.5 507.5 c 128,-1,43
 427 532 427 532 372 532 c 259,44,45
 247 532 247 532 179 437 c 1,46,-1
 133 466 l 1,47,48
 226 593 226 593 380 593 c 259,49,50
 466 593 466 593 516.5 558.5 c 128,-1,51
 567 524 567 524 567 462 c 259,52,53
 567 452 567 452 563 428 c 2,54,-1
 523 240 l 1,55,56
 569 240 569 240 595.5 214.5 c 128,-1,57
 622 189 622 189 622 145 c 259,58,59
 622 82 622 82 586 39.5 c 128,-1,60
 550 -3 550 -3 496 -3 c 259,0,1
170 249 m 259,61,62
 193 249 193 249 210 265.5 c 128,-1,63
 227 282 227 282 227 305 c 259,64,65
 227 320 227 320 217 330.5 c 128,-1,66
 207 341 207 341 189 341 c 259,67,68
 164 341 164 341 148 324 c 128,-1,69
 132 307 132 307 132 284 c 259,70,71
 132 249 132 249 170 249 c 259,61,62
512 58 m 259,72,73
 532 58 532 58 545.5 80 c 128,-1,74
 559 102 559 102 559 131 c 259,75,76
 559 182 559 182 521 182 c 259,77,78
 516 182 516 182 510 179 c 1,79,-1
 492 95 l 2,80,81
 490 81 490 81 490 77 c 259,82,83
 490 58 490 58 512 58 c 259,72,73
EndSplineSet
EndChar

StartChar: uni0E0A
Encoding: 3594 3594 137
Width: 602
Flags: W
HStem: 0 61<160 234 303 434.467> 352 50<147.112 225.754> 532 61<256.833 348.15>
VStem: 93 51<404.917 481.922> 240 51<416.309 492.788> 503 71<335.25 435.202>
DStem2: 221.034 0 290.034 0 0.207912 0.978148<76.7087 386.808> 424.556 0 493.981 0 0.207912 0.978148<65.3102 389.502>
LayerCount: 3
Fore
SplineSet
202 496 m 3
 173 496 144 472 144 438 c 3
 144 417 158 402 182 402 c 3
 211 402 240 426 240 461 c 3
 240 482 225 496 202 496 c 3
256 529 m 1
 278 519 291 500 291 472 c 3
 291 399 237 352 169 352 c 3
 120 352 93 378 93 423 c 3
 93 467 114 511 143 539 c 0
 178 573 227 593 283 593 c 3
 361 593 410 567 428 511 c 1
 531 541 597 575 665 638 c 1
 676 569 l 1
 632 534 607 524 500 486 c 1
 544 475 574 436 574 390 c 3
 574 383 574 375 572 367 c 2
 518 113 l 2
 501 34 461 0 389 0 c 2
 147 0 l 1
 160 61 l 1
 234 61 l 1
 281 280 l 2
 288 315 299 342 322 374 c 0
 355 419 364 436 364 469 c 3
 364 510 334 532 284 532 c 3
 274 532 264 531 256 529 c 1
433 459 m 1
 430 448 l 2
 425 423 412 397 390 366 c 0
 373 341 356 311 352 293 c 2
 303 61 l 1
 387 61 l 2
 421 61 442 80 449 115 c 2
 499 349 l 2
 502 361 503 372 503 382 c 3
 503 422 482 446 433 459 c 1
EndSplineSet
Layer: 2
SplineSet
202 496 m 259,0,1
 179 496 179 496 161.5 479.5 c 128,-1,2
 144 463 144 463 144 438 c 259,3,4
 144 422 144 422 154 412 c 128,-1,5
 164 402 164 402 182 402 c 259,6,7
 205 402 205 402 222.5 419 c 128,-1,8
 240 436 240 436 240 461 c 259,9,10
 240 477 240 477 229.5 486.5 c 128,-1,11
 219 496 219 496 202 496 c 259,0,1
256 529 m 1,12,13
 291 513 291 513 291 472 c 259,14,15
 291 418 291 418 256 385 c 128,-1,16
 221 352 221 352 169 352 c 259,17,18
 132 352 132 352 112.5 370.5 c 128,-1,19
 93 389 93 389 93 423 c 259,20,21
 93 491 93 491 143 539 c 0,22,23
 199 593 199 593 283 593 c 259,24,25
 402 593 402 593 428 511 c 1,26,27
 574 553 574 553 665 638 c 1,28,-1
 676 569 l 1,29,30
 644 544 644 544 614 530 c 128,-1,31
 584 516 584 516 500 486 c 1,32,33
 533 478 533 478 553.5 451.5 c 128,-1,34
 574 425 574 425 574 390 c 259,35,36
 574 375 574 375 572 367 c 2,37,-1
 518 113 l 2,38,39
 505 54 505 54 474 27 c 128,-1,40
 443 0 443 0 389 0 c 2,41,-1
 147 0 l 1,42,-1
 160 61 l 1,43,-1
 234 61 l 1,44,-1
 281 280 l 2,45,46
 291 331 291 331 322 374 c 0,47,48
 348 409 348 409 356 427 c 128,-1,49
 364 445 364 445 364 469 c 259,50,51
 364 499 364 499 343 515.5 c 128,-1,52
 322 532 322 532 284 532 c 259,53,54
 268 532 268 532 256 529 c 1,12,13
433 459 m 1,55,-1
 430 448 l 2,56,57
 423 412 423 412 390 366 c 0,58,59
 358 318 358 318 352 293 c 2,60,-1
 303 61 l 1,61,-1
 387 61 l 2,62,63
 438 61 438 61 449 115 c 2,64,-1
 499 349 l 2,65,66
 503 365 503 365 503 382 c 259,67,68
 503 440 503 440 433 459 c 1,55,-1
EndSplineSet
EndChar

StartChar: uni0E0B
Encoding: 3595 3595 138
Width: 648
Flags: W
HStem: 0 61<215 289 358 489.769> 276 50<148.562 227.947> 420 50<188.669 238.884> 581 20G<227 290 370.5 430.5>
VStem: 90 56<329.395 405.888> 242 52<339.839 417.041> 560 71<278.453 437.638>
DStem2: 276.034 0 345.034 0 0.207912 0.978148<76.7087 435.632> 480.556 0 549.981 0 0.207912 0.978148<65.2498 392.645>
LayerCount: 3
Fore
SplineSet
205 420 m 3
 173 420 146 394 146 361 c 3
 146 340 160 326 183 326 c 3
 212 326 242 350 242 385 c 3
 242 406 227 420 205 420 c 3
444 61 m 2
 477 61 497 79 505 115 c 2
 556 353 l 2
 558 365 560 375 560 385 c 3
 560 426 537 449 489 463 c 1
 433 412 l 1
 358 61 l 1
 444 61 l 2
486 510 m 1
 614 557 662 582 720 638 c 9
 731 569 l 1
 696 539 661 524 556 490 c 1
 603 476 631 440 631 395 c 3
 631 387 631 379 629 371 c 2
 574 113 l 2
 558 40 515 0 445 0 c 2
 202 0 l 1
 215 61 l 1
 289 61 l 1
 367 428 l 1
 423 475 l 1
 420 500 404 526 387 532 c 1
 314 500 l 1
 256 532 l 1
 231 527 200 497 188 467 c 1
 194 468 204 470 216 470 c 3
 267 470 294 445 294 401 c 3
 294 329 243 276 175 276 c 3
 120 276 90 301 90 356 c 3
 90 403 109 454 131 490 c 0
 159 536 200 574 254 601 c 1
 326 561 l 1
 415 601 l 1
 446 589 472 558 486 510 c 1
EndSplineSet
Layer: 2
SplineSet
205 420 m 259,0,1
 181 420 181 420 163.5 403 c 128,-1,2
 146 386 146 386 146 361 c 259,3,4
 146 345 146 345 156 335.5 c 128,-1,5
 166 326 166 326 183 326 c 259,6,7
 206 326 206 326 224 343 c 128,-1,8
 242 360 242 360 242 385 c 259,9,10
 242 401 242 401 232 410.5 c 128,-1,11
 222 420 222 420 205 420 c 259,0,1
444 61 m 2,12,13
 493 61 493 61 505 115 c 2,14,-1
 556 353 l 2,15,16
 560 377 560 377 560 385 c 259,17,18
 560 442 560 442 489 463 c 1,19,-1
 433 412 l 1,20,-1
 358 61 l 1,21,-1
 444 61 l 2,12,13
486 510 m 1,22,23
 583 546 583 546 630 571.5 c 128,-1,24
 677 597 677 597 720 638 c 1,25,-1
 731 569 l 1,26,27
 705 547 705 547 670.5 531.5 c 128,-1,28
 636 516 636 516 556 490 c 1,29,30
 591 480 591 480 611 454.5 c 128,-1,31
 631 429 631 429 631 395 c 259,32,33
 631 379 631 379 629 371 c 2,34,-1
 574 113 l 2,35,36
 549 0 549 0 445 0 c 2,37,-1
 202 0 l 1,38,-1
 215 61 l 1,39,-1
 289 61 l 1,40,-1
 367 428 l 1,41,-1
 423 475 l 1,42,43
 421 494 421 494 410.5 511 c 128,-1,44
 400 528 400 528 387 532 c 1,45,-1
 314 500 l 1,46,-1
 256 532 l 1,47,48
 237 528 237 528 217 509 c 128,-1,49
 197 490 197 490 188 467 c 1,50,51
 206 470 206 470 216 470 c 259,52,53
 294 470 294 470 294 401 c 259,54,55
 294 347 294 347 260 311.5 c 128,-1,56
 226 276 226 276 175 276 c 259,57,58
 90 276 90 276 90 356 c 259,59,60
 90 423 90 423 131 490 c 0,61,62
 174 561 174 561 254 601 c 1,63,-1
 326 561 l 1,64,-1
 415 601 l 1,65,66
 465 582 465 582 486 510 c 1,22,23
EndSplineSet
EndChar

StartChar: uni0E0C
Encoding: 3596 3596 139
Width: 792
Flags: W
HStem: -3 61<358.97 401.832 582.979 619.763> -3 50<149.897 229.821> 139 50<179.724 240.436> 178 61<378.556 423> 532 61<255.937 456.945>
VStem: 89 58<50.0591 124.563> 243 52<59.9281 136.012> 304 54<58.2376 153.142> 482 71<365.633 507.879> 730 69<521 590>
DStem2: 70.1067 -3 139.464 -3 0.207912 0.978148<204.576 407.792> 384.783 -3 453.696 -3 0.207912 0.978148<58.5607 169.723 244.649 476.732> 603.954 -3 673.595 -3 0.207912 0.978148<59.384 606.248>
LayerCount: 3
Fore
SplineSet
172 -3 m 3x6fc0
 118 -3 89 24 89 71 c 3
 89 80 90 90 92 100 c 2
 139 322 l 2
 148 364 180 404 220 426 c 1
 198 451 146 480 98 487 c 1
 178 556 270 593 371 593 c 3
 487 593 553 552 553 479 c 3
 553 470 551 459 549 449 c 2
 502 228 l 1
 529 221 549 195 569 124 c 0
 584 68 592 58 602 58 c 3
 611 58 620 72 626 101 c 2
 730 590 l 1
 799 590 l 1
 694 93 l 2
 681 34 649 -3 603 -3 c 3
 566 -3 553 11 523 80 c 0
 512 105 496 132 486 149 c 1
 469 69 l 2
 462 34 421 -3 378 -3 c 3
 332 -3 304 30 304 81 c 3
 304 124 319 161 336 185 c 0
 358 215 390 232 436 239 c 1x9fc0
 480 446 l 2
 481 452 482 458 482 464 c 3
 482 509 438 532 356 532 c 3
 304 532 265 521 236 498 c 1
 266 484 298 457 333 423 c 1
 264 410 218 368 205 308 c 2
 179 183 l 1
 190 187 202 189 214 189 c 3
 263 189 295 162 295 118 c 3
 295 51 237 -3 172 -3 c 3x6fc0
358 86 m 3
 358 66 365 58 379 58 c 3
 388 58 400 69 402 78 c 2
 423 178 l 1
 400 178 384 169 373 148 c 0
 366 135 358 107 358 86 c 3
185 47 m 3x6fc0
 216 47 243 71 243 105 c 3
 243 127 228 139 205 139 c 3
 176 139 147 113 147 81 c 3
 147 60 162 47 185 47 c 3x6fc0
EndSplineSet
Layer: 2
SplineSet
172 -3 m 259,0,1
 132 -3 132 -3 110.5 16.5 c 128,-1,2
 89 36 89 36 89 71 c 259,3,4
 89 85 89 85 92 100 c 2,5,-1
 139 322 l 2,6,7
 146 353 146 353 168 381 c 128,-1,8
 190 409 190 409 220 426 c 1,9,10
 203 446 203 446 168 464 c 128,-1,11
 133 482 133 482 98 487 c 1,12,13
 221 593 221 593 371 593 c 259,14,15
 458 593 458 593 505.5 563.5 c 128,-1,16
 553 534 553 534 553 479 c 259,17,18
 553 469 553 469 549 449 c 2,19,-1
 502 228 l 1,20,21
 543 217 543 217 569 124 c 0,22,23
 587 58 587 58 602 58 c 259,24,25
 617 58 617 58 626 101 c 2,26,-1
 730 590 l 1,27,-1
 799 590 l 1,28,-1
 694 93 l 2,29,30
 684 48 684 48 660.5 22.5 c 128,-1,31
 637 -3 637 -3 603 -3 c 259,32,33
 575 -3 575 -3 560.5 12.5 c 128,-1,34
 546 28 546 28 523 80 c 0,35,36
 512 104 512 104 486 149 c 1,37,-1
 469 69 l 2,38,39
 464 42 464 42 436.5 19.5 c 128,-1,40
 409 -3 409 -3 378 -3 c 259,41,42
 344 -3 344 -3 324 20 c 128,-1,43
 304 43 304 43 304 81 c 259,44,45
 304 140 304 140 336 185 c 0,46,47
 368 229 368 229 436 239 c 1,48,-1
 480 446 l 2,49,50
 482 458 482 458 482 464 c 259,51,52
 482 495 482 495 452 513.5 c 128,-1,53
 422 532 422 532 356 532 c 259,54,55
 279 532 279 532 236 498 c 1,56,57
 274 480 274 480 333 423 c 1,58,59
 281 413 281 413 248 383 c 128,-1,60
 215 353 215 353 205 308 c 2,61,-1
 179 183 l 1,62,63
 196 189 196 189 214 189 c 259,64,65
 251 189 251 189 273 170 c 128,-1,66
 295 151 295 151 295 118 c 259,67,68
 295 68 295 68 258 32.5 c 128,-1,69
 221 -3 221 -3 172 -3 c 259,0,1
358 86 m 259,70,71
 358 58 358 58 379 58 c 259,72,73
 386 58 386 58 393 64.5 c 128,-1,74
 400 71 400 71 402 78 c 2,75,-1
 423 178 l 1,76,77
 389 178 389 178 373 148 c 0,78,79
 358 120 358 120 358 86 c 259,70,71
185 47 m 259,80,81
 209 47 209 47 226 63.5 c 128,-1,82
 243 80 243 80 243 105 c 259,83,84
 243 121 243 121 234.5 130 c 128,-1,85
 226 139 226 139 205 139 c 259,86,87
 183 139 183 139 165 122 c 128,-1,88
 147 105 147 105 147 81 c 259,89,90
 147 65 147 65 157.5 56 c 128,-1,91
 168 47 168 47 185 47 c 259,80,81
EndSplineSet
EndChar

StartChar: uni0E0D
Encoding: 3597 3597 140
Width: 800
Flags: W
HStem: -278 61<421.159 519.778> -104 47<352.057 424.839> -3 50<163.275 243.243> 0 61<366 408 477 641.78> 138 50<191.572 252.406> 532 61<262.594 465.478>
VStem: 101 59<50.3736 125.063> 255 52<59.2367 134.687> 288 52<-187.572 -115.129> 427 51<-179.068 -105.94> 492 71<365.172 507.145> 598 69<-125.776 -55> 752 69<521 590>
DStem2: 23.6536 -278 93.224 -278 0.207912 0.978148<484.741 688.936> 335.943 -278 404.943 -278 0.207912 0.978148<360.919 756.978> 568.229 -278 636.48 -278 0.207912 0.978148<344.38 887.24>
LayerCount: 3
Fore
SplineSet
603 61 m 2xdf78
 628 61 643 75 649 102 c 2
 752 590 l 1
 821 590 l 1
 713 82 l 2
 702 32 666 0 615 0 c 2
 353 0 l 1
 366 61 l 1
 408 61 l 1xdf78
 490 445 l 2
 491 451 492 457 492 463 c 3
 492 509 447 532 363 532 c 3
 312 532 266 519 235 501 c 1
 266 491 301 465 344 423 c 1
 275 410 230 368 217 308 c 2
 191 182 l 1
 202 186 217 188 229 188 c 3
 277 188 307 162 307 119 c 3
 307 48 248 -3 183 -3 c 3xef78
 129 -3 101 25 101 71 c 3
 101 80 102 90 104 100 c 2
 151 322 l 2
 160 364 192 404 232 426 c 1
 212 450 158 480 110 487 c 1
 190 556 295 593 400 593 c 3
 501 593 563 550 563 478 c 3
 563 468 561 459 559 448 c 2
 477 61 l 1
 603 61 l 2xdf78
198 47 m 3xef78
 231 47 255 73 255 103 c 3
 255 121 243 138 217 138 c 3
 184 138 160 112 160 83 c 3
 160 64 172 47 198 47 c 3xef78
420 -212 m 1
 430 -216 438 -217 449 -217 c 3
 524 -217 579 -156 598 -66 c 2
 600 -55 l 1
 669 -55 l 1
 667 -66 l 2
 641 -188 544 -278 430 -278 c 3
 342 -278 288 -242 288 -178 c 3xcef8
 288 -105 340 -57 401 -57 c 3
 449 -57 478 -85 478 -126 c 3
 478 -171 454 -201 420 -212 c 1
393 -104 m 3
 367 -104 340 -127 340 -159 c 3
 340 -178 353 -190 374 -190 c 3
 400 -190 427 -168 427 -136 c 3
 427 -117 414 -104 393 -104 c 3
EndSplineSet
Layer: 2
SplineSet
603 61 m 2,0,1
 640 61 640 61 649 102 c 2,2,-1
 752 590 l 1,3,-1
 821 590 l 1,4,-1
 713 82 l 2,5,6
 705 44 705 44 679 22 c 128,-1,7
 653 0 653 0 615 0 c 2,8,-1
 353 0 l 1,9,-1
 366 61 l 1,10,-1
 408 61 l 1,11,-1
 490 445 l 2,12,13
 492 457 492 457 492 463 c 259,14,15
 492 495 492 495 462 513.5 c 128,-1,16
 432 532 432 532 363 532 c 259,17,18
 288 532 288 532 235 501 c 1,19,20
 279 487 279 487 344 423 c 1,21,22
 289 413 289 413 258 383.5 c 128,-1,23
 227 354 227 354 217 308 c 2,24,-1
 191 182 l 1,25,26
 208 188 208 188 229 188 c 259,27,28
 265 188 265 188 286 169.5 c 128,-1,29
 307 151 307 151 307 119 c 259,30,31
 307 67 307 67 270 32 c 128,-1,32
 233 -3 233 -3 183 -3 c 259,33,34
 143 -3 143 -3 122 16.5 c 128,-1,35
 101 36 101 36 101 71 c 259,36,37
 101 85 101 85 104 100 c 2,38,-1
 151 322 l 2,39,40
 158 353 158 353 180 381 c 128,-1,41
 202 409 202 409 232 426 c 1,42,43
 216 445 216 445 180.5 463.5 c 128,-1,44
 145 482 145 482 110 487 c 1,45,46
 233 593 233 593 400 593 c 259,47,48
 476 593 476 593 519.5 562.5 c 128,-1,49
 563 532 563 532 563 478 c 259,50,51
 563 470 563 470 559 448 c 2,52,-1
 477 61 l 1,53,-1
 603 61 l 2,0,1
198 47 m 259,54,55
 222 47 222 47 238.5 63.5 c 128,-1,56
 255 80 255 80 255 103 c 259,57,58
 255 118 255 118 245 128 c 128,-1,59
 235 138 235 138 217 138 c 259,60,61
 193 138 193 138 176.5 121.5 c 128,-1,62
 160 105 160 105 160 83 c 259,63,64
 160 68 160 68 170 57.5 c 128,-1,65
 180 47 180 47 198 47 c 259,54,55
420 -212 m 1,66,67
 432 -217 432 -217 449 -217 c 259,68,69
 504 -217 504 -217 543.5 -176 c 128,-1,70
 583 -135 583 -135 598 -66 c 2,71,-1
 600 -55 l 1,72,-1
 669 -55 l 1,73,-1
 667 -66 l 2,74,75
 647 -158 647 -158 581 -218 c 128,-1,76
 515 -278 515 -278 430 -278 c 259,77,78
 363 -278 363 -278 325.5 -252 c 128,-1,79
 288 -226 288 -226 288 -178 c 259,80,81
 288 -125 288 -125 321 -91 c 128,-1,82
 354 -57 354 -57 401 -57 c 259,83,84
 437 -57 437 -57 457.5 -76 c 128,-1,85
 478 -95 478 -95 478 -126 c 259,86,87
 478 -193 478 -193 420 -212 c 1,66,67
393 -104 m 259,88,89
 373 -104 373 -104 356.5 -120 c 128,-1,90
 340 -136 340 -136 340 -159 c 259,91,92
 340 -190 340 -190 374 -190 c 259,93,94
 394 -190 394 -190 410.5 -174.5 c 128,-1,95
 427 -159 427 -159 427 -136 c 259,96,97
 427 -122 427 -122 418 -113 c 128,-1,98
 409 -104 409 -104 393 -104 c 259,88,89
EndSplineSet
Substitution2: "'ccmp' Pali-Sanskrit Descender Removal" uni0E0D.descless
Substitution2: "Thai Descender Removal Single Substitution" uni0E0D.descless
EndChar

StartChar: uni0E0E
Encoding: 3598 3598 141
Width: 668
Flags: W
HStem: -303 61<81.6157 174.213> -163 61<92.4232 212.1> -28 20G<315 387> -3 50<105.484 186.543> 139 50<116.627 196.805> 532 61<354.744 552.771>
VStem: 10 71<-239.707 -174.162> 51 52<50.6468 124.828> 318 69<-63.2602 -8> 579 71<386.281 506.47>
DStem2: 98.7217 -317 167.364 -317 0.207912 0.978148<511.17 728.653> 360 -225 338 -317 0.764803 0.644264<0 118.279> 419.141 -317 489.054 -317 0.207912 0.978148<172.999 783.949>
AnchorPoint: "BelowBase" 488 -311 basechar 0
LayerCount: 3
Fore
SplineSet
313 426 m 1xfdc0
 293 450 241 480 193 487 c 1
 269 552 372 593 474 593 c 3
 592 593 650 542 650 461 c 3
 650 447 648 433 645 418 c 2
 522 -162 l 1
 338 -317 l 1
 315 -278 284 -234 261 -218 c 1
 203 -273 148 -303 96 -303 c 3
 43 -303 10 -276 10 -233 c 3xfec0
 10 -156 85 -102 166 -102 c 3
 200 -102 236 -115 257 -132 c 1
 285 -98 312 -36 318 -8 c 1
 387 -8 l 1
 379 -46 351 -97 301 -164 c 1
 360 -225 l 1
 454 -153 l 1
 575 415 l 2
 578 428 579 440 579 451 c 3
 579 508 541 532 468 532 c 3
 417 532 359 516 328 498 c 1
 359 488 383 465 426 423 c 1
 357 410 313 368 300 308 c 2
 256 100 l 2
 243 38 196 -3 132 -3 c 3
 81 -3 51 27 51 71 c 3
 51 140 107 189 169 189 c 3
 185 189 196 186 205 183 c 1
 234 322 l 2
 243 364 273 404 313 426 c 1xfdc0
141 47 m 3
 170 47 199 70 199 104 c 3
 199 125 185 139 161 139 c 3
 130 139 103 113 103 82 c 3xfdc0
 103 61 118 47 141 47 c 3
115 -242 m 3
 153 -242 195 -211 213 -179 c 1
 199 -171 168 -163 145 -163 c 3
 109 -163 81 -182 81 -214 c 3xfec0
 81 -231 94 -242 115 -242 c 3
EndSplineSet
Layer: 2
SplineSet
313 426 m 1,0,1
 297 445 297 445 262 463.5 c 128,-1,2
 227 482 227 482 193 487 c 1,3,4
 251 536 251 536 325 564.5 c 128,-1,5
 399 593 399 593 474 593 c 259,6,7
 561 593 561 593 605.5 558 c 128,-1,8
 650 523 650 523 650 461 c 259,9,10
 650 443 650 443 645 418 c 2,11,-1
 522 -162 l 1,12,-1
 338 -317 l 1,13,14
 293 -240 293 -240 261 -218 c 1,15,16
 171 -303 171 -303 96 -303 c 259,17,18
 56 -303 56 -303 33 -284 c 128,-1,19
 10 -265 10 -265 10 -233 c 259,20,21
 10 -177 10 -177 56.5 -139.5 c 128,-1,22
 103 -102 103 -102 166 -102 c 259,23,24
 220 -102 220 -102 257 -132 c 1,25,26
 277 -108 277 -108 295 -69.5 c 128,-1,27
 313 -31 313 -31 318 -8 c 1,28,-1
 387 -8 l 1,29,30
 375 -65 375 -65 301 -164 c 1,31,-1
 360 -225 l 1,32,-1
 454 -153 l 1,33,-1
 575 415 l 2,34,35
 579 432 579 432 579 451 c 259,36,37
 579 490 579 490 553 511 c 128,-1,38
 527 532 527 532 468 532 c 259,39,40
 387 532 387 532 328 498 c 1,41,42
 360 488 360 488 426 423 c 1,43,44
 321 403 321 403 300 308 c 2,45,-1
 256 100 l 2,46,47
 246 53 246 53 213 25 c 128,-1,48
 180 -3 180 -3 132 -3 c 259,49,50
 94 -3 94 -3 72.5 17.5 c 128,-1,51
 51 38 51 38 51 71 c 259,52,53
 51 122 51 122 86 155.5 c 128,-1,54
 121 189 121 189 169 189 c 259,55,56
 187 189 187 189 205 183 c 1,57,-1
 234 322 l 2,58,59
 249 391 249 391 313 426 c 1,0,1
141 47 m 259,60,61
 164 47 164 47 181.5 63 c 128,-1,62
 199 79 199 79 199 104 c 259,63,64
 199 120 199 120 189 129.5 c 128,-1,65
 179 139 179 139 161 139 c 259,66,67
 138 139 138 139 120.5 122 c 128,-1,68
 103 105 103 105 103 82 c 259,69,70
 103 66 103 66 113.5 56.5 c 128,-1,71
 124 47 124 47 141 47 c 259,60,61
115 -242 m 259,72,73
 142 -242 142 -242 170.5 -223 c 128,-1,74
 199 -204 199 -204 213 -179 c 1,75,76
 185 -163 185 -163 145 -163 c 259,77,78
 117 -163 117 -163 99 -177 c 128,-1,79
 81 -191 81 -191 81 -214 c 259,80,81
 81 -242 81 -242 115 -242 c 259,72,73
EndSplineSet
EndChar

StartChar: uni0E0F
Encoding: 3599 3599 142
Width: 663
Flags: W
HStem: -312 61<70.9522 131.365> -159 61<84.9798 164.375> -29 20G<259 323> -3 50<106.984 186.398> 139 50<117.733 196.884> 532 61<355.966 558.114>
VStem: 13 57<-249.989 -173.371> 53 51<50.4781 125.635> 262 61<-66.4327 -9> 582 71<411.076 508.972>
DStem2: 100.785 -312 169.427 -312 0.207912 0.978148<506.059 723.541> 419.479 -312 488.479 -312 0.207912 0.978148<113.918 791.533>
AnchorPoint: "BelowBase" 484 -311 basechar 0
LayerCount: 3
Fore
SplineSet
315 426 m 1xfdc0
 295 450 242 480 194 487 c 1
 270 552 373 593 475 593 c 3
 594 593 653 550 653 477 c 3
 653 466 652 455 649 443 c 2
 521 -159 l 1
 489 -222 434 -279 371 -310 c 1
 323 -216 l 1
 233 -311 l 1
 196 -238 l 1
 165 -281 121 -312 82 -312 c 3
 37 -312 13 -287 13 -243 c 3xfec0
 13 -164 73 -98 129 -98 c 3
 159 -98 197 -122 204 -138 c 1
 238 -76 256 -36 262 -9 c 1
 323 -9 l 1
 315 -48 264 -152 238 -178 c 1
 251 -213 l 1
 346 -106 l 1
 398 -222 l 1
 418 -211 446 -180 452 -159 c 1
 580 440 l 2
 582 448 582 456 582 463 c 3
 582 508 546 532 466 532 c 3
 415 532 361 516 330 498 c 1
 353 491 378 471 427 423 c 1
 358 410 314 368 301 308 c 2
 257 100 l 2
 244 38 198 -3 134 -3 c 3
 83 -3 53 28 53 73 c 3
 53 142 108 189 170 189 c 3
 186 189 197 186 206 183 c 1
 235 322 l 2
 244 364 275 404 315 426 c 1xfdc0
142 47 m 3
 171 47 199 70 199 104 c 3
 199 125 186 139 162 139 c 3
 131 139 104 113 104 82 c 3xfdc0
 104 61 119 47 142 47 c 3
70 -227 m 3xfec0
 70 -244 80 -251 94 -251 c 3
 113 -251 136 -230 168 -184 c 1
 150 -165 137 -159 121 -159 c 3
 96 -159 70 -189 70 -227 c 3xfec0
EndSplineSet
Layer: 2
SplineSet
315 426 m 1,0,1
 299 445 299 445 263.5 463.5 c 128,-1,2
 228 482 228 482 194 487 c 1,3,4
 252 536 252 536 326 564.5 c 128,-1,5
 400 593 400 593 475 593 c 259,6,7
 563 593 563 593 608 563 c 128,-1,8
 653 533 653 533 653 477 c 259,9,10
 653 459 653 459 649 443 c 2,11,-1
 521 -159 l 1,12,13
 497 -207 497 -207 457.5 -247 c 128,-1,14
 418 -287 418 -287 371 -310 c 1,15,-1
 323 -216 l 1,16,-1
 233 -311 l 1,17,-1
 196 -238 l 1,18,19
 172 -271 172 -271 141.5 -291.5 c 128,-1,20
 111 -312 111 -312 82 -312 c 259,21,22
 13 -312 13 -312 13 -243 c 259,23,24
 13 -185 13 -185 49.5 -141.5 c 128,-1,25
 86 -98 86 -98 129 -98 c 259,26,27
 150 -98 150 -98 174 -111.5 c 128,-1,28
 198 -125 198 -125 204 -138 c 1,29,30
 253 -48 253 -48 262 -9 c 1,31,-1
 323 -9 l 1,32,33
 317 -39 317 -39 287 -99 c 128,-1,34
 257 -159 257 -159 238 -178 c 1,35,-1
 251 -213 l 1,36,-1
 346 -106 l 1,37,-1
 398 -222 l 1,38,39
 413 -213 413 -213 430.5 -193.5 c 128,-1,40
 448 -174 448 -174 452 -159 c 2,41,-1
 580 440 l 2,42,43
 582 448 582 448 582 463 c 259,44,45
 582 532 582 532 466 532 c 259,46,47
 389 532 389 532 330 498 c 1,48,49
 360 489 360 489 427 423 c 1,50,51
 322 403 322 403 301 308 c 2,52,-1
 257 100 l 2,53,54
 247 53 247 53 214 25 c 128,-1,55
 181 -3 181 -3 134 -3 c 259,56,57
 96 -3 96 -3 74.5 18 c 128,-1,58
 53 39 53 39 53 73 c 259,59,60
 53 123 53 123 87.5 156 c 128,-1,61
 122 189 122 189 170 189 c 259,62,63
 188 189 188 189 206 183 c 1,64,-1
 235 322 l 2,65,66
 250 390 250 390 315 426 c 1,0,1
142 47 m 259,67,68
 165 47 165 47 182 63 c 128,-1,69
 199 79 199 79 199 104 c 259,70,71
 199 139 199 139 162 139 c 259,72,73
 139 139 139 139 121.5 122 c 128,-1,74
 104 105 104 105 104 82 c 259,75,76
 104 66 104 66 114.5 56.5 c 128,-1,77
 125 47 125 47 142 47 c 259,67,68
70 -227 m 259,78,79
 70 -251 70 -251 94 -251 c 259,80,81
 121 -251 121 -251 168 -184 c 1,82,83
 144 -159 144 -159 121 -159 c 259,84,85
 102 -159 102 -159 86 -179 c 128,-1,86
 70 -199 70 -199 70 -227 c 259,78,79
EndSplineSet
EndChar

StartChar: uni0E10
Encoding: 3600 3600 143
Width: 530
Flags: W
HStem: -290 52<6.70678 57.1504> -180 43<296.869 335.692> -174 52<10.0982 67.6061> -76 42<300.476 356.605> -3 61<300.309 369.542> 157 50<183.21 242.437> 299 50<195.466 274.008> 504 61<423.729 591.44> 532 61<270.655 479.673>
VStem: -46 52<-237.176 -175.754> 128 53<210.259 285.232> 225 73<59.9688 118.167> 249 47<-136.323 -79.8789> 277 56<220.138 296.629> 357 47<-156.413 -76.5183> 429 71<293.173 388.062>
DStem2: 272 -230 258 -296 0.862483 0.506085<0 67.0813> 295.915 -296 364.89 -296 0.207912 0.978148<361.853 646.561>
LayerCount: 3
Fore
SplineSet
371 593 m 3x9ef3
 395 593 419 589 456 579 c 0
 500 568 518 565 534 565 c 3
 549 565 566 569 591 579 c 1
 596 519 l 1
 564 508 548 504 533 504 c 3x9f73
 507 504 481 509 447 518 c 0
 409 528 387 532 360 532 c 3
 319 532 283 522 256 501 c 1
 295 498 335 491 375 478 c 0
 461 450 500 411 500 354 c 3
 500 344 499 335 497 324 c 2
 448 95 l 2
 436 37 379 -3 313 -3 c 3
 260 -3 225 26 225 70 c 3x9ef3
 225 76 226 83 227 89 c 2
 243 164 l 1
 232 159 218 157 204 157 c 3
 157 157 128 187 128 230 c 3
 128 299 186 349 250 349 c 3
 303 349 333 323 333 276 c 3x9ee7
 333 267 332 257 330 247 c 2
 300 107 l 2
 299 102 298 97 298 92 c 3
 298 71 310 58 332 58 c 3
 358 58 375 76 382 109 c 2
 426 317 l 2
 428 324 429 331 429 337 c 3
 429 380 395 411 327 430 c 0
 246 453 178 459 138 459 c 1
 211 557 278 593 371 593 c 3x9ef3
220 207 m 3
 249 207 277 231 277 264 c 3x9e67
 277 285 264 299 240 299 c 3
 209 299 181 273 181 241 c 3
 181 220 196 207 220 207 c 3
340 -34 m 3
 381 -34 404 -56 404 -96 c 3
 404 -105 402 -116 400 -127 c 2
 379 -225 l 1
 258 -296 l 1
 200 -250 l 1
 111 -296 l 1
 106 -274 101 -264 92 -247 c 1
 81 -259 47 -290 20 -290 c 3
 -20 -290 -46 -264 -46 -226 c 3
 -46 -168 5 -122 52 -122 c 3xbe6b
 79 -122 98 -130 108 -143 c 1
 126 -113 141 -74 152 -38 c 1
 210 -38 l 1
 198 -84 168 -152 138 -190 c 1
 148 -221 l 1
 215 -189 l 1
 272 -230 l 1
 331 -198 l 1
 336 -176 l 1
 326 -179 318 -180 309 -180 c 3xde6b
 273 -180 249 -156 249 -122 c 3xbe6b
 249 -69 295 -34 340 -34 c 3
333 -76 m 3xde67
 315 -76 296 -91 296 -113 c 3xde6b
 296 -127 305 -137 320 -137 c 3
 340 -137 357 -121 357 -97 c 3
 357 -83 349 -76 333 -76 c 3xde67
68 -195 m 1
 63 -184 47 -174 34 -174 c 3xbe63
 20 -174 6 -193 6 -215 c 3
 6 -229 13 -238 24 -238 c 3
 42 -238 56 -225 68 -195 c 1
EndSplineSet
Layer: 2
SplineSet
371 593 m 259,0,1
 404 593 404 593 456 579 c 0,2,3
 512 565 512 565 534 565 c 259,4,5
 556 565 556 565 591 579 c 1,6,-1
 596 519 l 1,7,8
 552 504 552 504 533 504 c 259,9,10
 500 504 500 504 447 518 c 128,-1,11
 394 532 394 532 360 532 c 259,12,13
 296 532 296 532 256 501 c 1,14,15
 319 496 319 496 375 478 c 0,16,17
 439 457 439 457 469.5 427 c 128,-1,18
 500 397 500 397 500 354 c 259,19,20
 500 340 500 340 497 324 c 2,21,-1
 448 95 l 2,22,23
 439 52 439 52 401 24.5 c 128,-1,24
 363 -3 363 -3 313 -3 c 259,25,26
 273 -3 273 -3 249 17 c 128,-1,27
 225 37 225 37 225 70 c 259,28,29
 225 77 225 77 227 89 c 2,30,-1
 243 164 l 1,31,32
 228 157 228 157 204 157 c 259,33,34
 169 157 169 157 148.5 177 c 128,-1,35
 128 197 128 197 128 230 c 259,36,37
 128 281 128 281 164.5 315 c 128,-1,38
 201 349 201 349 250 349 c 259,39,40
 290 349 290 349 311.5 330 c 128,-1,41
 333 311 333 311 333 276 c 259,42,43
 333 262 333 262 330 247 c 2,44,-1
 300 107 l 2,45,46
 298 97 298 97 298 92 c 259,47,48
 298 58 298 58 332 58 c 259,49,50
 371 58 371 58 382 109 c 2,51,-1
 426 317 l 2,52,53
 429 327 429 327 429 337 c 259,54,55
 429 401 429 401 327 430 c 128,-1,56
 225 459 225 459 138 459 c 1,57,58
 192 532 192 532 246 562.5 c 128,-1,59
 300 593 300 593 371 593 c 259,0,1
220 207 m 259,60,61
 242 207 242 207 259.5 223.5 c 128,-1,62
 277 240 277 240 277 264 c 259,63,64
 277 299 277 299 240 299 c 259,65,66
 216 299 216 299 198.5 282 c 128,-1,67
 181 265 181 265 181 241 c 259,68,69
 181 207 181 207 220 207 c 259,60,61
340 -34 m 259,70,71
 404 -34 404 -34 404 -96 c 259,72,73
 404 -105 404 -105 400 -127 c 2,74,-1
 379 -225 l 1,75,-1
 258 -296 l 1,76,-1
 200 -250 l 1,77,-1
 111 -296 l 1,78,79
 106 -273 106 -273 92 -247 c 1,80,81
 53 -290 53 -290 20 -290 c 259,82,83
 -10 -290 -10 -290 -28 -272.5 c 128,-1,84
 -46 -255 -46 -255 -46 -226 c 259,85,86
 -46 -184 -46 -184 -15.5 -153 c 128,-1,87
 15 -122 15 -122 52 -122 c 259,88,89
 92 -122 92 -122 108 -143 c 1,90,91
 132 -103 132 -103 152 -38 c 1,92,-1
 210 -38 l 1,93,94
 186 -129 186 -129 138 -190 c 1,95,-1
 148 -221 l 1,96,-1
 215 -189 l 1,97,-1
 272 -230 l 1,98,-1
 331 -198 l 1,99,-1
 336 -176 l 1,100,101
 323 -180 323 -180 309 -180 c 259,102,103
 282 -180 282 -180 265.5 -164 c 128,-1,104
 249 -148 249 -148 249 -122 c 259,105,106
 249 -84 249 -84 276.5 -59 c 128,-1,107
 304 -34 304 -34 340 -34 c 259,70,71
333 -76 m 259,108,109
 319 -76 319 -76 307.5 -86.5 c 128,-1,110
 296 -97 296 -97 296 -113 c 259,111,112
 296 -137 296 -137 320 -137 c 259,113,114
 335 -137 335 -137 346 -126 c 128,-1,115
 357 -115 357 -115 357 -97 c 259,116,117
 357 -76 357 -76 333 -76 c 259,108,109
68 -195 m 1,118,119
 58 -174 58 -174 34 -174 c 259,120,121
 23 -174 23 -174 14.5 -186.5 c 128,-1,122
 6 -199 6 -199 6 -215 c 259,123,124
 6 -238 6 -238 24 -238 c 259,125,126
 51 -238 51 -238 68 -195 c 1,118,119
EndSplineSet
Substitution2: "'ccmp' Pali-Sanskrit Descender Removal" uni0E10.descless
Substitution2: "Thai Descender Removal Single Substitution" uni0E10.descless
EndChar

StartChar: uni0E11
Encoding: 3601 3601 144
Width: 815
Flags: W
HStem: 0 21G<296 372.5 633 706.238> 264 46<168.96 249.582> 406 46<186.607 259.803> 532 61<686.493 738.195>
VStem: 106 60<313.723 393.066> 263 46<324.087 403.088> 633 69<0 69> 739 72<416.664 531.169>
DStem2: 296 0 369 0 0.207912 0.978148<15.1776 162.601 254.606 459.515> 633 0 702 0 0.207912 0.978148<14.3459 514.842>
LayerCount: 3
Fore
SplineSet
734 593 m 3
 776 593 811 562 811 521 c 3
 811 516 810 510 809 505 c 2
 702 0 l 1
 633 0 l 1
 738 492 l 2
 739 496 739 500 739 504 c 3
 739 520 730 532 715 532 c 3
 701 532 679 508 594 393 c 0
 478 237 407 128 392 84 c 0
 381 52 376 32 369 0 c 1
 296 0 l 1
 386 425 l 17
 420 449 439 468 439 483 c 3
 439 498 427 515 406 529 c 9
 326 492 l 1
 265 529 l 1
 225 512 193 474 186 443 c 1
 202 449 218 452 232 452 c 3
 281 452 309 428 309 384 c 3
 309 312 253 264 194 264 c 3
 138 264 106 300 106 358 c 3
 106 410 125 454 147 489 c 0
 175 533 215 569 267 593 c 1
 337 547 l 1
 428 593 l 1
 466 568 498 528 511 492 c 1
 504 460 l 17
 490 446 468 426 453 415 c 1
 415 235 l 1
 439 282 495 359 545 426 c 0
 633 542 687 593 734 593 c 3
204 310 m 3
 235 310 263 335 263 369 c 3
 263 389 251 406 224 406 c 3
 193 406 166 381 166 346 c 3
 166 324 181 310 204 310 c 3
EndSplineSet
Layer: 2
SplineSet
734 593 m 259,0,1
 766 593 766 593 788.5 572 c 128,-1,2
 811 551 811 551 811 521 c 259,3,4
 811 515 811 515 809 505 c 2,5,-1
 702 0 l 1,6,-1
 633 0 l 1,7,-1
 738 492 l 2,8,9
 739 496 739 496 739 504 c 259,10,11
 739 532 739 532 715 532 c 259,12,13
 704 532 704 532 680 505 c 128,-1,14
 656 478 656 478 594 393 c 0,15,16
 416 153 416 153 392 84 c 0,17,18
 379 47 379 47 369 0 c 1,19,-1
 296 0 l 1,20,-1
 386 425 l 1,21,22
 439 462 439 462 439 483 c 259,23,24
 439 507 439 507 406 529 c 1,25,-1
 326 492 l 1,26,-1
 265 529 l 1,27,28
 236 517 236 517 213.5 492 c 128,-1,29
 191 467 191 467 186 443 c 1,30,31
 210 452 210 452 232 452 c 259,32,33
 309 452 309 452 309 384 c 259,34,35
 309 332 309 332 274.5 298 c 128,-1,36
 240 264 240 264 194 264 c 259,37,38
 152 264 152 264 129 289 c 128,-1,39
 106 314 106 314 106 358 c 259,40,41
 106 424 106 424 147 489 c 0,42,43
 191 558 191 558 267 593 c 1,44,-1
 337 547 l 1,45,-1
 428 593 l 1,46,47
 489 553 489 553 511 492 c 1,48,-1
 504 460 l 1,49,50
 475 432 475 432 453 415 c 1,51,-1
 415 235 l 1,52,53
 442 288 442 288 545 426 c 0,54,55
 613 515 613 515 656 554 c 128,-1,56
 699 593 699 593 734 593 c 259,0,1
204 310 m 259,57,58
 228 310 228 310 245.5 327 c 128,-1,59
 263 344 263 344 263 369 c 259,60,61
 263 385 263 385 253 395.5 c 128,-1,62
 243 406 243 406 224 406 c 259,63,64
 200 406 200 406 183 389 c 128,-1,65
 166 372 166 372 166 346 c 259,66,67
 166 330 166 330 176.5 320 c 128,-1,68
 187 310 187 310 204 310 c 259,57,58
EndSplineSet
EndChar

StartChar: uni0E12
Encoding: 3602 3602 145
Width: 820
Flags: W
HStem: -3 61<399.2 444.373 609.647 649.091> 236 45<255.359 280> 379 45<264.105 347.397> 575 15G<281.5 349 455 520 753.783 827>
VStem: 89 71<193.791 410.365> 135 73<0 37.3445> 201 50<285.888 365.878> 341 56<58.5286 165.297> 351 50<293.514 375.368> 522 69<397.78 514.852> 758 69<521 590>
DStem2: 393 535 378 468 0.845079 0.534642<0 79.0881> 427.064 -3 494.058 -3 0.207912 0.978148<58.9579 171.413 250.952 466.34> 631.954 -3 701.807 -3 0.207912 0.978148<59.7776 606.248>
LayerCount: 3
Fore
SplineSet
486 595 m 1xf860
 554 563 591 514 591 458 c 3
 591 448 590 438 588 428 c 2
 546 230 l 17
 572 206 579 190 600 108 c 0
 610 70 618 58 632 58 c 3
 642 58 647 64 653 92 c 2
 758 590 l 1
 827 590 l 1
 722 92 l 2
 708 25 681 -3 627 -3 c 3
 593 -3 568 27 551 89 c 0
 544 114 535 135 527 151 c 1
 510 72 l 2
 501 29 464 -3 416 -3 c 3
 370 -3 341 34 341 87 c 3
 341 135 359 175 383 202 c 0
 406 228 438 245 481 251 c 1
 519 428 l 2
 521 437 522 445 522 454 c 3
 522 491 505 521 476 530 c 1
 378 468 l 1
 305 530 l 1
 257 510 220 480 196 440 c 0
 175 406 160 360 160 307 c 3
 160 274 167 240 176 205 c 0
 187 166 191 139 195 110 c 1
 201 125 243 185 280 236 c 1
 271 236 l 2
 227 236 201 266 201 306 c 3xfb60
 201 374 261 424 320 424 c 3
 368 424 401 395 401 350 c 3
 401 309 377 272 325 206 c 0
 254 116 227 69 208 0 c 1
 135 0 l 1xf4e0
 137 11 138 24 138 38 c 3
 138 78 130 130 114 183 c 0
 97 239 89 273 89 304 c 3
 89 365 112 422 137 461 c 0
 172 517 236 560 327 595 c 1
 393 535 l 1
 486 595 l 1xf860
351 340 m 3xf2e0
 351 363 336 379 311 379 c 3
 280 379 251 356 251 320 c 3
 251 297 268 281 293 281 c 3
 324 281 351 304 351 340 c 3xf2e0
470 199 m 1
 444 192 426 178 414 159 c 0
 405 144 397 121 397 97 c 3xf160
 397 73 406 58 420 58 c 3
 433 58 442 65 445 79 c 2
 470 199 l 1
EndSplineSet
Layer: 2
SplineSet
486 595 m 1,0,1
 540 570 540 570 565.5 535 c 128,-1,2
 591 500 591 500 591 458 c 259,3,4
 591 443 591 443 588 428 c 2,5,-1
 546 230 l 1,6,7
 565 212 565 212 574.5 191 c 128,-1,8
 584 170 584 170 600 108 c 0,9,10
 613 58 613 58 632 58 c 259,11,12
 646 58 646 58 653 92 c 2,13,-1
 758 590 l 1,14,-1
 827 590 l 1,15,-1
 722 92 l 2,16,17
 711 42 711 42 689 19.5 c 128,-1,18
 667 -3 667 -3 627 -3 c 259,19,20
 576 -3 576 -3 551 89 c 0,21,22
 542 121 542 121 527 151 c 1,23,-1
 510 72 l 2,24,25
 503 39 503 39 477 18 c 128,-1,26
 451 -3 451 -3 416 -3 c 259,27,28
 382 -3 382 -3 361.5 22 c 128,-1,29
 341 47 341 47 341 87 c 259,30,31
 341 155 341 155 383 202 c 0,32,33
 419 242 419 242 481 251 c 1,34,-1
 519 428 l 2,35,36
 522 441 522 441 522 454 c 259,37,38
 522 482 522 482 509.5 502.5 c 128,-1,39
 497 523 497 523 476 530 c 1,40,-1
 378 468 l 1,41,-1
 305 530 l 1,42,43
 232 499 232 499 196 440 c 0,44,45
 160 382 160 382 160 307 c 259,46,47
 160 267 160 267 176 205 c 0,48,49
 188 164 188 164 195 110 c 1,50,51
 203 130 203 130 280 236 c 1,52,-1
 271 236 l 2,53,54
 239 236 239 236 220 255.5 c 128,-1,55
 201 275 201 275 201 306 c 259,56,57
 201 355 201 355 237.5 389.5 c 128,-1,58
 274 424 274 424 320 424 c 259,59,60
 356 424 356 424 378.5 404 c 128,-1,61
 401 384 401 384 401 350 c 259,62,63
 401 321 401 321 384 290 c 128,-1,64
 367 259 367 259 325 206 c 0,65,66
 272 138 272 138 247 95 c 128,-1,67
 222 52 222 52 208 0 c 1,68,-1
 135 0 l 1,69,70
 138 16 138 16 138 38 c 259,71,72
 138 104 138 104 114 183 c 0,73,74
 89 265 89 265 89 304 c 259,75,76
 89 386 89 386 137 461 c 0,77,78
 187 541 187 541 327 595 c 1,79,-1
 393 535 l 1,80,-1
 486 595 l 1,0,1
351 340 m 259,81,82
 351 358 351 358 340.5 368.5 c 128,-1,83
 330 379 330 379 311 379 c 259,84,85
 287 379 287 379 269 362.5 c 128,-1,86
 251 346 251 346 251 320 c 259,87,88
 251 303 251 303 262.5 292 c 128,-1,89
 274 281 274 281 293 281 c 259,90,91
 317 281 317 281 334 297.5 c 128,-1,92
 351 314 351 314 351 340 c 259,81,82
470 199 m 1,93,94
 433 189 433 189 414 159 c 0,95,96
 397 131 397 131 397 97 c 259,97,98
 397 58 397 58 420 58 c 259,99,100
 441 58 441 58 445 79 c 2,101,-1
 470 199 l 1,93,94
EndSplineSet
EndChar

StartChar: uni0E13
Encoding: 3603 3603 146
Width: 818
Flags: W
HStem: -3 61<713.605 771.363> -3 50<166.049 244.745> 139 50<194.137 255.258> 195 61<748 784.949> 532 61<276.276 477.454>
VStem: 104 59<50.1317 124.894> 258 52<59.6798 136.104> 501 71<359.008 508.539> 644 69<58.6094 176.125> 750 69<521 590> 791 60<77.6008 188.651>
DStem2: 85.1067 -3 154.464 -3 0.207912 0.978148<204.576 407.792> 404.362 -3 472.918 -3 0.207912 0.978148<16.9971 64.08 134.89 475.633> 627.082 -3 693.169 -3 0.207912 0.978148<104.079 189.257 278.48 605.598>
AnchorPoint: "AboveBase" 841 659 basechar 0
LayerCount: 3
Fore
SplineSet
748 256 m 1x7fc0
 815 256 851 223 851 162 c 3
 851 68 789 -3 716 -3 c 3xbfa0
 670 -3 644 20 644 61 c 3
 644 69 644 77 646 86 c 2
 667 182 l 1
 598 143 526 75 472 0 c 9
 405 0 l 1
 499 443 l 2
 500 450 501 457 501 463 c 3
 501 505 467 532 384 532 c 3
 333 532 281 516 250 498 c 1
 281 488 305 465 348 423 c 1
 279 410 233 368 220 308 c 2
 194 183 l 1
 194 183 210 189 232 189 c 3
 280 189 310 162 310 119 c 3
 310 50 251 -3 186 -3 c 3
 132 -3 104 25 104 71 c 3
 104 80 105 90 107 100 c 2
 154 322 l 2
 163 364 195 404 235 426 c 1
 215 450 161 480 113 487 c 1
 188 552 297 593 394 593 c 3
 517 593 572 547 572 478 c 3
 572 468 571 457 569 446 c 2
 498 115 l 1
 538 168 614 228 678 250 c 1
 750 590 l 1
 819 590 l 1
 748 256 l 1x7fc0
791 147 m 3
 791 181 773 195 735 195 c 1
 714 95 l 2
 713 92 713 88 713 85 c 3
 713 69 723 58 737 58 c 3
 768 58 791 101 791 147 c 3
200 47 m 3x7f80
 233 47 258 73 258 103 c 3
 258 122 246 139 220 139 c 3
 189 139 163 112 163 82 c 3
 163 63 174 47 200 47 c 3x7f80
EndSplineSet
Layer: 2
SplineSet
748 256 m 1,0,1
 851 256 851 256 851 162 c 259,2,3
 851 92 851 92 811 44.5 c 128,-1,4
 771 -3 771 -3 716 -3 c 259,5,6
 681 -3 681 -3 662.5 13.5 c 128,-1,7
 644 30 644 30 644 61 c 259,8,9
 644 77 644 77 646 86 c 2,10,-1
 667 182 l 1,11,12
 559 121 559 121 472 0 c 1,13,-1
 405 0 l 1,14,-1
 499 443 l 2,15,16
 501 457 501 457 501 463 c 259,17,18
 501 497 501 497 472 514.5 c 128,-1,19
 443 532 443 532 384 532 c 259,20,21
 309 532 309 532 250 498 c 1,22,23
 282 488 282 488 348 423 c 1,24,25
 296 413 296 413 263 383 c 128,-1,26
 230 353 230 353 220 308 c 2,27,-1
 194 183 l 1,28,29
 210 189 210 189 232 189 c 259,30,31
 268 189 268 189 289 170 c 128,-1,32
 310 151 310 151 310 119 c 259,33,34
 310 68 310 68 273 32.5 c 128,-1,35
 236 -3 236 -3 186 -3 c 259,36,37
 146 -3 146 -3 125 16.5 c 128,-1,38
 104 36 104 36 104 71 c 259,39,40
 104 85 104 85 107 100 c 2,41,-1
 154 322 l 2,42,43
 161 353 161 353 183 381 c 128,-1,44
 205 409 205 409 235 426 c 1,45,46
 219 445 219 445 183.5 463.5 c 128,-1,47
 148 482 148 482 113 487 c 1,48,49
 169 536 169 536 245 564.5 c 128,-1,50
 321 593 321 593 394 593 c 259,51,52
 483 593 483 593 527.5 562.5 c 128,-1,53
 572 532 572 532 572 478 c 259,54,55
 572 462 572 462 569 446 c 2,56,-1
 498 115 l 1,57,58
 529 156 529 156 580 195 c 128,-1,59
 631 234 631 234 678 250 c 1,60,-1
 750 590 l 1,61,-1
 819 590 l 1,62,-1
 748 256 l 1,0,1
791 147 m 259,63,64
 791 195 791 195 735 195 c 1,65,-1
 714 95 l 2,66,67
 713 92 713 92 713 85 c 259,68,69
 713 73 713 73 719.5 65.5 c 128,-1,70
 726 58 726 58 737 58 c 259,71,72
 760 58 760 58 775.5 85 c 128,-1,73
 791 112 791 112 791 147 c 259,63,64
200 47 m 259,74,75
 224 47 224 47 241 63.5 c 128,-1,76
 258 80 258 80 258 103 c 259,77,78
 258 118 258 118 248 128.5 c 128,-1,79
 238 139 238 139 220 139 c 259,80,81
 197 139 197 139 180 122 c 128,-1,82
 163 105 163 105 163 82 c 259,83,84
 163 47 163 47 200 47 c 259,74,75
EndSplineSet
EndChar

StartChar: uni0E14
Encoding: 3604 3604 147
Width: 614
Flags: W
HStem: 0 21G<152 217.5 433 506.234> 381 50<291.25 376.695> 532 61<293.751 475.665>
VStem: 109 68<200.858 408.134> 152 60<0 54.1309> 225 51<284.265 365.943> 380 51<295.087 377.385> 433 69<0 69> 522 71<379.385 489.221>
DStem2: 219 123 256 87 0.630169 0.776458<0 135.385> 433 0 502 0 0.207912 0.978148<14.3459 439.718>
LayerCount: 3
Fore
SplineSet
200 512 m 0xf780
 252 561 323 593 397 593 c 3
 519 593 593 534 593 447 c 3
 593 435 592 423 589 411 c 2
 502 0 l 1
 433 0 l 1
 519 405 l 2
 521 414 522 423 522 431 c 3
 522 492 471 532 387 532 c 3
 326 532 271 507 233 463 c 0
 202 427 177 375 177 309 c 3xf780
 177 281 182 251 194 216 c 0
 204 185 214 149 219 123 c 1
 240 152 267 188 302 230 c 1
 266 232 225 261 225 310 c 3
 225 374 285 431 349 431 c 3
 397 431 431 399 431 353 c 3
 431 307 397 261 368 225 c 2
 256 87 l 2
 234 61 223 34 212 0 c 1
 152 0 l 1xef80
 154 9 156 16 158 23 c 0
 162 33 165 46 165 59 c 3
 165 81 157 113 132 186 c 0
 116 231 109 270 109 307 c 3
 109 388 145 460 200 512 c 0xf780
318 280 m 3
 355 280 380 309 380 343 c 3
 380 363 368 381 339 381 c 3
 302 381 276 352 276 319 c 3
 276 298 289 280 318 280 c 3
EndSplineSet
Layer: 2
SplineSet
200 512 m 0,0,1
 286 593 286 593 397 593 c 259,2,3
 488 593 488 593 540.5 553 c 128,-1,4
 593 513 593 513 593 447 c 259,5,6
 593 427 593 427 589 411 c 2,7,-1
 502 0 l 1,8,-1
 433 0 l 1,9,-1
 519 405 l 2,10,11
 522 418 522 418 522 431 c 259,12,13
 522 477 522 477 486 504.5 c 128,-1,14
 450 532 450 532 387 532 c 259,15,16
 293 532 293 532 233 463 c 0,17,18
 177 398 177 398 177 309 c 259,19,20
 177 266 177 266 194 216 c 0,21,22
 212 161 212 161 219 123 c 1,23,24
 260 179 260 179 302 230 c 1,25,26
 272 232 272 232 248.5 253.5 c 128,-1,27
 225 275 225 275 225 310 c 259,28,29
 225 358 225 358 263 394.5 c 128,-1,30
 301 431 301 431 349 431 c 259,31,32
 385 431 385 431 408 409 c 128,-1,33
 431 387 431 387 431 353 c 259,34,35
 431 303 431 303 368 225 c 2,36,-1
 256 87 l 2,37,38
 230 57 230 57 212 0 c 1,39,-1
 152 0 l 1,40,41
 154 9 154 9 158 23 c 0,42,43
 165 40 165 40 165 59 c 259,44,45
 165 90 165 90 132 186 c 0,46,47
 109 251 109 251 109 307 c 259,48,49
 109 426 109 426 200 512 c 0,0,1
318 280 m 259,50,51
 345 280 345 280 362.5 298.5 c 128,-1,52
 380 317 380 317 380 343 c 259,53,54
 380 359 380 359 369.5 370 c 128,-1,55
 359 381 359 381 339 381 c 259,56,57
 312 381 312 381 294 362.5 c 128,-1,58
 276 344 276 344 276 319 c 259,59,60
 276 302 276 302 286.5 291 c 128,-1,61
 297 280 297 280 318 280 c 259,50,51
EndSplineSet
EndChar

StartChar: uni0E15
Encoding: 3605 3605 148
Width: 645
Flags: W
HStem: 0 21G<176 253 464 537.241> 230 50<300.58 333> 381 50<311.281 397.683> 575 20G<338.5 400.538 487.923 554>
VStem: 127 66<216.668 409.608> 245 51<284.737 365.261> 401 52<294.967 376.704> 464 69<0 69> 557 69<383.763 517.451>
DStem2: 241 107 293 87 0.594391 0.804176<0.306073 153.598> 435 543 423 474 0.845926 0.533301<0 71.866> 464 0 533 0 0.207912 0.978148<14.3459 466.684>
LayerCount: 3
Fore
SplineSet
372 431 m 3
 421 431 453 401 453 356 c 3
 453 318 432 276 395 225 c 2
 293 87 l 2
 269 55 256 28 250 0 c 1
 176 0 l 1
 179 28 181 50 181 70 c 3
 181 111 174 143 157 192 c 0
 137 249 127 286 127 322 c 3
 127 385 154 445 191 487 c 0
 235 537 298 575 379 595 c 1
 435 543 l 1
 521 595 l 1
 587 580 626 531 626 461 c 3
 626 446 624 431 621 415 c 2
 533 0 l 1
 464 0 l 1
 551 409 l 2
 555 428 557 444 557 458 c 3
 557 500 540 521 515 532 c 1
 423 474 l 1
 352 532 l 1
 293 512 254 481 228 437 c 0
 209 404 193 355 193 305 c 3
 193 275 200 247 212 216 c 0
 225 183 234 145 241 107 c 1
 261 137 299 189 333 230 c 1
 279 230 245 264 245 310 c 3
 245 376 308 431 372 431 c 3
339 280 m 3
 376 280 401 309 401 342 c 3
 401 363 389 381 360 381 c 3
 323 381 296 353 296 319 c 3
 296 298 309 280 339 280 c 3
EndSplineSet
Layer: 2
SplineSet
372 431 m 259,0,1
 409 431 409 431 431 410.5 c 128,-1,2
 453 390 453 390 453 356 c 0,3,4
 453 305 453 305 395 225 c 2,5,-1
 293 87 l 2,6,7
 259 42 259 42 250 0 c 1,8,-1
 176 0 l 1,9,10
 181 47 181 47 181 70 c 259,11,12
 181 123 181 123 157 192 c 0,13,14
 127 277 127 277 127 322 c 259,15,16
 127 414 127 414 191 487 c 0,17,18
 260 566 260 566 379 595 c 1,19,-1
 435 543 l 1,20,-1
 521 595 l 1,21,22
 571 584 571 584 598.5 548.5 c 128,-1,23
 626 513 626 513 626 461 c 259,24,25
 626 442 626 442 621 415 c 2,26,-1
 533 0 l 1,27,-1
 464 0 l 1,28,-1
 551 409 l 2,29,30
 557 438 557 438 557 458 c 259,31,32
 557 514 557 514 515 532 c 1,33,-1
 423 474 l 1,34,-1
 352 532 l 1,35,36
 267 503 267 503 228 437 c 0,37,38
 193 376 193 376 193 305 c 259,39,40
 193 265 193 265 212 216 c 0,41,42
 229 173 229 173 241 107 c 1,43,44
 282 169 282 169 333 230 c 1,45,46
 293 230 293 230 269 252.5 c 128,-1,47
 245 275 245 275 245 310 c 259,48,49
 245 359 245 359 284 395 c 128,-1,50
 323 431 323 431 372 431 c 259,0,1
339 280 m 259,51,52
 366 280 366 280 383.5 298.5 c 128,-1,53
 401 317 401 317 401 342 c 259,54,55
 401 360 401 360 391.5 370.5 c 128,-1,56
 382 381 382 381 360 381 c 259,57,58
 333 381 333 381 314.5 363 c 128,-1,59
 296 345 296 345 296 319 c 259,60,61
 296 302 296 302 307 291 c 128,-1,62
 318 280 318 280 339 280 c 259,51,52
EndSplineSet
EndChar

StartChar: uni0E16
Encoding: 3606 3606 149
Width: 628
Flags: W
HStem: -3 50<181.553 259.449> 139 50<209.537 270.884> 532 61<296.754 508.36>
VStem: 119 59<49.5518 125.217> 273 52<59.9053 136.184> 452 69<0 69> 544 71<390.574 501.109>
DStem2: 100.107 -3 169.464 -3 0.207912 0.978148<204.576 405.581> 451.362 -3 520.362 -3 0.207912 0.978148<17.4129 458.036>
LayerCount: 3
Fore
SplineSet
250 426 m 1
 229 451 170 482 129 487 c 1
 212 549 314 593 419 593 c 3
 545 593 615 541 615 458 c 3
 615 447 614 435 611 422 c 2
 521 0 l 1
 452 0 l 1
 541 418 l 2
 543 428 544 437 544 446 c 3
 544 502 501 532 413 532 c 3
 360 532 310 519 265 498 c 1
 282 493 350 441 363 423 c 1
 294 410 248 368 235 308 c 2
 209 183 l 1
 209 183 225 189 247 189 c 3
 292 189 325 163 325 118 c 3
 325 45 260 -3 201 -3 c 3
 149 -3 119 25 119 72 c 3
 119 81 120 90 122 100 c 2
 169 322 l 2
 178 365 206 397 250 426 c 1
215 47 m 3
 249 47 273 74 273 104 c 3
 273 123 262 139 235 139 c 3
 203 139 178 111 178 83 c 3
 178 64 190 47 215 47 c 3
EndSplineSet
Layer: 2
SplineSet
250 426 m 1,0,1
 234 445 234 445 196.5 464 c 128,-1,2
 159 483 159 483 129 487 c 1,3,4
 271 593 271 593 419 593 c 259,5,6
 513 593 513 593 564 557 c 128,-1,7
 615 521 615 521 615 458 c 259,8,9
 615 439 615 439 611 422 c 2,10,-1
 521 0 l 1,11,-1
 452 0 l 1,12,-1
 541 418 l 2,13,14
 544 433 544 433 544 446 c 259,15,16
 544 488 544 488 512 510 c 128,-1,17
 480 532 480 532 413 532 c 259,18,19
 338 532 338 532 265 498 c 1,20,21
 278 494 278 494 315.5 465 c 128,-1,22
 353 436 353 436 363 423 c 1,23,24
 311 413 311 413 278 383 c 128,-1,25
 245 353 245 353 235 308 c 2,26,-1
 209 183 l 1,27,28
 225 189 225 189 247 189 c 259,29,30
 282 189 282 189 303.5 170 c 128,-1,31
 325 151 325 151 325 118 c 259,32,33
 325 66 325 66 286.5 31.5 c 128,-1,34
 248 -3 248 -3 201 -3 c 259,35,36
 162 -3 162 -3 140.5 17 c 128,-1,37
 119 37 119 37 119 72 c 259,38,39
 119 85 119 85 122 100 c 2,40,-1
 169 322 l 2,41,42
 181 381 181 381 250 426 c 1,0,1
215 47 m 259,43,44
 240 47 240 47 256.5 64 c 128,-1,45
 273 81 273 81 273 104 c 259,46,47
 273 123 273 123 263 131 c 128,-1,48
 253 139 253 139 235 139 c 259,49,50
 212 139 212 139 195 122 c 128,-1,51
 178 105 178 105 178 83 c 259,52,53
 178 68 178 68 187.5 57.5 c 128,-1,54
 197 47 197 47 215 47 c 259,43,44
EndSplineSet
EndChar

StartChar: uni0E17
Encoding: 3607 3607 150
Width: 691
Flags: W
HStem: 0 21G<176 256.5 512 585.267> 401 50<200.627 262.193> 532 61<544.375 614.753> 543 50<211.304 291.204>
VStem: 147 51<454.309 530.114> 294 59<464.888 539.612> 512 69<0 69> 616 68<387 531.737>
DStem2: 176 0 245 0 0.207912 0.978148<14.3459 210.845 321.097 416.194> 512 0 581 0 0.207912 0.978148<14.3459 514.102>
LayerCount: 3
Fore
SplineSet
309 300 m 1xdf
 393 421 450 495 495 539 c 0
 537 579 568 593 601 593 c 3
 658 593 684 568 684 512 c 3
 684 494 682 474 677 450 c 2
 581 0 l 1
 512 0 l 1
 610 459 l 2
 614 478 616 493 616 504 c 3
 616 525 608 532 591 532 c 3xef
 576 532 556 524 539 505 c 0
 456 410 399 336 358 274 c 0
 297 182 268 109 245 0 c 1
 176 0 l 1
 263 407 l 1
 253 403 240 401 224 401 c 3
 176 401 147 429 147 472 c 3
 147 539 204 593 270 593 c 3
 322 593 353 568 353 520 c 3
 353 511 351 501 349 490 c 2
 309 300 l 1xdf
237 451 m 3
 266 451 294 475 294 508 c 3
 294 528 280 543 256 543 c 3xdf
 224 543 198 519 198 486 c 3
 198 465 212 451 237 451 c 3
EndSplineSet
Layer: 2
SplineSet
309 300 m 1,0,1
 432 478 432 478 495 539 c 0,2,3
 552 593 552 593 601 593 c 259,4,5
 644 593 644 593 664 573.5 c 128,-1,6
 684 554 684 554 684 512 c 259,7,8
 684 484 684 484 677 450 c 2,9,-1
 581 0 l 1,10,-1
 512 0 l 1,11,-1
 610 459 l 2,12,13
 616 487 616 487 616 504 c 259,14,15
 616 532 616 532 591 532 c 259,16,17
 563 532 563 532 539 505 c 0,18,19
 423 372 423 372 358 274 c 0,20,21
 313 206 313 206 287.5 144.5 c 128,-1,22
 262 83 262 83 245 0 c 1,23,-1
 176 0 l 1,24,-1
 263 407 l 1,25,26
 248 401 248 401 224 401 c 259,27,28
 188 401 188 401 167.5 420.5 c 128,-1,29
 147 440 147 440 147 472 c 259,30,31
 147 522 147 522 183.5 557.5 c 128,-1,32
 220 593 220 593 270 593 c 259,33,34
 309 593 309 593 331 574.5 c 128,-1,35
 353 556 353 556 353 520 c 259,36,37
 353 512 353 512 349 490 c 2,38,-1
 309 300 l 1,0,1
237 451 m 259,39,40
 259 451 259 451 276.5 467.5 c 128,-1,41
 294 484 294 484 294 508 c 259,42,43
 294 523 294 523 284 533 c 128,-1,44
 274 543 274 543 256 543 c 259,45,46
 232 543 232 543 215 526.5 c 128,-1,47
 198 510 198 510 198 486 c 259,48,49
 198 470 198 470 208 460.5 c 128,-1,50
 218 451 218 451 237 451 c 259,39,40
EndSplineSet
EndChar

StartChar: uni0E18
Encoding: 3608 3608 151
Width: 548
Flags: W
HStem: 0 61<99 166 235 382.673> 501 61<411.887 614.991> 532 61<225.1 458.132>
DStem2: 153.034 0 222.034 0 0.207912 0.978148<76.7087 439.544> 368.382 0 437.145 0 0.207912 0.978148<61.7272 356.708>
LayerCount: 3
Fore
SplineSet
206 494 m 1xa0
 310 488 397 462 438 432 c 0
 484 398 498 377 508 335 c 1
 455 84 l 2
 445 39 398 0 349 0 c 2
 86 0 l 1
 99 61 l 1
 166 61 l 1
 245 433 l 1
 210 439 173 443 134 443 c 3
 127 443 123 446 123 453 c 3
 123 466 146 509 164 527 c 0
 210 575 258 593 337 593 c 3xa0
 368 593 405 586 436 578 c 0
 481 566 509 562 537 562 c 3
 571 562 606 573 629 594 c 1
 647 537 l 1
 606 513 569 501 532 501 c 3xc0
 510 501 481 505 430 516 c 0
 379 527 352 532 329 532 c 3
 258 532 235 524 206 494 c 1xa0
389 97 m 2
 435 317 l 1
 428 349 420 364 387 386 c 0
 364 400 337 412 310 416 c 1
 235 61 l 1
 345 61 l 2
 367 61 385 77 389 97 c 2
EndSplineSet
Layer: 2
SplineSet
206 494 m 1,0,1
 282 490 282 490 344 472.5 c 128,-1,2
 406 455 406 455 438 432 c 0,3,4
 472 407 472 407 486 387 c 128,-1,5
 500 367 500 367 508 335 c 1,6,-1
 455 84 l 2,7,8
 447 50 447 50 416 25 c 128,-1,9
 385 0 385 0 349 0 c 2,10,-1
 86 0 l 1,11,-1
 99 61 l 1,12,-1
 166 61 l 1,13,-1
 245 433 l 1,14,15
 187 443 187 443 134 443 c 259,16,17
 123 443 123 443 123 453 c 259,18,19
 123 463 123 463 137 488.5 c 128,-1,20
 151 514 151 514 164 527 c 0,21,22
 198 563 198 563 238 578 c 128,-1,23
 278 593 278 593 337 593 c 259,24,25
 378 593 378 593 436 578 c 0,26,27
 496 562 496 562 537 562 c 259,28,29
 594 562 594 562 629 594 c 1,30,-1
 647 537 l 1,31,32
 586 501 586 501 532 501 c 259,33,34
 500 501 500 501 430 516 c 0,35,36
 356 532 356 532 329 532 c 259,37,38
 276 532 276 532 252 524.5 c 128,-1,39
 228 517 228 517 206 494 c 1,0,1
389 97 m 2,40,-1
 435 317 l 1,41,42
 430 342 430 342 420.5 356 c 128,-1,43
 411 370 411 370 387 386 c 0,44,45
 347 411 347 411 310 416 c 1,46,-1
 235 61 l 1,47,-1
 345 61 l 2,48,49
 361 61 361 61 373.5 71.5 c 128,-1,50
 386 82 386 82 389 97 c 2,40,-1
EndSplineSet
EndChar

StartChar: uni0E19
Encoding: 3609 3609 152
Width: 668
Flags: W
HStem: -3 61<516.002 589.815> 210 60<577 607.556> 399 50<172.037 232.519> 543 50<181.983 262.297>
VStem: 118 51<452.189 529.437> 265 59<464.899 539.368> 470 69<58.1895 140.577> 576 69<521 590> 614 64<82.4065 204.677>
DStem2: 146.362 -3 215.068 -3 0.207912 0.978148<17.4129 62.4511 139.01 417.097> 449.918 -3 519.706 -3 0.207912 0.978148<98.1662 217.926 293.456 606.255>
AnchorPoint: "AboveBase" 667 659 basechar 0
LayerCount: 3
Fore
SplineSet
538 -3 m 3xfe80
 493 -3 470 21 470 69 c 3
 470 82 471 98 475 115 c 2
 496 210 l 1
 410 200 272 94 216 0 c 1
 147 0 l 1
 233 405 l 1
 223 401 210 399 195 399 c 3
 149 399 118 428 118 472 c 3
 118 542 178 593 241 593 c 3
 294 593 324 567 324 520 c 3
 324 511 322 501 320 490 c 2
 241 119 l 1
 306 190 405 249 509 271 c 1
 576 590 l 1
 645 590 l 1xff
 577 270 l 1
 641 270 678 231 678 169 c 3
 678 72 608 -3 538 -3 c 3xfe80
614 164 m 3xfe80
 614 197 598 210 565 210 c 1
 545 116 l 2
 541 99 539 87 539 78 c 3
 539 62 545 58 557 58 c 3
 589 58 614 111 614 164 c 3xfe80
207 449 m 3
 237 449 265 477 265 508 c 3
 265 529 250 543 227 543 c 3
 197 543 169 519 169 485 c 3
 169 463 184 449 207 449 c 3
EndSplineSet
Layer: 2
SplineSet
538 -3 m 259,0,1
 470 -3 470 -3 470 69 c 259,2,3
 470 94 470 94 475 115 c 2,4,-1
 496 210 l 1,5,6
 432 203 432 203 345 137 c 128,-1,7
 258 71 258 71 216 0 c 1,8,-1
 147 0 l 1,9,-1
 233 405 l 1,10,11
 218 399 218 399 195 399 c 259,12,13
 160 399 160 399 139 419 c 128,-1,14
 118 439 118 439 118 472 c 259,15,16
 118 523 118 523 155 558 c 128,-1,17
 192 593 192 593 241 593 c 259,18,19
 281 593 281 593 302.5 574 c 128,-1,20
 324 555 324 555 324 520 c 259,21,22
 324 512 324 512 320 490 c 2,23,-1
 241 119 l 1,24,25
 291 173 291 173 361.5 214 c 128,-1,26
 432 255 432 255 509 271 c 1,27,-1
 576 590 l 1,28,-1
 645 590 l 1,29,-1
 577 270 l 1,30,31
 625 270 625 270 651.5 243 c 128,-1,32
 678 216 678 216 678 169 c 259,33,34
 678 98 678 98 635 47.5 c 128,-1,35
 592 -3 592 -3 538 -3 c 259,0,1
614 164 m 259,36,37
 614 210 614 210 565 210 c 1,38,-1
 545 116 l 2,39,40
 539 90 539 90 539 78 c 259,41,42
 539 58 539 58 557 58 c 259,43,44
 580 58 580 58 597 90.5 c 128,-1,45
 614 123 614 123 614 164 c 259,36,37
207 449 m 259,46,47
 230 449 230 449 247.5 467 c 128,-1,48
 265 485 265 485 265 508 c 259,49,50
 265 524 265 524 254.5 533.5 c 128,-1,51
 244 543 244 543 227 543 c 259,52,53
 204 543 204 543 186.5 526.5 c 128,-1,54
 169 510 169 510 169 485 c 259,55,56
 169 469 169 469 179.5 459 c 128,-1,57
 190 449 190 449 207 449 c 259,46,47
EndSplineSet
EndChar

StartChar: uni0E1A
Encoding: 3610 3610 153
Width: 636
Flags: W
HStem: 0 61<87 160 229 474.761> 401 50<179.176 233.659> 543 50<189.658 265.68>
VStem: 125 52<453.664 530.015> 268 55<463.195 540.247> 588 69<521 590>
DStem2: 147.034 0 216.034 0 0.207912 0.978148<76.7087 416.187> 462.957 0 532.145 0 0.207912 0.978148<63.0384 603.105>
LayerCount: 3
Fore
SplineSet
431 61 m 2
 457 61 479 76 484 99 c 2
 588 590 l 1
 657 590 l 1
 550 84 l 2
 539 32 495 0 441 0 c 2
 74 0 l 1
 87 61 l 1
 160 61 l 1
 234 407 l 1
 224 403 212 401 198 401 c 3
 157 401 125 426 125 470 c 3
 125 539 180 593 243 593 c 3
 295 593 323 564 323 518 c 3
 323 509 322 500 320 490 c 2
 229 61 l 1
 431 61 l 2
212 451 m 3
 240 451 268 474 268 508 c 3
 268 528 254 543 231 543 c 3
 203 543 177 518 177 485 c 3
 177 465 190 451 212 451 c 3
EndSplineSet
Layer: 2
SplineSet
431 61 m 2,0,1
 451 61 451 61 465.5 71.5 c 128,-1,2
 480 82 480 82 484 99 c 2,3,-1
 588 590 l 1,4,-1
 657 590 l 1,5,-1
 550 84 l 2,6,7
 542 45 542 45 512 22.5 c 128,-1,8
 482 0 482 0 441 0 c 2,9,-1
 74 0 l 1,10,-1
 87 61 l 1,11,-1
 160 61 l 1,12,-1
 234 407 l 1,13,14
 219 401 219 401 198 401 c 259,15,16
 166 401 166 401 145.5 419.5 c 128,-1,17
 125 438 125 438 125 470 c 259,18,19
 125 521 125 521 160 557 c 128,-1,20
 195 593 195 593 243 593 c 259,21,22
 281 593 281 593 302 573 c 128,-1,23
 323 553 323 553 323 518 c 259,24,25
 323 505 323 505 320 490 c 2,26,-1
 229 61 l 1,27,-1
 431 61 l 2,0,1
212 451 m 259,28,29
 234 451 234 451 251 467 c 128,-1,30
 268 483 268 483 268 508 c 259,31,32
 268 523 268 523 258 533 c 128,-1,33
 248 543 248 543 231 543 c 259,34,35
 210 543 210 543 193.5 526 c 128,-1,36
 177 509 177 509 177 485 c 259,37,38
 177 470 177 470 186.5 460.5 c 128,-1,39
 196 451 196 451 212 451 c 259,28,29
EndSplineSet
EndChar

StartChar: uni0E1B
Encoding: 3611 3611 154
Width: 636
Flags: W
HStem: 0 61<87 160 229 474.761> 401 50<179.183 233.253> 543 50<188.771 265.501>
VStem: 125 52<452.961 530.898> 268 55<463.401 539.88> 651 69<817 886>
DStem2: 147.034 0 216.034 0 0.207912 0.978148<76.7087 416.187> 462.957 0 532.145 0 0.207912 0.978148<63.0384 905.735>
AnchorPoint: "AboveBase" 564 659 basechar 0
LayerCount: 3
Fore
SplineSet
431 61 m 2
 457 61 479 76 484 99 c 2
 651 886 l 1
 720 886 l 1
 550 84 l 2
 539 32 495 0 441 0 c 2
 74 0 l 1
 87 61 l 1
 160 61 l 1
 234 407 l 1
 224 403 212 401 198 401 c 3
 157 401 125 424 125 469 c 3
 125 536 177 593 243 593 c 3
 294 593 323 563 323 517 c 3
 323 508 322 500 320 490 c 2
 229 61 l 1
 431 61 l 2
212 451 m 3
 244 451 268 478 268 508 c 3
 268 527 256 543 231 543 c 3
 199 543 177 515 177 485 c 3
 177 466 188 451 212 451 c 3
EndSplineSet
Layer: 2
SplineSet
431 61 m 2,0,1
 451 61 451 61 465.5 71.5 c 128,-1,2
 480 82 480 82 484 99 c 2,3,-1
 651 886 l 1,4,-1
 720 886 l 1,5,-1
 550 84 l 2,6,7
 542 45 542 45 512 22.5 c 128,-1,8
 482 0 482 0 441 0 c 2,9,-1
 74 0 l 1,10,-1
 87 61 l 1,11,-1
 160 61 l 1,12,-1
 234 407 l 1,13,14
 219 401 219 401 198 401 c 259,15,16
 166 401 166 401 145.5 418.5 c 128,-1,17
 125 436 125 436 125 469 c 259,18,19
 125 520 125 520 159.5 556.5 c 128,-1,20
 194 593 194 593 243 593 c 259,21,22
 281 593 281 593 302 572.5 c 128,-1,23
 323 552 323 552 323 517 c 259,24,25
 323 505 323 505 320 490 c 2,26,-1
 229 61 l 1,27,-1
 431 61 l 2,0,1
212 451 m 259,28,29
 236 451 236 451 252 468 c 128,-1,30
 268 485 268 485 268 508 c 259,31,32
 268 523 268 523 258.5 533 c 128,-1,33
 249 543 249 543 231 543 c 259,34,35
 208 543 208 543 192.5 525.5 c 128,-1,36
 177 508 177 508 177 485 c 259,37,38
 177 451 177 451 212 451 c 259,28,29
EndSplineSet
EndChar

StartChar: uni0E1C
Encoding: 3612 3612 155
Width: 639
Flags: W
HStem: 0 21G<81 170 451 527.237> 401 50<243.485 318.456> 543 50<254.462 328.39>
VStem: 331 51<463.68 540.908> 579 69<521 590>
DStem2: 81 0 150.368 0 0.207912 0.978148<14.3459 79.6488 147.327 430.54> 454.368 0 523 0 0.207912 0.978148<132.904 603.02>
LayerCount: 3
Fore
SplineSet
271 401 m 3
 256 401 247 403 237 407 c 1
 178 130 l 1
 224 192 310 271 366 303 c 1
 414 265 455 198 482 130 c 1
 579 590 l 1
 648 590 l 1
 523 0 l 1
 454 0 l 1
 448 73 398 184 350 227 c 1
 277 179 190 82 150 0 c 1
 81 0 l 1
 185 490 l 2
 197 546 247 593 307 593 c 3
 354 593 382 566 382 521 c 3
 382 450 329 401 271 401 c 3
277 451 m 3
 306 451 331 476 331 509 c 3
 331 529 318 543 296 543 c 3
 269 543 242 520 242 484 c 3
 242 464 254 451 277 451 c 3
EndSplineSet
Layer: 2
SplineSet
271 401 m 259,0,1
 252 401 252 401 237 407 c 1,2,-1
 178 130 l 1,3,4
 212 176 212 176 268 227.5 c 128,-1,5
 324 279 324 279 366 303 c 1,6,7
 435 248 435 248 482 130 c 1,8,-1
 579 590 l 1,9,-1
 648 590 l 1,10,-1
 523 0 l 1,11,-1
 454 0 l 1,12,13
 449 55 449 55 417.5 125 c 128,-1,14
 386 195 386 195 350 227 c 1,15,16
 295 191 295 191 237.5 126 c 128,-1,17
 180 61 180 61 150 0 c 1,18,-1
 81 0 l 1,19,-1
 185 490 l 2,20,21
 194 533 194 533 228.5 563 c 128,-1,22
 263 593 263 593 307 593 c 259,23,24
 342 593 342 593 362 574 c 128,-1,25
 382 555 382 555 382 521 c 259,26,27
 382 469 382 469 349 435 c 128,-1,28
 316 401 316 401 271 401 c 259,0,1
277 451 m 259,29,30
 299 451 299 451 315 468 c 128,-1,31
 331 485 331 485 331 509 c 259,32,33
 331 524 331 524 321.5 533.5 c 128,-1,34
 312 543 312 543 296 543 c 259,35,36
 275 543 275 543 258.5 526.5 c 128,-1,37
 242 510 242 510 242 484 c 259,38,39
 242 451 242 451 277 451 c 259,29,30
EndSplineSet
EndChar

StartChar: uni0E1D
Encoding: 3613 3613 156
Width: 639
Flags: W
HStem: 0 21G<463 539.244> 401 50<255.898 330.205> 543 50<266.404 340.383>
VStem: 343 51<463.705 540.988> 654 69<817 886>
DStem2: 92.5749 0 162.368 0 0.207912 0.978148<16.3906 77.8129 147.415 430.629> 466.368 0 535 0 0.207912 0.978148<132.904 905.65>
AnchorPoint: "AboveBase" 567 659 basechar 0
LayerCount: 3
Fore
SplineSet
283 401 m 3
 268 401 259 403 249 407 c 1
 190 130 l 1
 236 192 322 271 378 303 c 1
 426 265 467 198 494 130 c 9
 654 886 l 1
 723 886 l 1
 535 0 l 1
 466 0 l 1
 460 73 410 184 362 227 c 1
 318 198 224 115 162 2 c 1
 93 2 l 1
 197 490 l 2
 209 546 259 593 319 593 c 3
 366 593 394 566 394 521 c 3
 394 450 341 401 283 401 c 3
289 451 m 3
 319 451 343 479 343 509 c 3
 343 528 332 543 308 543 c 3
 278 543 254 515 254 485 c 3
 254 466 265 451 289 451 c 3
EndSplineSet
Layer: 2
SplineSet
283 401 m 259,0,1
 264 401 264 401 249 407 c 1,2,-1
 190 130 l 1,3,4
 224 176 224 176 280 227.5 c 128,-1,5
 336 279 336 279 378 303 c 1,6,7
 447 248 447 248 494 130 c 1,8,-1
 654 886 l 1,9,-1
 723 886 l 1,10,-1
 535 0 l 1,11,-1
 466 0 l 1,12,13
 461 55 461 55 429.5 125 c 128,-1,14
 398 195 398 195 362 227 c 1,15,16
 319 199 319 199 261.5 138.5 c 128,-1,17
 204 78 204 78 162 2 c 1,18,-1
 93 2 l 1,19,-1
 197 490 l 2,20,21
 206 533 206 533 240.5 563 c 128,-1,22
 275 593 275 593 319 593 c 259,23,24
 354 593 354 593 374 574 c 128,-1,25
 394 555 394 555 394 521 c 259,26,27
 394 469 394 469 361 435 c 128,-1,28
 328 401 328 401 283 401 c 259,0,1
289 451 m 259,29,30
 311 451 311 451 327 468.5 c 128,-1,31
 343 486 343 486 343 509 c 259,32,33
 343 543 343 543 308 543 c 259,34,35
 286 543 286 543 270 525.5 c 128,-1,36
 254 508 254 508 254 485 c 259,37,38
 254 451 254 451 289 451 c 259,29,30
EndSplineSet
EndChar

StartChar: uni0E1E
Encoding: 3614 3614 157
Width: 698
Flags: W
HStem: 0 21G<143 231.5 518 590.237> 401 50<174.319 229.679> 543 50<184.387 261.689>
VStem: 120 52<453.479 530.679> 264 55<462.6 540.682> 452 69<524.071 590> 460 53<307.135 463> 642 69<521 590>
DStem2: 143 0 212.339 0 0.207912 0.978148<14.7617 105.677 214.795 416.194> 517.339 0 586 0 0.207912 0.978148<200.379 603.026>
LayerCount: 3
Fore
SplineSet
238 593 m 3xfb
 292 593 319 562 319 517 c 3
 319 509 318 499 316 490 c 2
 254 196 l 1
 341 316 432 498 452 590 c 1
 521 590 l 1xfd
 515 564 513 533 513 500 c 3
 513 417 530 314 559 196 c 1
 642 590 l 1
 711 590 l 1
 586 0 l 1
 518 0 l 1
 519 8 519 16 519 24 c 3
 519 80 509 148 482 254 c 0
 467 315 460 382 460 441 c 2
 460 463 l 1
 440 397 399 316 351 247 c 0
 289 157 249 86 214 0 c 1
 143 0 l 1
 230 407 l 1
 220 403 208 401 193 401 c 3
 148 401 120 427 120 469 c 3
 120 541 175 593 238 593 c 3xfb
208 451 m 3
 239 451 264 475 264 509 c 3
 264 530 250 543 227 543 c 3
 196 543 172 518 172 484 c 3
 172 463 185 451 208 451 c 3
EndSplineSet
Layer: 2
SplineSet
238 593 m 259,0,1
 277 593 277 593 298 572.5 c 128,-1,2
 319 552 319 552 319 517 c 259,3,4
 319 504 319 504 316 490 c 2,5,-1
 254 196 l 1,6,7
 319 286 319 286 378 403.5 c 128,-1,8
 437 521 437 521 452 590 c 1,9,-1
 521 590 l 1,10,11
 513 555 513 555 513 500 c 259,12,13
 513 383 513 383 559 196 c 1,14,-1
 642 590 l 1,15,-1
 711 590 l 1,16,-1
 586 0 l 1,17,-1
 518 0 l 1,18,19
 519 8 519 8 519 24 c 259,20,21
 519 109 519 109 482 254 c 0,22,23
 460 343 460 343 460 441 c 2,24,-1
 460 463 l 1,25,26
 428 358 428 358 351 247 c 0,27,28
 262 118 262 118 214 0 c 1,29,-1
 143 0 l 1,30,-1
 230 407 l 1,31,32
 215 401 215 401 193 401 c 259,33,34
 159 401 159 401 139.5 419.5 c 128,-1,35
 120 438 120 438 120 469 c 259,36,37
 120 522 120 522 155 557.5 c 128,-1,38
 190 593 190 593 238 593 c 259,0,1
208 451 m 259,39,40
 232 451 232 451 248 467.5 c 128,-1,41
 264 484 264 484 264 509 c 259,42,43
 264 543 264 543 227 543 c 259,44,45
 204 543 204 543 188 526 c 128,-1,46
 172 509 172 509 172 484 c 259,47,48
 172 451 172 451 208 451 c 259,39,40
EndSplineSet
EndChar

